<?xml version="1.0" encoding="UTF-8"?>
<svg id="_レイヤー_2" data-name="レイヤー 2" xmlns="http://www.w3.org/2000/svg" viewBox="0 0 290.05 70.09">
  <defs>
    <style>
      .cls-1 {
        fill: #5a5655;
        stroke-width: 0px;
      }

      .cls-2 {
        isolation: isolate;
      }
    </style>
  </defs>
  <g id="_レイヤー_1-2" data-name="レイヤー 1">
    <g class="cls-2">
      <path class="cls-1" d="M80.47,10.72c0,.46-.06.91-.17,1.36-.11.46-.23.91-.34,1.36l-14.8,48.91c-.62,1.93-1.67,3.49-3.15,4.68-1.47,1.19-3.21,1.79-5.19,1.79h-2.21c-1.87,0-3.62-.61-5.23-1.83-1.62-1.22-2.74-2.82-3.36-4.81l-5.87-19.65-5.27,19.65c-.57,1.99-1.67,3.59-3.32,4.81-1.65,1.22-3.4,1.83-5.27,1.83h-2.64c-1.99,0-3.73-.6-5.23-1.79-1.5-1.19-2.57-2.75-3.19-4.68-2.38-7.88-4.86-16.05-7.44-24.5C5.2,29.4,2.75,21.24.42,13.36c-.28-1.02-.42-1.84-.42-2.47,0-1.19.24-2.33.72-3.4.48-1.08,1.13-2.03,1.96-2.85s1.77-1.47,2.85-1.96c1.08-.48,2.21-.72,3.4-.72,1.59,0,2.93.33,4.04.98,1.11.65,1.97,1.38,2.59,2.17.74.91,1.33,1.93,1.79,3.06l7.32,23.65c1.02-3.86,2.04-7.78,3.06-11.78,1.02-4,2.04-7.87,3.06-11.61.51-1.87,1.56-3.42,3.15-4.64,1.59-1.22,3.37-1.83,5.36-1.83h1.53c1.93,0,3.73.61,5.4,1.83,1.67,1.22,2.76,2.76,3.28,4.64l6.38,23.73c1.13-3.91,2.34-7.91,3.62-11.99,1.28-4.08,2.48-8.05,3.62-11.91.45-1.13,1.05-2.18,1.79-3.15.62-.79,1.47-1.52,2.55-2.17,1.08-.65,2.44-.98,4.08-.98,1.13,0,2.24.23,3.32.68,1.08.46,2.03,1.09,2.85,1.91.82.82,1.49,1.76,2,2.81.51,1.05.77,2.17.77,3.36Z"/>
      <path class="cls-1" d="M137.26,44.4c0,3.35-.55,6.54-1.66,9.57-1.11,3.04-2.76,5.7-4.98,8-2.21,2.3-5.01,4.14-8.38,5.53-3.38,1.39-7.36,2.08-11.95,2.08s-8.58-.7-11.95-2.08c-3.37-1.39-6.17-3.23-8.38-5.53-2.21-2.3-3.87-4.96-4.98-8-1.11-3.03-1.66-6.22-1.66-9.57s.54-6.46,1.62-9.53c1.08-3.06,2.73-5.76,4.98-8.08,2.24-2.33,5.05-4.18,8.42-5.57,3.37-1.39,7.36-2.08,11.95-2.08s8.59.7,11.99,2.08c3.4,1.39,6.21,3.25,8.42,5.57,2.21,2.33,3.86,5,4.93,8.04,1.08,3.04,1.62,6.22,1.62,9.57ZM119.57,44.4c0-2.21-.75-4.14-2.25-5.78-1.5-1.64-3.84-2.47-7.02-2.47s-5.52.82-7.02,2.47c-1.5,1.65-2.25,3.57-2.25,5.78s.75,4.05,2.25,5.7c1.5,1.65,3.84,2.47,7.02,2.47s5.51-.82,7.02-2.47c1.5-1.64,2.25-3.54,2.25-5.7Z"/>
      <path class="cls-1" d="M180.12,33.18c-.88,1.13-1.86,1.99-2.93,2.55-1.25.62-2.64.99-4.17,1.11-1.36,0-2.55.14-3.57.43-1.02.28-1.87.64-2.55,1.06-.68.42-1.21.88-1.57,1.36-.37.48-.55.92-.55,1.32v19.65c0,1.19-.23,2.31-.68,3.36-.45,1.05-1.08,1.96-1.87,2.72-.79.77-1.7,1.36-2.72,1.79-1.02.42-2.07.64-3.15.64h-.51c-2.38,0-4.38-.81-6-2.42-1.62-1.62-2.42-3.64-2.42-6.08V28.07c0-2.38.81-4.38,2.42-6,1.62-1.62,3.62-2.42,6-2.42h.42c1.36,0,2.54.35,3.53,1.06.99.71,1.66,1.46,2,2.25.4-.4.92-.81,1.57-1.23.65-.43,1.38-.82,2.17-1.19.79-.37,1.64-.67,2.55-.89.91-.23,1.84-.34,2.81-.34h1.32c.54,0,.95.03,1.23.08,2.27.17,4.17,1.04,5.7,2.59,1.53,1.56,2.3,3.5,2.3,5.83v.51c0,2.1-.44,3.71-1.32,4.85Z"/>
      <path class="cls-1" d="M233.41,60.65c0,1.36-.26,2.57-.77,3.62-.51,1.05-1.16,1.93-1.96,2.64-.79.71-1.7,1.26-2.72,1.66-1.02.4-2.04.6-3.06.6h-.59c-1.48,0-2.85-.37-4.13-1.11-1.28-.74-2.25-1.64-2.93-2.72l-8.76-13.53c-.4.4-.79.77-1.19,1.11-.4.34-.82.74-1.28,1.19v6.55c0,1.14-.23,2.21-.68,3.23-.46,1.02-1.06,1.93-1.83,2.72-.76.79-1.66,1.42-2.68,1.87-1.02.45-2.13.68-3.32.68h-.43c-1.13,0-2.21-.23-3.23-.68-1.02-.45-1.91-1.08-2.68-1.87-.77-.79-1.39-1.7-1.87-2.72-.48-1.02-.72-2.1-.72-3.23V8.42c0-1.25.24-2.39.72-3.44.48-1.05,1.11-1.94,1.87-2.68.77-.74,1.66-1.3,2.68-1.7,1.02-.4,2.1-.6,3.23-.6h.43c1.08,0,2.14.2,3.19.6,1.05.4,1.96.96,2.72,1.7.77.74,1.39,1.63,1.87,2.68.48,1.05.72,2.2.72,3.44v22.46l9.78-9.1c.57-.45,1.16-.78,1.79-.98.62-.2,1.47-.3,2.55-.3,2.44,0,4.47.81,6.08,2.42s2.42,3.64,2.42,6.08c0,1.14-.21,2.2-.64,3.19-.43.99-1.01,1.89-1.74,2.68l-4.76,4.85,10.55,16.33c.45.68.79,1.43,1.02,2.25.23.82.34,1.6.34,2.34Z"/>
      <path class="cls-1" d="M290.05,52.91c0,2.33-.44,4.52-1.32,6.59-.88,2.07-2.25,3.89-4.13,5.44-1.87,1.56-4.24,2.81-7.1,3.74-2.86.94-6.28,1.4-10.25,1.4-3.18,0-6.42-.28-9.74-.85-3.32-.57-6.31-1.37-8.97-2.42-2.67-1.05-4.85-2.35-6.55-3.91-1.7-1.56-2.55-3.33-2.55-5.32,0-2.16.37-3.81,1.11-4.98.74-1.16,1.59-2.03,2.55-2.59,1.08-.62,2.32-.99,3.74-1.11.79,0,1.47.11,2.04.34.57.23,1.11.51,1.62.85,1.59,1.08,3.22,1.91,4.89,2.51,1.67.59,3.28,1.02,4.81,1.28,1.53.26,2.93.41,4.21.47,1.28.06,2.34.09,3.19.09,1.42,0,2.68-.07,3.79-.21,1.11-.14,1.66-.67,1.66-1.57,0-.28-.17-.52-.51-.72-.34-.2-.75-.35-1.23-.47-.48-.11-.96-.18-1.45-.21-.48-.03-.84-.04-1.06-.04-1.47-.06-3.1-.1-4.89-.13-1.79-.03-3.42-.1-4.89-.21-5.79-.4-10.15-1.96-13.1-4.68-2.95-2.72-4.42-6.21-4.42-10.46,0-2.21.42-4.34,1.28-6.38.85-2.04,2.21-3.84,4.08-5.4s4.31-2.82,7.32-3.79c3.01-.96,6.66-1.45,10.97-1.45,2.55,0,5.12.33,7.7.98,2.58.65,4.9,1.53,6.98,2.64,2.07,1.11,3.76,2.4,5.06,3.87,1.3,1.48,1.96,3.01,1.96,4.59,0,1.19-.21,2.23-.64,3.1-.43.88-1.01,1.6-1.74,2.17-.74.57-1.56.99-2.47,1.28-.91.28-1.82.42-2.72.42-1.31,0-2.5-.21-3.57-.64-1.08-.42-2.17-.91-3.28-1.45-1.11-.54-2.34-1.02-3.7-1.45-1.36-.43-2.98-.64-4.85-.64-1.36,0-2.58.23-3.66.68-1.08.46-1.62.99-1.62,1.62,0,.46.17.82.51,1.11.34.28.91.45,1.7.51,1.7.11,3.45.2,5.23.25,1.79.06,3.56.12,5.32.17,2.83.06,5.4.35,7.7.89,2.3.54,4.27,1.39,5.91,2.55,1.64,1.16,2.91,2.69,3.79,4.59.88,1.9,1.32,4.21,1.32,6.93Z"/>
    </g>
  </g>
</svg>