<?xml version="1.0" encoding="UTF-8"?>
<svg id="_レイヤー_2" data-name="レイヤー 2" xmlns="http://www.w3.org/2000/svg" viewBox="0 0 490 69.67">
  <defs>
    <style>
      .cls-1 {
        fill: #5a5655;
        stroke-width: 0px;
      }

      .cls-2 {
        isolation: isolate;
      }
    </style>
  </defs>
  <g id="_レイヤー_1-2" data-name="レイヤー 1">
    <g class="cls-2">
      <path class="cls-1" d="M64.82,53.34c0,1.13-.21,2.24-.64,3.32-.42,1.08-1.12,2.1-2.08,3.06-1.59,1.65-3.45,3.09-5.57,4.34-2.13,1.25-4.41,2.28-6.85,3.1-2.44.82-4.99,1.43-7.66,1.83-2.67.4-5.33.6-8,.6-4.42,0-8.68-.85-12.76-2.55-4.08-1.7-7.7-4.05-10.85-7.06-3.15-3.01-5.67-6.61-7.57-10.8-1.9-4.2-2.85-8.79-2.85-13.78s.87-9.21,2.6-13.36c1.73-4.14,4.11-7.75,7.14-10.85,3.03-3.09,6.61-5.53,10.72-7.32,4.11-1.79,8.58-2.68,13.4-2.68,3.23,0,6.29.37,9.19,1.11,2.89.74,5.51,1.62,7.87,2.64,2.35,1.02,4.35,2.1,6,3.23,1.64,1.13,2.83,2.07,3.57,2.81.96,1.02,1.64,2.06,2.04,3.11s.6,2.08.6,3.1c0,1.19-.24,2.33-.72,3.4-.48,1.08-1.13,2.01-1.96,2.81-.82.79-1.76,1.42-2.81,1.87-1.05.46-2.14.68-3.28.68-1.3,0-2.35-.2-3.15-.6-.79-.4-1.79-1.05-2.98-1.96-.51-.4-1.22-.85-2.13-1.36-.91-.51-1.97-1.01-3.19-1.49-1.22-.48-2.59-.88-4.12-1.19-1.53-.31-3.15-.47-4.85-.47-1.99,0-3.96.35-5.91,1.06-1.96.71-3.7,1.77-5.23,3.19-1.53,1.42-2.78,3.15-3.74,5.19-.96,2.04-1.45,4.4-1.45,7.06,0,1.93.38,3.87,1.15,5.83.77,1.96,1.91,3.73,3.45,5.32,1.53,1.59,3.45,2.89,5.74,3.91,2.3,1.02,4.95,1.53,7.95,1.53,1.64,0,3.2-.14,4.68-.43,1.47-.28,2.83-.67,4.08-1.15,1.25-.48,2.32-.99,3.23-1.53.91-.54,1.59-1.06,2.04-1.57.85-.96,1.8-1.64,2.85-2.04,1.05-.4,2.14-.6,3.27-.6,2.15,0,3.83.46,5.02,1.36,1.19.91,2.07,1.9,2.64,2.98.62,1.31.99,2.75,1.11,4.34Z"/>
      <path class="cls-1" d="M118.86,66.78c-1.64,1.59-3.66,2.38-6.04,2.38h-.43c-2.44,0-4.46-.81-6.08-2.42-1.62-1.62-2.42-3.64-2.42-6.08v-19.56c0-1.02-.41-1.9-1.23-2.64-.82-.74-2.37-1.11-4.64-1.11-.74,0-1.46.14-2.17.42-.71.29-1.33.64-1.87,1.06-.54.42-.98.89-1.32,1.4-.34.51-.51,1.02-.51,1.53v18.88c0,1.19-.23,2.31-.68,3.36-.46,1.05-1.08,1.96-1.87,2.72-.79.77-1.7,1.36-2.72,1.79-1.02.43-2.1.64-3.23.64h-.51c-1.19,0-2.3-.21-3.32-.64-1.02-.43-1.91-1.02-2.68-1.79s-1.38-1.67-1.83-2.72c-.46-1.05-.68-2.17-.68-3.36V8.42c0-1.19.23-2.3.68-3.32.45-1.02,1.06-1.91,1.83-2.68s1.66-1.36,2.68-1.79c1.02-.42,2.13-.64,3.32-.64h.34c1.19,0,2.31.23,3.36.68,1.05.46,1.96,1.06,2.72,1.83.77.77,1.36,1.66,1.79,2.68.42,1.02.64,2.1.64,3.23v13.36c.91-.4,1.74-.79,2.51-1.19.77-.4,1.97-.59,3.62-.59,4.2,0,7.77.54,10.72,1.62,2.95,1.08,5.34,2.57,7.19,4.47s3.19,4.14,4.04,6.72c.85,2.58,1.28,5.35,1.28,8.29v19.56c0,2.5-.82,4.54-2.47,6.12Z"/>
      <path class="cls-1" d="M179.14,63.88c-.45,1.02-1.06,1.93-1.83,2.72-.77.79-1.66,1.42-2.68,1.87-1.02.45-2.13.68-3.32.68h-.34c-1.36,0-2.62-.31-3.79-.94-1.16-.62-2.14-1.42-2.94-2.38-2.1,1.02-4.42,1.9-6.97,2.64-2.55.74-5.25,1.11-8.08,1.11s-5.23-.46-7.53-1.37-4.28-2.13-5.96-3.67c-1.67-1.54-2.96-3.28-3.87-5.25-.91-1.96-1.36-4.02-1.36-6.18,0-3.75.78-6.65,2.34-8.7,1.56-2.05,3.52-3.55,5.87-4.52,2.35-.97,4.92-1.54,7.7-1.71,2.78-.17,5.42-.26,7.91-.26h8.76c0-.39-.04-.8-.13-1.25-.08-.44-.35-.85-.81-1.21-.45-.36-1.16-.65-2.13-.87-.97-.22-2.3-.33-4-.33-1.42,0-2.74.18-3.96.54-1.22.36-2.38.75-3.49,1.16-1.11.41-2.18.8-3.23,1.16-1.05.36-2.11.54-3.19.54-1.19,0-2.31-.11-3.36-.34-1.05-.23-1.99-.62-2.81-1.19-.82-.56-1.48-1.28-1.96-2.16-.48-.88-.72-1.96-.72-3.26,0-1.47.41-2.78,1.23-3.94.82-1.16,1.9-2.17,3.23-3.05,1.33-.88,2.83-1.61,4.51-2.2,1.67-.59,3.36-1.07,5.06-1.44,1.7-.37,3.3-.63,4.81-.8,1.5-.17,2.79-.25,3.87-.25,3.52,0,6.73.4,9.65,1.19,2.92.79,5.43,2.11,7.53,3.96,2.1,1.84,3.73,4.25,4.89,7.23,1.16,2.98,1.74,6.68,1.74,11.1v18.12c0,1.14-.23,2.21-.68,3.23ZM151.66,50.61c-1.08,0-1.93.07-2.55.21-.62.14-1.11.34-1.45.6-.34.25-.57.52-.68.81-.11.28-.17.59-.17.94s.06.67.17.98c.11.31.34.59.68.85.34.26.82.47,1.45.64.62.17,1.47.25,2.55.25s2.24-.13,3.49-.38c1.25-.25,2.42-.61,3.53-1.06,1.11-.45,2.13-1.02,3.06-1.7.94-.68,1.66-1.42,2.17-2.21l-12.25.08Z"/>
      <path class="cls-1" d="M225.08,33.18c-.88,1.14-1.86,1.99-2.93,2.55-1.25.62-2.64.99-4.17,1.11-1.36,0-2.55.14-3.57.43-1.02.29-1.87.64-2.55,1.06s-1.21.88-1.57,1.36c-.37.48-.55.92-.55,1.32v19.65c0,1.19-.23,2.31-.68,3.36-.45,1.05-1.08,1.96-1.87,2.72-.79.77-1.7,1.36-2.72,1.79-1.02.43-2.07.64-3.15.64h-.51c-2.38,0-4.38-.81-6-2.42s-2.42-3.64-2.42-6.08V28.07c0-2.38.81-4.38,2.42-6,1.62-1.62,3.62-2.42,6-2.42h.42c1.36,0,2.54.35,3.53,1.06.99.71,1.66,1.46,2,2.25.4-.4.92-.81,1.57-1.23.65-.42,1.38-.82,2.17-1.19.79-.37,1.64-.67,2.55-.89.91-.23,1.84-.34,2.81-.34h1.32c.54,0,.95.03,1.23.09,2.27.17,4.17,1.04,5.7,2.59,1.53,1.56,2.3,3.5,2.3,5.83v.51c0,2.1-.44,3.71-1.32,4.85Z"/>
      <path class="cls-1" d="M279.08,63.88c-.46,1.02-1.06,1.93-1.83,2.72-.77.79-1.66,1.42-2.68,1.87-1.02.45-2.13.68-3.32.68h-.34c-1.36,0-2.62-.31-3.79-.94-1.16-.62-2.14-1.42-2.94-2.38-2.1,1.02-4.42,1.9-6.97,2.64-2.55.74-5.25,1.11-8.08,1.11s-5.23-.46-7.53-1.37c-2.3-.91-4.28-2.13-5.95-3.67-1.67-1.54-2.96-3.28-3.87-5.25-.91-1.96-1.36-4.02-1.36-6.18,0-3.75.78-6.65,2.34-8.7,1.56-2.05,3.52-3.55,5.87-4.52s4.92-1.54,7.7-1.71c2.78-.17,5.41-.26,7.91-.26h8.76c0-.39-.04-.8-.13-1.25-.08-.44-.36-.85-.81-1.21-.45-.36-1.16-.65-2.13-.87-.97-.22-2.3-.33-4-.33-1.42,0-2.74.18-3.96.54-1.22.36-2.38.75-3.49,1.16-1.11.41-2.18.8-3.23,1.16-1.05.36-2.11.54-3.19.54-1.19,0-2.31-.11-3.36-.34-1.05-.23-1.99-.62-2.81-1.19-.82-.56-1.48-1.28-1.96-2.16-.48-.88-.72-1.96-.72-3.26,0-1.47.41-2.78,1.23-3.94.82-1.16,1.9-2.17,3.23-3.05,1.33-.88,2.84-1.61,4.51-2.2,1.67-.59,3.36-1.07,5.06-1.44,1.7-.37,3.3-.63,4.81-.8,1.5-.17,2.79-.25,3.87-.25,3.52,0,6.73.4,9.66,1.19,2.92.79,5.43,2.11,7.53,3.96,2.1,1.84,3.73,4.25,4.89,7.23,1.16,2.98,1.74,6.68,1.74,11.1v18.12c0,1.14-.23,2.21-.68,3.23ZM251.61,50.61c-1.08,0-1.93.07-2.55.21-.62.14-1.11.34-1.45.6-.34.25-.57.52-.68.81-.12.28-.17.59-.17.94s.06.67.17.98c.11.31.34.59.68.85s.82.47,1.45.64c.62.17,1.47.25,2.55.25s2.24-.13,3.49-.38c1.25-.25,2.42-.61,3.53-1.06,1.11-.45,2.13-1.02,3.06-1.7.94-.68,1.66-1.42,2.17-2.21l-12.25.08Z"/>
      <path class="cls-1" d="M340.17,56.57c0,1.53-.45,2.93-1.36,4.21-.91,1.28-2.08,2.4-3.53,3.36-1.45.96-3.08,1.79-4.89,2.47-1.82.68-3.62,1.25-5.4,1.7-1.79.45-3.47.78-5.06.98-1.59.2-2.89.3-3.91.3-3.69,0-7.16-.54-10.42-1.62-3.26-1.08-6.1-2.68-8.51-4.81-2.41-2.13-4.31-4.76-5.7-7.91-1.39-3.15-2.08-6.76-2.08-10.85s.71-7.88,2.13-11.06c1.42-3.17,3.35-5.81,5.79-7.91,2.44-2.1,5.27-3.67,8.51-4.72,3.23-1.05,6.66-1.57,10.29-1.57,1.19,0,2.59.13,4.21.38,1.62.26,3.3.64,5.06,1.15,1.76.51,3.47,1.13,5.15,1.87,1.67.74,3.19,1.6,4.55,2.6,1.36.99,2.45,2.1,3.27,3.32.82,1.22,1.23,2.54,1.23,3.96,0,2.55-.85,4.59-2.55,6.12-1.7,1.53-3.77,2.3-6.21,2.3-.85,0-1.62-.1-2.3-.3-.68-.2-1.33-.47-1.96-.81-1.25-.68-2.75-1.45-4.51-2.3-1.76-.85-3.66-1.28-5.7-1.28-1.7,0-3.15.25-4.34.77-1.19.51-2.14,1.18-2.85,2-.71.82-1.23,1.73-1.57,2.72-.34.99-.51,1.97-.51,2.94,0,.91.16,1.83.47,2.76.31.94.84,1.8,1.57,2.59.74.79,1.67,1.45,2.81,1.96,1.13.51,2.55.77,4.25.77,2.1,0,4.15-.35,6.17-1.06s3.62-1.43,4.81-2.17c.51-.28,1.18-.58,2-.89.82-.31,1.6-.47,2.34-.47,1.19,0,2.31.21,3.36.64,1.05.43,1.98,1.01,2.81,1.74.82.74,1.46,1.63,1.91,2.68.45,1.05.68,2.2.68,3.45Z"/>
      <path class="cls-1" d="M387.83,33.47c-.42.99-1.02,1.86-1.79,2.59-.77.74-1.66,1.33-2.68,1.79-1.02.46-2.1.68-3.23.68h-5.7v5.02c0,1.99.21,3.59.64,4.81.43,1.22.89,2.2,1.4,2.93.62.85,1.33,1.5,2.13,1.96l-.43-.17c1.47.85,2.62,1.9,3.45,3.15.82,1.25,1.23,2.75,1.23,4.51,0,1.42-.28,2.65-.85,3.7-.57,1.05-1.29,1.93-2.17,2.64-.88.71-1.89,1.23-3.02,1.57-1.13.34-2.24.51-3.32.51-1.36,0-3.01-.53-4.93-1.57s-3.76-2.64-5.49-4.76c-1.73-2.13-3.22-4.82-4.47-8.08-1.25-3.26-1.87-7.1-1.87-11.53v-4.68h-3.91c-1.13,0-2.2-.22-3.19-.68-.99-.45-1.89-1.05-2.68-1.79-.79-.74-1.42-1.6-1.87-2.59-.45-.99-.68-2.05-.68-3.19v-.51c0-1.19.23-2.28.68-3.27.45-.99,1.08-1.86,1.87-2.59.79-.74,1.69-1.32,2.68-1.74.99-.42,2.05-.64,3.19-.64h3.91v-8.68c0-1.25.24-2.39.72-3.45.48-1.05,1.12-1.96,1.91-2.72.79-.77,1.7-1.35,2.72-1.74,1.02-.4,2.07-.6,3.15-.6h.77c1.08,0,2.11.2,3.1.6.99.4,1.88.98,2.68,1.74.79.77,1.43,1.67,1.91,2.72.48,1.05.72,2.2.72,3.45v8.68h5.7c2.32,0,4.29.78,5.91,2.34,1.62,1.56,2.42,3.53,2.42,5.91v.51c0,1.13-.21,2.2-.64,3.19Z"/>
      <path class="cls-1" d="M443.91,57.76c0,1.53-.46,2.89-1.36,4.08-.91,1.19-2.08,2.23-3.53,3.11-1.45.88-3.06,1.62-4.85,2.21-1.79.6-3.57,1.08-5.36,1.45-1.79.37-3.47.64-5.06.81-1.59.17-2.89.26-3.91.26-3.69,0-7.14-.54-10.38-1.62s-6.04-2.67-8.42-4.76c-2.38-2.1-4.27-4.72-5.66-7.87-1.39-3.15-2.08-6.76-2.08-10.85s.69-7.71,2.08-10.89,3.28-5.83,5.66-7.95,5.19-3.74,8.42-4.85,6.69-1.66,10.38-1.66,6.92.47,9.87,1.4c2.95.94,5.47,2.3,7.57,4.08,2.1,1.79,3.73,3.98,4.89,6.59,1.16,2.61,1.74,5.62,1.74,9.02,0,1.87-.31,3.39-.94,4.55-.62,1.16-1.49,2.06-2.59,2.68-1.11.62-2.41,1.05-3.91,1.28-1.5.23-3.11.34-4.81.34h-20.42c.34.62.69,1.25,1.06,1.87.37.62.86,1.18,1.49,1.66.62.48,1.42.88,2.38,1.19.96.31,2.21.47,3.74.47,2.15,0,4.31-.35,6.46-1.06,2.15-.71,3.88-1.43,5.19-2.17.51-.28,1.16-.57,1.96-.85.79-.28,1.5-.43,2.13-.43,2.27,0,4.21.72,5.83,2.17,1.62,1.45,2.42,3.36,2.42,5.74ZM427.2,35.34c-.6-.54-1.29-.98-2.08-1.32-.79-.34-1.65-.61-2.55-.81-.91-.2-1.65-.3-2.21-.3-.79,0-1.67.08-2.64.25-.96.17-1.89.42-2.76.77-.88.34-1.67.78-2.38,1.32-.71.54-1.23,1.18-1.57,1.91h17.1c0-.68-.3-1.29-.89-1.83Z"/>
      <path class="cls-1" d="M488.68,33.18c-.88,1.14-1.86,1.99-2.93,2.55-1.25.62-2.64.99-4.17,1.11-1.36,0-2.55.14-3.57.43-1.02.29-1.87.64-2.55,1.06s-1.21.88-1.57,1.36c-.37.48-.55.92-.55,1.32v19.65c0,1.19-.23,2.31-.68,3.36-.45,1.05-1.08,1.96-1.87,2.72-.79.77-1.7,1.36-2.72,1.79-1.02.43-2.07.64-3.15.64h-.51c-2.38,0-4.38-.81-6-2.42s-2.42-3.64-2.42-6.08V28.07c0-2.38.81-4.38,2.42-6,1.62-1.62,3.62-2.42,6-2.42h.42c1.36,0,2.54.35,3.53,1.06.99.71,1.66,1.46,2,2.25.4-.4.92-.81,1.57-1.23.65-.42,1.38-.82,2.17-1.19.79-.37,1.64-.67,2.55-.89.91-.23,1.84-.34,2.81-.34h1.32c.54,0,.95.03,1.23.09,2.27.17,4.17,1.04,5.7,2.59,1.53,1.56,2.3,3.5,2.3,5.83v.51c0,2.1-.44,3.71-1.32,4.85Z"/>
    </g>
  </g>
</svg>