<?xml version="1.0" encoding="UTF-8"?>
<svg id="_レイヤー_2" data-name="レイヤー 2" xmlns="http://www.w3.org/2000/svg" viewBox="0 0 327.2 70.86">
  <defs>
    <style>
      .cls-1 {
        fill: #5a5655;
        stroke-width: 0px;
      }

      .cls-2 {
        isolation: isolate;
      }
    </style>
  </defs>
  <g id="_レイヤー_1-2" data-name="レイヤー 1">
    <g class="cls-2">
      <path class="cls-1" d="M57.93,24.84c0,3.35-.48,6.35-1.45,9.02-.96,2.67-2.37,4.93-4.21,6.8-1.84,1.87-4.05,3.3-6.63,4.3-2.58.99-5.49,1.49-8.72,1.49h-19.22v15.4c0,1.13-.21,2.21-.64,3.23s-1.02,1.93-1.79,2.72c-.77.79-1.67,1.42-2.72,1.87-1.05.45-2.17.68-3.36.68h-.68c-1.13,0-2.21-.23-3.23-.68-1.02-.45-1.91-1.08-2.68-1.87-.77-.79-1.39-1.7-1.87-2.72-.48-1.02-.72-2.1-.72-3.23V12.08c0-1.19.25-2.34.77-3.45.51-1.11,1.18-2.05,2-2.85.82-.79,1.77-1.43,2.85-1.91,1.08-.48,2.18-.72,3.32-.72h27.99c3.23,0,6.14.51,8.72,1.53,2.58,1.02,4.79,2.47,6.63,4.34,1.84,1.87,3.25,4.14,4.21,6.81.96,2.67,1.45,5.67,1.45,9.02ZM40.32,24.84c0-.45-.04-.92-.13-1.4-.08-.48-.25-.91-.51-1.28-.25-.37-.59-.68-1.02-.94-.42-.25-1.01-.38-1.74-.38h-19.22v8h19.22c1.47,0,2.41-.42,2.81-1.28.4-.85.6-1.76.6-2.72Z"/>
      <path class="cls-1" d="M98.31,34.37c-.88,1.14-1.86,1.99-2.94,2.55-1.25.62-2.64.99-4.17,1.11-1.36,0-2.55.14-3.57.42-1.02.29-1.87.64-2.55,1.06-.68.43-1.21.88-1.57,1.36-.37.48-.55.92-.55,1.32v19.65c0,1.19-.23,2.31-.68,3.36-.46,1.05-1.08,1.96-1.87,2.72-.79.77-1.7,1.36-2.72,1.79-1.02.43-2.07.64-3.15.64h-.51c-2.38,0-4.38-.81-6-2.42-1.62-1.62-2.42-3.64-2.42-6.08V29.26c0-2.38.81-4.38,2.42-6,1.62-1.62,3.62-2.42,6-2.42h.43c1.36,0,2.54.36,3.53,1.06.99.71,1.66,1.46,2,2.25.4-.4.92-.81,1.57-1.23.65-.42,1.37-.82,2.17-1.19.79-.37,1.64-.67,2.55-.89.91-.23,1.84-.34,2.81-.34h1.32c.54,0,.95.03,1.23.08,2.27.17,4.17,1.04,5.7,2.59s2.3,3.5,2.3,5.83v.51c0,2.1-.44,3.71-1.32,4.85Z"/>
      <path class="cls-1" d="M157.73,45.59c0,3.35-.55,6.54-1.66,9.57-1.11,3.03-2.77,5.7-4.98,8-2.21,2.3-5.01,4.14-8.38,5.53-3.38,1.39-7.36,2.08-11.95,2.08s-8.58-.7-11.95-2.08-6.17-3.23-8.38-5.53c-2.21-2.3-3.87-4.96-4.98-8-1.11-3.03-1.66-6.22-1.66-9.57s.54-6.46,1.62-9.53,2.74-5.75,4.98-8.08c2.24-2.32,5.05-4.18,8.42-5.57s7.36-2.08,11.95-2.08,8.59.7,12,2.08c3.4,1.39,6.21,3.25,8.42,5.57,2.21,2.33,3.86,5.01,4.93,8.04,1.08,3.03,1.62,6.22,1.62,9.57ZM140.03,45.59c0-2.21-.75-4.14-2.25-5.78-1.5-1.64-3.84-2.47-7.02-2.47s-5.52.82-7.02,2.47c-1.5,1.65-2.25,3.57-2.25,5.78s.75,4.06,2.25,5.7c1.5,1.65,3.84,2.47,7.02,2.47s5.51-.82,7.02-2.47c1.5-1.64,2.25-3.54,2.25-5.7Z"/>
      <path class="cls-1" d="M208.8,9.53c0,1.25-.24,2.34-.72,3.27-.48.94-1.12,1.74-1.91,2.42-.79.68-1.72,1.19-2.76,1.53-1.05.34-2.14.54-3.28.6-3.01.11-5.29.57-6.85,1.36-1.56.79-2.34,1.93-2.34,3.4h3.57c2.38,0,4.39.82,6.04,2.47,1.64,1.65,2.47,3.66,2.47,6.04v.43c0,1.13-.23,2.18-.68,3.15-.45.96-1.06,1.82-1.83,2.55-.77.74-1.66,1.32-2.68,1.74-1.02.42-2.13.64-3.32.64h-4.17v22.71c0,1.13-.23,2.21-.68,3.23-.46,1.02-1.06,1.93-1.83,2.72-.77.79-1.66,1.42-2.68,1.87-1.02.45-2.13.68-3.32.68h-.43c-1.13,0-2.21-.21-3.23-.64-1.02-.42-1.91-1.02-2.68-1.79s-1.38-1.67-1.83-2.72c-.45-1.05-.68-2.17-.68-3.36v-22.71h-2.21c-1.14,0-2.21-.21-3.23-.64-1.02-.43-1.93-1.01-2.72-1.74-.79-.74-1.42-1.59-1.87-2.55-.46-.96-.68-2.01-.68-3.15v-.43c0-1.19.23-2.3.68-3.32.45-1.02,1.08-1.91,1.87-2.68.79-.77,1.7-1.37,2.72-1.83,1.02-.45,2.1-.68,3.23-.68h2.47c0-3.74.77-6.96,2.3-9.66,1.53-2.69,3.47-4.89,5.83-6.59s4.93-2.96,7.74-3.79c2.81-.82,5.49-1.23,8.04-1.23h2.89c1.81,0,3.29.25,4.42.77,1.13.51,2.03,1.16,2.68,1.96.65.79,1.09,1.72,1.32,2.76.23,1.05.34,2.11.34,3.19Z"/>
      <path class="cls-1" d="M233.78,9.61c0,1.36-.26,2.64-.77,3.83-.51,1.19-1.22,2.21-2.13,3.06-.91.85-1.94,1.53-3.11,2.04-1.16.51-2.37.77-3.62.77-1.36,0-2.62-.27-3.79-.81s-2.18-1.25-3.06-2.13c-.88-.88-1.56-1.9-2.04-3.06-.48-1.16-.72-2.4-.72-3.7s.24-2.45.72-3.62c.48-1.16,1.16-2.2,2.04-3.11.88-.91,1.9-1.62,3.06-2.13,1.16-.51,2.42-.77,3.79-.77s2.64.25,3.83.77c1.19.51,2.21,1.19,3.06,2.04.85.85,1.52,1.86,2,3.02.48,1.16.72,2.42.72,3.79ZM232.34,65.08c-.45,1.02-1.06,1.93-1.83,2.72-.77.79-1.66,1.42-2.68,1.87-1.02.45-2.13.68-3.32.68h-.6c-1.19,0-2.3-.21-3.32-.64-1.02-.42-1.91-1.02-2.68-1.79s-1.38-1.67-1.83-2.72c-.46-1.05-.68-2.17-.68-3.36v-31.73c0-1.19.23-2.3.68-3.32.45-1.02,1.06-1.91,1.83-2.68s1.66-1.36,2.68-1.79c1.02-.42,2.13-.64,3.32-.64h.6c2.38,0,4.39.81,6.04,2.42,1.64,1.62,2.47,3.62,2.47,6v31.73c0,1.13-.23,2.21-.68,3.23Z"/>
      <path class="cls-1" d="M272.13,61.93c0,1.42-.29,2.65-.85,3.7-.57,1.05-1.29,1.93-2.17,2.64-.88.71-1.89,1.23-3.02,1.57-1.13.34-2.24.51-3.32.51-1.36,0-2.99-.53-4.89-1.57-1.9-1.05-3.73-2.64-5.49-4.76-1.76-2.13-3.25-4.82-4.47-8.08-1.22-3.26-1.83-7.1-1.83-11.53V9.61c0-1.25.24-2.4.72-3.45.48-1.05,1.12-1.94,1.91-2.68.79-.74,1.69-1.3,2.68-1.7.99-.4,2.03-.6,3.1-.6h.77c1.08,0,2.13.2,3.15.6,1.02.4,1.93.96,2.72,1.7.79.74,1.43,1.63,1.91,2.68.48,1.05.72,2.2.72,3.45v35.13c0,1.99.21,3.6.64,4.85.43,1.25.89,2.24,1.4,2.98.62.85,1.33,1.5,2.13,1.96,1.19.74,2.18,1.72,2.98,2.93.79,1.22,1.19,2.71,1.19,4.47Z"/>
      <path class="cls-1" d="M327.2,58.95c0,1.53-.45,2.89-1.36,4.08-.91,1.19-2.08,2.23-3.53,3.11-1.45.88-3.06,1.62-4.85,2.21-1.79.59-3.57,1.08-5.36,1.45s-3.47.64-5.06.81c-1.59.17-2.89.25-3.91.25-3.69,0-7.15-.54-10.38-1.62-3.23-1.08-6.04-2.67-8.42-4.76-2.38-2.1-4.27-4.72-5.66-7.87-1.39-3.15-2.08-6.76-2.08-10.85s.69-7.71,2.08-10.89c1.39-3.18,3.28-5.83,5.66-7.95,2.38-2.13,5.19-3.74,8.42-4.85,3.23-1.11,6.69-1.66,10.38-1.66s6.92.47,9.87,1.4c2.95.94,5.47,2.3,7.57,4.08,2.1,1.79,3.73,3.98,4.89,6.59,1.16,2.61,1.74,5.61,1.74,9.02,0,1.87-.31,3.39-.94,4.55-.62,1.16-1.49,2.06-2.59,2.68-1.11.62-2.41,1.05-3.91,1.28-1.5.23-3.1.34-4.81.34h-20.42c.34.62.69,1.25,1.06,1.87.37.62.86,1.18,1.49,1.66.62.48,1.42.88,2.38,1.19.96.31,2.21.47,3.74.47,2.15,0,4.31-.35,6.46-1.06,2.15-.71,3.88-1.43,5.19-2.17.51-.28,1.16-.57,1.96-.85.79-.28,1.5-.43,2.13-.43,2.27,0,4.21.72,5.83,2.17,1.62,1.45,2.42,3.36,2.42,5.74ZM310.49,36.54c-.6-.54-1.29-.98-2.08-1.32-.79-.34-1.65-.61-2.55-.81-.91-.2-1.64-.3-2.21-.3-.79,0-1.67.08-2.64.25-.96.17-1.89.43-2.77.77-.88.34-1.67.78-2.38,1.32-.71.54-1.23,1.18-1.57,1.91h17.1c0-.68-.3-1.29-.89-1.83Z"/>
    </g>
  </g>
</svg>