<svg xmlns="http://www.w3.org/2000/svg" width="340.068" height="84.048" viewBox="0 0 340.068 84.048"><path d="M102.612-69.258a6.706,6.706,0,0,1-.2,1.632L102-65.994,84.252-7.344a11.622,11.622,0,0,1-3.774,5.61A9.6,9.6,0,0,1,74.256.408H71.6a10.212,10.212,0,0,1-6.273-2.193A11.259,11.259,0,0,1,61.3-7.548L54.264-31.11,47.94-7.548a10.611,10.611,0,0,1-3.978,5.763A10.426,10.426,0,0,1,37.638.408H34.476A9.809,9.809,0,0,1,28.2-1.734a11.481,11.481,0,0,1-3.825-5.61Q20.094-21.522,15.453-36.72T6.63-66.1a11.66,11.66,0,0,1-.51-2.958,9.88,9.88,0,0,1,.867-4.08,11.334,11.334,0,0,1,2.346-3.417A11.334,11.334,0,0,1,12.75-78.9a9.88,9.88,0,0,1,4.08-.867,9.383,9.383,0,0,1,4.845,1.173,10.99,10.99,0,0,1,3.111,2.6,14.064,14.064,0,0,1,2.142,3.672L35.7-43.962q1.836-6.936,3.672-14.127t3.672-13.923a10.26,10.26,0,0,1,3.774-5.559,10.284,10.284,0,0,1,6.426-2.193H55.08a10.785,10.785,0,0,1,6.477,2.193,10.008,10.008,0,0,1,3.927,5.559l7.65,28.458q2.04-7.038,4.335-14.382T81.8-72.216a15.91,15.91,0,0,1,2.142-3.774,11.212,11.212,0,0,1,3.06-2.6,9.322,9.322,0,0,1,4.9-1.173,10.159,10.159,0,0,1,3.978.816,10.608,10.608,0,0,1,3.417,2.3,12.4,12.4,0,0,1,2.4,3.366A9.09,9.09,0,0,1,102.612-69.258ZM171.36-28.866a33.245,33.245,0,0,1-1.989,11.475A26.987,26.987,0,0,1,163.4-7.8a29.1,29.1,0,0,1-10.047,6.63,37.5,37.5,0,0,1-14.331,2.5,37.5,37.5,0,0,1-14.331-2.5A29.1,29.1,0,0,1,114.648-7.8a26.987,26.987,0,0,1-5.967-9.588,33.245,33.245,0,0,1-1.989-11.475A34.17,34.17,0,0,1,108.63-40.29a26.463,26.463,0,0,1,5.967-9.69,29.269,29.269,0,0,1,10.1-6.681,37.5,37.5,0,0,1,14.331-2.5,37.9,37.9,0,0,1,14.382,2.5,28.64,28.64,0,0,1,10.1,6.681,26.886,26.886,0,0,1,5.916,9.639A34.032,34.032,0,0,1,171.36-28.866Zm-21.216,0a9.952,9.952,0,0,0-2.7-6.936q-2.7-2.958-8.415-2.958T130.611-35.8a9.952,9.952,0,0,0-2.7,6.936,9.827,9.827,0,0,0,2.7,6.834q2.7,2.958,8.415,2.958t8.415-2.958A9.827,9.827,0,0,0,150.144-28.866ZM222.36-48.144a9.317,9.317,0,0,1-1.581,5.814,10.937,10.937,0,0,1-3.519,3.06,13.251,13.251,0,0,1-5,1.326,16.088,16.088,0,0,0-4.284.51,11.673,11.673,0,0,0-3.06,1.275,7.027,7.027,0,0,0-1.887,1.632,2.7,2.7,0,0,0-.663,1.581V-9.384a10.041,10.041,0,0,1-.816,4.029,9.988,9.988,0,0,1-2.244,3.264A10.453,10.453,0,0,1,196.044.051a9.724,9.724,0,0,1-3.774.765h-.612a9.768,9.768,0,0,1-7.191-2.907,9.892,9.892,0,0,1-2.907-7.293V-48.45a9.768,9.768,0,0,1,2.907-7.191,9.768,9.768,0,0,1,7.191-2.907h.51a7.091,7.091,0,0,1,4.233,1.275,6.733,6.733,0,0,1,2.4,2.7,11.779,11.779,0,0,1,1.887-1.479,20.762,20.762,0,0,1,2.6-1.428,17.092,17.092,0,0,1,3.06-1.071,13.826,13.826,0,0,1,3.366-.408h1.581a8.069,8.069,0,0,1,1.479.1,10.335,10.335,0,0,1,6.834,3.111,9.575,9.575,0,0,1,2.754,6.987Zm59.874,38.76a9.79,9.79,0,0,1-.918,4.335,10.1,10.1,0,0,1-2.346,3.162A10.652,10.652,0,0,1,275.706.1a10.067,10.067,0,0,1-3.672.714h-.714A9.723,9.723,0,0,1,266.373-.51a9.919,9.919,0,0,1-3.519-3.264L252.348-19.992q-.714.714-1.428,1.326t-1.53,1.428v7.854a9.438,9.438,0,0,1-.816,3.876,11.24,11.24,0,0,1-2.193,3.264A10.14,10.14,0,0,1,243.168,0a9.683,9.683,0,0,1-3.978.816h-.51A9.438,9.438,0,0,1,234.8,0a10.14,10.14,0,0,1-3.213-2.244,12.124,12.124,0,0,1-2.244-3.264,8.968,8.968,0,0,1-.867-3.876V-72.012a9.775,9.775,0,0,1,.867-4.131,10.475,10.475,0,0,1,2.244-3.213A9.591,9.591,0,0,1,234.8-81.4a10.6,10.6,0,0,1,3.876-.714h.51a10.731,10.731,0,0,1,3.825.714,9.482,9.482,0,0,1,3.264,2.04,10.475,10.475,0,0,1,2.244,3.213,9.775,9.775,0,0,1,.867,4.131v26.928L261.12-56a6.656,6.656,0,0,1,2.142-1.173,10.459,10.459,0,0,1,3.06-.357,9.891,9.891,0,0,1,7.293,2.907,9.891,9.891,0,0,1,2.907,7.293,9.607,9.607,0,0,1-.765,3.825,11.134,11.134,0,0,1-2.091,3.213l-5.712,5.814L280.6-14.892a9.291,9.291,0,0,1,1.224,2.7A10.557,10.557,0,0,1,282.234-9.384Zm63.954-9.282a20.014,20.014,0,0,1-1.581,7.905,17.206,17.206,0,0,1-4.947,6.528A25.549,25.549,0,0,1,331.143.255a39.77,39.77,0,0,1-12.291,1.683A69.248,69.248,0,0,1,307.173.918a54.411,54.411,0,0,1-10.761-2.907,25.084,25.084,0,0,1-7.854-4.692,8.463,8.463,0,0,1-3.06-6.375,11.168,11.168,0,0,1,1.326-5.967,9.242,9.242,0,0,1,3.06-3.111,10.511,10.511,0,0,1,4.488-1.326,6.589,6.589,0,0,1,2.448.408,10.545,10.545,0,0,1,1.938,1.02,25.921,25.921,0,0,0,5.865,3.009,33.818,33.818,0,0,0,5.763,1.53,42.365,42.365,0,0,0,5.049.561q2.295.1,3.825.1a36.029,36.029,0,0,0,4.539-.255q1.989-.255,1.989-1.887a1.021,1.021,0,0,0-.612-.867A5.369,5.369,0,0,0,323.7-20.4a10.165,10.165,0,0,0-1.734-.255q-.867-.051-1.275-.051-2.652-.1-5.865-.153t-5.865-.255q-10.4-.714-15.708-5.61a16.311,16.311,0,0,1-5.3-12.546,19.7,19.7,0,0,1,1.53-7.65,16.823,16.823,0,0,1,4.9-6.477,25.948,25.948,0,0,1,8.772-4.539A43.462,43.462,0,0,1,316.3-59.67a37.552,37.552,0,0,1,9.231,1.173,36.847,36.847,0,0,1,8.364,3.162,21.538,21.538,0,0,1,6.069,4.641,8.258,8.258,0,0,1,2.346,5.508,8.463,8.463,0,0,1-.765,3.723,7.158,7.158,0,0,1-2.091,2.6,9.416,9.416,0,0,1-2.958,1.53,10.891,10.891,0,0,1-3.264.51,11.573,11.573,0,0,1-4.284-.765q-1.938-.765-3.927-1.734a31.781,31.781,0,0,0-4.437-1.734,19.6,19.6,0,0,0-5.814-.765,11.207,11.207,0,0,0-4.386.816q-1.938.816-1.938,1.938a1.645,1.645,0,0,0,.612,1.326,3.621,3.621,0,0,0,2.04.612q3.06.2,6.273.306l6.375.2a44.409,44.409,0,0,1,9.231,1.071,20.093,20.093,0,0,1,7.089,3.06,13.6,13.6,0,0,1,4.539,5.508A19.709,19.709,0,0,1,346.188-18.666Z" transform="translate(-6.12 82.11)" fill="#ffdc00"/></svg>