<svg xmlns="http://www.w3.org/2000/svg" width="43.484" height="8.008" viewBox="0 0 43.484 8.008"><path d="M13.58-.574a.681.681,0,0,1-.21.511.7.7,0,0,1-.5.2h-.084a.687.687,0,0,1-.5-.21.687.687,0,0,1-.21-.5V-4.438A3.41,3.41,0,0,0,12.019-5a1.331,1.331,0,0,0-.224-.546,1.273,1.273,0,0,0-.511-.413,2.134,2.134,0,0,0-.91-.161,1.605,1.605,0,0,0-.7.168,2.565,2.565,0,0,0-.637.434,2.492,2.492,0,0,0-.469.581,1.239,1.239,0,0,0-.182.623V-.574a.681.681,0,0,1-.21.511.7.7,0,0,1-.5.2H7.588a.687.687,0,0,1-.5-.21.687.687,0,0,1-.21-.5V-4.55A3.286,3.286,0,0,0,6.825-5.1,1.172,1.172,0,0,0,6.6-5.621,1.253,1.253,0,0,0,6.09-6a2.314,2.314,0,0,0-.91-.147,1.725,1.725,0,0,0-.756.175,2.3,2.3,0,0,0-.637.448,2.286,2.286,0,0,0-.434.595,1.4,1.4,0,0,0-.161.63V-.574a.676.676,0,0,1-.217.5.7.7,0,0,1-.5.21H2.394a.687.687,0,0,1-.5-.21.687.687,0,0,1-.21-.5V-6.832a.681.681,0,0,1,.21-.511.7.7,0,0,1,.5-.2h.084a.687.687,0,0,1,.5.21.687.687,0,0,1,.21.5v.322a3.99,3.99,0,0,1,.861-.812A1.991,1.991,0,0,1,5.194-7.63,5.541,5.541,0,0,1,6.3-7.539a2.946,2.946,0,0,1,.735.245,1.956,1.956,0,0,1,.5.35q.2.2.378.406a2.873,2.873,0,0,1,1.029-.8,3.031,3.031,0,0,1,1.309-.294,4.867,4.867,0,0,1,1.687.245,2.387,2.387,0,0,1,1.015.679,2.381,2.381,0,0,1,.5,1.015,5.609,5.609,0,0,1,.133,1.253Zm10.738-.812a.871.871,0,0,1-.455.735,4.264,4.264,0,0,1-1.078.5,7.929,7.929,0,0,1-1.26.287,7.524,7.524,0,0,1-1,.091,5.258,5.258,0,0,1-1.673-.259A3.956,3.956,0,0,1,17.493-.8a3.562,3.562,0,0,1-.917-1.253A4.187,4.187,0,0,1,16.24-3.78a4.187,4.187,0,0,1,.336-1.729,3.562,3.562,0,0,1,.917-1.253,3.956,3.956,0,0,1,1.358-.763,5.259,5.259,0,0,1,1.673-.259,4.939,4.939,0,0,1,1.554.231,3.492,3.492,0,0,1,1.2.658,2.9,2.9,0,0,1,.77,1.05,3.472,3.472,0,0,1,.273,1.407,1.294,1.294,0,0,1-.448,1.022,1.581,1.581,0,0,1-1.078.392h-5a2.271,2.271,0,0,0,.987,1.365,3.17,3.17,0,0,0,1.757.483,3.779,3.779,0,0,0,.756-.077,5.62,5.62,0,0,0,.721-.2,5.794,5.794,0,0,0,.644-.266q.3-.147.511-.273a.711.711,0,0,1,.378-.112.8.8,0,0,1,.546.2A.655.655,0,0,1,24.318-1.386ZM22.694-4.858a1.305,1.305,0,0,0-.217-.714,1.583,1.583,0,0,0-.518-.476,2.287,2.287,0,0,0-.693-.259,3.584,3.584,0,0,0-.714-.077,3.174,3.174,0,0,0-.952.14,2.761,2.761,0,0,0-.812.406,2.631,2.631,0,0,0-.616.63,2.462,2.462,0,0,0-.364.812h4.578q.21,0,.259-.126A.947.947,0,0,0,22.694-4.858ZM34.958-.574a.681.681,0,0,1-.21.511.7.7,0,0,1-.5.2h-.1a.687.687,0,0,1-.5-.21.687.687,0,0,1-.21-.5V-4.438a1.665,1.665,0,0,0-.1-.56,1.556,1.556,0,0,0-.343-.546,1.764,1.764,0,0,0-.644-.413,2.749,2.749,0,0,0-1.008-.161,1.879,1.879,0,0,0-.77.168,2.518,2.518,0,0,0-.672.434,2.355,2.355,0,0,0-.476.588,1.276,1.276,0,0,0-.182.63V-.574a.676.676,0,0,1-.217.5.7.7,0,0,1-.5.21h-.112a.687.687,0,0,1-.5-.21.687.687,0,0,1-.21-.5V-6.832a.681.681,0,0,1,.21-.511.7.7,0,0,1,.5-.2h.084a.687.687,0,0,1,.5.21.687.687,0,0,1,.21.5v.322a3.4,3.4,0,0,1,.931-.812,2.348,2.348,0,0,1,1.211-.308,4.979,4.979,0,0,1,1.666.245,2.966,2.966,0,0,1,1.12.679,2.586,2.586,0,0,1,.63,1.015,3.9,3.9,0,0,1,.2,1.253Zm10.206,0a.681.681,0,0,1-.21.511.7.7,0,0,1-.5.2h-.084a.687.687,0,0,1-.5-.21.687.687,0,0,1-.21-.5V-.882a3.513,3.513,0,0,1-.931.8A2.348,2.348,0,0,1,41.51.224a4.979,4.979,0,0,1-1.666-.245A2.966,2.966,0,0,1,38.724-.7a2.586,2.586,0,0,1-.63-1.015,3.9,3.9,0,0,1-.2-1.253V-6.832a.681.681,0,0,1,.21-.511.7.7,0,0,1,.5-.2H38.7a.687.687,0,0,1,.5.21.687.687,0,0,1,.21.5v3.864a2.429,2.429,0,0,0,.1.763,1.116,1.116,0,0,0,.35.518,1.592,1.592,0,0,0,.651.3,4.38,4.38,0,0,0,1.008.1,2.163,2.163,0,0,0,.777-.147,2.583,2.583,0,0,0,.686-.385,2.02,2.02,0,0,0,.483-.539,1.166,1.166,0,0,0,.182-.609V-6.832a.676.676,0,0,1,.217-.5.7.7,0,0,1,.5-.21h.084a.687.687,0,0,1,.5.21.687.687,0,0,1,.21.5Z" transform="translate(-1.68 7.784)" fill="#fff"/></svg>