<svg xmlns="http://www.w3.org/2000/svg" width="2090.728" height="1292.347" viewBox="0 0 2090.728 1292.347"><g transform="translate(71.844 102.058)"><g transform="translate(1581.22 -102.058) rotate(22)"><path d="M22.933,0V29.345H0V59.552H47.715V29.345H70.279V87.109H48.085v30.145H95.061V87.109h23.3V58.443H141.3v-29.1H118.364V0Z" fill="#ffeec0"/><rect width="46.975" height="29.221" transform="translate(48.086 145.366)" fill="#ffeec0"/><path d="M197.878,0V29.345H174.946V59.552h47.715V29.345h22.563V87.109H223.031v30.145h46.976V87.109h23.3V58.443h22.933v-29.1H293.309V0Z" transform="translate(-9.576 0)" fill="#daf0eb"/><rect width="46.976" height="29.221" transform="translate(213.454 145.366)" fill="#daf0eb"/><path d="M372.824,0V29.345H349.892V59.552h47.715V29.345h22.563V87.109H397.976v30.145h46.976V87.109h23.3V58.443h22.933v-29.1H468.255V0Z" transform="translate(-19.152 0)" fill="#ffeec0"/><rect width="46.976" height="29.221" transform="translate(378.824 145.366)" fill="#ffeec0"/></g><g transform="translate(-20 -10)"><path d="M143.332,0V20.476H122.856V40.952H102.38V20.476H81.9V0H40.952V20.476H20.476V40.952H0V102.38H20.476v20.475H40.952v20.477H61.428v20.476H81.9v20.476H102.38V204.76h20.476V184.284h20.476V163.808h20.476V143.332h20.476V122.855H204.76V102.38h20.476V40.952H204.76V20.476H184.284V0Z" transform="translate(743.69 11.489) rotate(-11)" fill="#ffeec0"/><path d="M143.332,0V20.476H122.856V40.952H102.38V20.476H81.9V0H40.952V20.476H20.476V40.952H0V102.38H20.476v20.475H40.952v20.477H61.428v20.476H81.9v20.476H102.38V204.76h20.476V184.284h20.476V163.808h20.476V143.332h20.476V122.855H204.76V102.38h20.476V40.952H204.76V20.476H184.284V0Z" transform="translate(897.662 91.699) rotate(-11)" fill="#daf0eb"/></g><g transform="translate(13.512 164.874)"><path d="M133.739,48.565c-3.456-6.386-23.392-11.629-42.427-11.885C85.181,18.661,74.033,1.3,66.893,0,59.753,1.3,48.6,18.661,42.478,36.68,23.443,36.936,3.5,42.161.051,48.565c-.968,7.2,12.1,23.154,27.339,34.558-5.64,18.178-6.818,38.767-1.818,44.02,6.542,3.141,25.76-4.34,41.311-15.323,15.551,10.983,34.769,18.464,41.311,15.323,5.011-5.253,3.833-25.843-1.807-44.024,15.25-11.4,28.307-27.36,27.339-34.558" transform="matrix(0.866, 0.5, -0.5, 0.866, 1.671, 486.276)" fill="#daf0eb"/><path d="M544.4,197.69c-14.068-26-95.222-47.337-172.706-48.378C346.743,75.964,301.361,5.3,272.3,0c-29.063,5.3-74.445,75.964-99.386,149.312C95.428,150.353,14.231,171.623.206,197.69c-3.939,29.288,49.236,94.252,111.287,140.674-22.958,73.995-27.755,157.809-7.4,179.191,26.63,12.787,104.859-17.669,168.162-62.375,63.3,44.706,141.532,75.162,168.162,62.375,20.4-21.383,15.6-105.2-7.357-179.205,62.08-46.423,115.226-111.372,111.287-140.674" transform="translate(-85.356 574.656) rotate(-30)" fill="#ffeec0"/></g></g></svg>