<?xml version="1.0" encoding="UTF-8"?>
<svg id="_レイヤー_2" data-name="レイヤー 2" xmlns="http://www.w3.org/2000/svg" viewBox="0 0 74 74">
  <defs>
    <style>
      .cls-1 {
        fill: #ffdc00;
      }

      .cls-1, .cls-2, .cls-3 {
        stroke-width: 0px;
      }

      .cls-2 {
        fill: #5a5655;
      }

      .cls-3 {
        fill: #fff;
      }
    </style>
  </defs>
  <g id="_レイヤー_1-2" data-name="レイヤー 1">
    <g>
      <path id="_パス_5080" data-name="パス 5080" class="cls-1" d="M37,74C16.57,74,0,57.43,0,37S16.57,0,37,0s37,16.57,37,37-16.57,37-37,37"/>
      <path class="cls-3" d="M37,1.98c19.31,0,35.02,15.71,35.02,35.02s-15.71,35.02-35.02,35.02S1.98,56.31,1.98,37,17.69,1.98,37,1.98ZM37,71.02c18.76,0,34.02-15.26,34.02-34.02S55.76,2.98,37,2.98,2.98,18.24,2.98,37s15.26,34.02,34.02,34.02Z"/>
      <path id="_パス_5081" data-name="パス 5081" class="cls-3" d="M36.92,23.75v-1.91h1.91v-5.72h-1.91v-1.91h-7.63v1.91h-1.91v5.72h1.91v1.91h7.63ZM29.29,35.2v-1.91h1.91v-5.72h-1.91v-1.91h-9.54v1.91h-1.91v5.72h1.91v1.91h9.54ZM29.29,48.56v-1.91h1.91v-5.72h-1.91v-1.91h-9.54v1.9h-1.91v5.73h1.91v1.91h9.54ZM50.28,52.37v-1.91h1.91v-1.91h1.91v-1.91h1.91v-3.82h-1.91v-3.82h-1.91v-3.81h1.91v-3.81h1.91v-3.82h-1.91v-1.91h-1.91v-1.91h-1.91v-1.91h-3.82v1.9h-1.91v1.91h-1.91v3.81h-3.82v1.91h-1.91v1.91h-1.91v7.63h1.91v1.91h1.91v1.91h3.82v3.82h1.91v1.91h1.91v1.91h3.81ZM36.92,60v-1.91h1.91v-5.72h-1.91v-1.91h-7.63v1.91h-1.91v5.72h1.91v1.91h7.63Z"/>
      <path id="_パス_5082" data-name="パス 5082" class="cls-2" d="M41.01,24.67c1.28,0,2.31,1.04,2.31,2.31,0,.61-.24,1.2-.68,1.63l-8.39,8.39,8.39,8.39c.88.92.86,2.38-.07,3.27-.89.86-2.31.86-3.2,0l-10.02-10.02c-.9-.9-.9-2.37,0-3.27h0s10.02-10.02,10.02-10.02c.43-.43,1.02-.68,1.64-.68"/>
    </g>
  </g>
</svg>