<?xml version="1.0" encoding="UTF-8"?>
<svg id="_レイヤー_2" data-name="レイヤー 2" xmlns="http://www.w3.org/2000/svg" viewBox="0 0 74 74">
  <defs>
    <style>
      .cls-1 {
        fill: #ffdc00;
      }

      .cls-1, .cls-2, .cls-3 {
        stroke-width: 0px;
      }

      .cls-2 {
        fill: #5a5655;
      }

      .cls-3 {
        fill: #fff;
      }
    </style>
  </defs>
  <g id="_レイヤー_1-2" data-name="レイヤー 1">
    <g>
      <path id="_パス_5080" data-name="パス 5080" class="cls-1" d="M37,0c20.43,0,37,16.57,37,37s-16.57,37-37,37S0,57.43,0,37,16.57,0,37,0"/>
      <path class="cls-3" d="M37,72.02C17.69,72.02,1.98,56.31,1.98,37S17.69,1.98,37,1.98s35.02,15.71,35.02,35.02-15.71,35.02-35.02,35.02ZM37,2.98C18.24,2.98,2.98,18.24,2.98,37s15.26,34.02,34.02,34.02,34.02-15.26,34.02-34.02S55.76,2.98,37,2.98Z"/>
      <path id="_パス_5081" data-name="パス 5081" class="cls-3" d="M37.08,50.25v1.91h-1.91v5.72h1.91v1.91h7.63v-1.91h1.91v-5.72h-1.91v-1.91h-7.63ZM44.71,38.8v1.91h-1.91v5.72h1.91v1.91h9.54v-1.91h1.91v-5.72h-1.91v-1.91h-9.54ZM44.71,25.44v1.91h-1.91v5.72h1.91v1.91h9.54v-1.9h1.91v-5.73h-1.91v-1.91h-9.54ZM23.72,21.63v1.91h-1.91v1.91h-1.91v1.91h-1.91v3.82h1.91v3.82h1.91v3.81h-1.91v3.81h-1.91v3.82h1.91v1.91h1.91v1.91h1.91v1.91h3.82v-1.9h1.91v-1.91h1.91v-3.81h3.82v-1.91h1.91v-1.91h1.91v-7.63h-1.91v-1.91h-1.91v-1.91h-3.82v-3.82h-1.91v-1.91h-1.91v-1.91h-3.81ZM37.08,14v1.91h-1.91v5.72h1.91v1.91h7.63v-1.91h1.91v-5.72h-1.91v-1.91h-7.63Z"/>
      <path id="_パス_5082" data-name="パス 5082" class="cls-2" d="M32.99,49.33c-1.28,0-2.31-1.04-2.31-2.31,0-.61.24-1.2.68-1.63l8.39-8.39-8.39-8.39c-.88-.92-.86-2.38.07-3.27.89-.86,2.31-.86,3.2,0l10.02,10.02c.9.9.9,2.37,0,3.27h0s-10.02,10.02-10.02,10.02c-.43.43-1.02.68-1.64.68"/>
    </g>
  </g>
</svg>