<svg xmlns="http://www.w3.org/2000/svg" width="100" height="100" viewBox="0 0 100 100"><path d="M100,5.077h0V0H0V100H100V5.077ZM49.042,99.042H4.984A5.078,5.078,0,0,0,.958,95.016V50.958H42.081a6.96,6.96,0,0,1,6.961,6.961Zm0-56.96a6.961,6.961,0,0,1-6.961,6.96H.958V4.984A5.078,5.078,0,0,0,4.984.958H49.042ZM50.958.958H95.016a5.079,5.079,0,0,0,4.026,4.026V49.042H57.919a6.961,6.961,0,0,1-6.961-6.961ZM95.016,99.042H50.958V57.919a6.961,6.961,0,0,1,6.961-6.961H99.042V95.016a5.079,5.079,0,0,0-4.026,4.026" fill="#ffefc2"/></svg>