<?xml version="1.0" encoding="UTF-8"?>
<svg id="_レイヤー_2" data-name="レイヤー 2" xmlns="http://www.w3.org/2000/svg" viewBox="0 0 776.09 1231.5">
  <defs>
    <style>
      .cls-1 {
        fill: #fff;
        stroke-width: 0px;
      }
    </style>
  </defs>
  <g id="_レイヤー_1-2" data-name="レイヤー 1">
    <path id="_パス_5067" data-name="パス 5067" class="cls-1" d="M711.41,10.74c-16.17,0-24.25-2.69-32.34-5.37-8.09-2.69-16.17-5.37-32.33-5.37-32.34,0-32.34,10.74-64.67,10.74S549.73,0,517.39,0c-16.17,0-24.25,2.69-32.34,5.37-8.08,2.69-16.17,5.37-32.34,5.37-32.34,0-32.34-10.74-64.67-10.74s-32.34,10.74-64.67,10.74c-16.17,0-24.25-2.69-32.34-5.37-8.09-2.69-16.17-5.37-32.33-5.37-32.34,0-32.34,10.74-64.67,10.74S161.68,0,129.35,0c-16.17,0-24.25,2.69-32.34,5.37-8.08,2.69-16.17,5.37-32.34,5.37C32.34,10.74,32.34,0,0,0v1231.5h776.09V0c-32.34,0-32.34,10.74-64.67,10.74"/>
  </g>
</svg>