<?xml version="1.0" encoding="UTF-8"?>
<svg id="_レイヤー_2" data-name="レイヤー 2" xmlns="http://www.w3.org/2000/svg" viewBox="0 0 626.87 24.09">
  <defs>
    <style>
      .cls-1 {
        fill: #ffdc00;
        stroke-width: 0px;
      }
    </style>
  </defs>
  <g id="_レイヤー_1-2" data-name="レイヤー 1">
    <path class="cls-1" d="M626.87,24.09V0c-26.12,0-26.12,11.55-52.24,11.55-13.06,0-19.59-2.89-26.12-5.77-6.53-2.89-13.06-5.77-26.12-5.77-26.12,0-26.12,11.55-52.24,11.55S444.03,0,417.91,0c-13.06,0-19.59,2.89-26.12,5.77-6.53,2.89-13.06,5.77-26.12,5.77-26.12,0-26.12-11.55-52.24-11.55s-26.12,11.55-52.24,11.55c-13.06,0-19.59-2.89-26.12-5.77-6.53-2.89-13.06-5.77-26.12-5.77-26.12,0-26.12,11.55-52.24,11.55S130.6,0,104.48,0c-13.06,0-19.59,2.89-26.12,5.77-6.53,2.89-13.06,5.77-26.12,5.77C26.12,11.55,26.12,0,0,0v24.09h626.87Z"/>
  </g>
</svg>