<?xml version="1.0" encoding="UTF-8"?>
<svg id="_レイヤー_2" data-name="レイヤー 2" xmlns="http://www.w3.org/2000/svg" viewBox="0 0 719.23 24.09">
  <defs>
    <style>
      .cls-1 {
        fill: #fff;
        stroke-width: 0px;
      }
    </style>
  </defs>
  <g id="_レイヤー_1-2" data-name="レイヤー 1">
    <path class="cls-1" d="M719.23,24.09V0c-29.97,0-29.97,9.96-59.94,9.96-14.98,0-22.48-2.49-29.97-4.98-7.49-2.49-14.98-4.98-29.97-4.98-29.97,0-29.97,9.96-59.94,9.96S509.46,0,479.49,0c-14.98,0-22.48,2.49-29.97,4.98-7.49,2.49-14.98,4.98-29.97,4.98-29.97,0-29.97-9.96-59.94-9.96s-29.97,9.96-59.94,9.96c-14.98,0-22.48-2.49-29.97-4.98-7.49-2.49-14.98-4.98-29.97-4.98-29.97,0-29.97,9.96-59.94,9.96S149.84,0,119.87,0c-14.98,0-22.48,2.49-29.97,4.98-7.49,2.49-14.98,4.98-29.97,4.98C29.97,9.96,29.97,0,0,0v24.09h719.23Z"/>
  </g>
</svg>