<?xml version="1.0" encoding="UTF-8"?>
<svg id="_レイヤー_2" data-name="レイヤー 2" xmlns="http://www.w3.org/2000/svg" viewBox="0 0 848.01 24.09">
  <defs>
    <style>
      .cls-1 {
        fill: #ffeec0;
        stroke-width: 0px;
      }
    </style>
  </defs>
  <g id="_レイヤー_1-2" data-name="レイヤー 1">
    <path class="cls-1" d="M848.01,24.09V0c-35.33,0-35.33,11.55-70.67,11.55-17.67,0-26.5-2.89-35.34-5.77-8.83-2.89-17.67-5.77-35.33-5.77-35.33,0-35.33,11.55-70.67,11.55S600.67,0,565.34,0c-17.67,0-26.5,2.89-35.33,5.77-8.83,2.89-17.67,5.77-35.34,5.77-35.33,0-35.33-11.55-70.66-11.55s-35.33,11.55-70.67,11.55c-17.67,0-26.5-2.89-35.34-5.77-8.83-2.89-17.67-5.77-35.33-5.77-35.33,0-35.33,11.55-70.67,11.55S176.67,0,141.33,0c-17.67,0-26.5,2.89-35.33,5.77-8.83,2.89-17.67,5.77-35.34,5.77C35.33,11.55,35.33,0,0,0v24.09h848.01Z"/>
  </g>
</svg>