<svg xmlns="http://www.w3.org/2000/svg" width="141.872" height="145.107" viewBox="0 0 141.872 145.107"><g transform="translate(0 -0.001)"><path d="M138.358,72.555c0-5.354,4.467-11.138,3.328-16.147-1.176-5.173-7.738-8.444-9.99-13.111-2.289-4.744-.781-11.906-4.034-15.981-3.27-4.095-10.595-4.207-14.69-7.477-4.075-3.254-5.8-10.379-10.549-12.667-4.667-2.251-11.306.813-16.479-.363C80.935,5.67,76.291,0,70.935,0s-10,5.669-15.009,6.808c-5.174,1.177-11.812-1.888-16.479.364C34.7,9.461,32.974,16.585,28.9,19.839c-4.095,3.27-11.42,3.383-14.69,7.478-3.254,4.075-1.746,11.237-4.034,15.981C7.924,47.964,1.361,51.236.186,56.408-.953,61.418,3.514,67.2,3.514,72.555S-.953,83.692.186,88.7c1.176,5.173,7.738,8.444,9.99,13.111,2.289,4.744.781,11.906,4.034,15.981,3.27,4.095,10.595,4.207,14.69,7.477,4.075,3.254,5.8,10.379,10.549,12.667,4.667,2.251,11.306-.813,16.479.363,5.01,1.138,9.654,6.808,15.009,6.808s10-5.669,15.01-6.808c5.174-1.177,11.812,1.888,16.479-.364,4.744-2.288,6.474-9.413,10.549-12.666,4.094-3.27,11.42-3.383,14.69-7.478,3.254-4.075,1.746-11.237,4.034-15.981,2.251-4.667,8.813-7.939,9.989-13.11,1.138-5.01-3.328-10.793-3.328-16.147" transform="translate(0 0)" fill="#ffdc00"/><path d="M58.843,63.122a2.408,2.408,0,0,1-.067.555,5.387,5.387,0,0,1-.176.58L51.739,79.843v-.027a2.6,2.6,0,0,1-.986,1.2,2.686,2.686,0,0,1-1.58.5H47.8a2.663,2.663,0,0,1-1.539-.5,2.752,2.752,0,0,1-1.027-1.2L38.475,64.257a2.329,2.329,0,0,1-.162-.553,3.236,3.236,0,0,1-.055-.554,2.677,2.677,0,0,1,.23-1.108,2.936,2.936,0,0,1,.607-.892,2.973,2.973,0,0,1,.892-.608,2.625,2.625,0,0,1,1.08-.23,2.858,2.858,0,0,1,2.566,1.7l4.889,11.237,4.889-11.237a4.3,4.3,0,0,1,1.121-1.176,2.462,2.462,0,0,1,1.472-.527,2.627,2.627,0,0,1,1.08.23,3.046,3.046,0,0,1,1.526,1.514,2.532,2.532,0,0,1,.23,1.066" transform="translate(-6.559 -10.339)" fill="#5a5655"/><path d="M74.749,62.061a3.038,3.038,0,0,1-.243,1.215,2.876,2.876,0,0,1-.675.974,3.52,3.52,0,0,1-.986.648,2.838,2.838,0,0,1-1.148.243,2.809,2.809,0,0,1-1.2-.258,3.351,3.351,0,0,1-.972-.674,2.966,2.966,0,0,1-.649-.974,3.025,3.025,0,0,1-.23-1.175,2.965,2.965,0,0,1,.23-1.148,3.14,3.14,0,0,1,.649-.987,3.064,3.064,0,0,1,.972-.675,2.955,2.955,0,0,1,1.2-.243,3.045,3.045,0,0,1,1.216.243,3.089,3.089,0,0,1,.973.648,2.942,2.942,0,0,1,.635.959,3.126,3.126,0,0,1,.23,1.2M74.29,79.674a2.966,2.966,0,0,1-.581.865,2.7,2.7,0,0,1-.851.595,2.574,2.574,0,0,1-1.053.215h-.19a2.711,2.711,0,0,1-1.053-.2,2.6,2.6,0,0,1-.851-.567,2.738,2.738,0,0,1-.581-.865,2.656,2.656,0,0,1-.216-1.066V68.572a2.562,2.562,0,0,1,.216-1.053,2.8,2.8,0,0,1,.581-.851,2.6,2.6,0,0,1,.851-.567,2.7,2.7,0,0,1,1.053-.2h.19a2.629,2.629,0,0,1,1.917.77,2.565,2.565,0,0,1,.784,1.9V78.648a2.493,2.493,0,0,1-.216,1.026" transform="translate(-11.768 -10.116)" fill="#5a5655"/><path d="M98.442,79.07a2.086,2.086,0,0,1-.433,1.3,4,4,0,0,1-1.121.987,7.516,7.516,0,0,1-1.539.7,15.087,15.087,0,0,1-1.7.46q-.85.175-1.607.256a12.424,12.424,0,0,1-1.243.081,10.33,10.33,0,0,1-3.3-.514,7.658,7.658,0,0,1-2.675-1.512,7.1,7.1,0,0,1-1.8-2.5,8.454,8.454,0,0,1-.662-3.445,8.545,8.545,0,0,1,.662-3.458,7.191,7.191,0,0,1,1.8-2.525A7.689,7.689,0,0,1,87.5,67.361a10.107,10.107,0,0,1,3.3-.526,10.322,10.322,0,0,1,3.134.445,6.854,6.854,0,0,1,2.4,1.3,5.84,5.84,0,0,1,1.553,2.093,6.981,6.981,0,0,1,.554,2.864,3.051,3.051,0,0,1-.3,1.445,2.072,2.072,0,0,1-.824.851,3.553,3.553,0,0,1-1.242.405,10.228,10.228,0,0,1-1.526.108H88.069c.109.2.22.4.338.595a1.864,1.864,0,0,0,.472.527,2.436,2.436,0,0,0,.756.377,3.905,3.905,0,0,0,1.189.149,6.514,6.514,0,0,0,2.053-.337,9.385,9.385,0,0,0,1.647-.689,4.223,4.223,0,0,1,.621-.27,2.026,2.026,0,0,1,.675-.135,2.675,2.675,0,0,1,1.85.689,2.325,2.325,0,0,1,.771,1.823m-5.309-7.117a2.376,2.376,0,0,0-.661-.418,4.461,4.461,0,0,0-.811-.257,3.5,3.5,0,0,0-.7-.094,4.783,4.783,0,0,0-.838.081,4.564,4.564,0,0,0-.878.243,3.091,3.091,0,0,0-.756.418,1.628,1.628,0,0,0-.5.607h5.43a.768.768,0,0,0-.284-.58" transform="translate(-14.121 -11.458)" fill="#5a5655"/><path d="M127.679,69.7a2.172,2.172,0,0,1-.041.418,3.269,3.269,0,0,1-.094.365v-.054q-.352,1.189-.716,2.39t-.743,2.418q-.405,1.352-.85,2.743t-.824,2.686a2.879,2.879,0,0,1-2.7,1.972h-1.054a2.591,2.591,0,0,1-1.688-.608,3.033,3.033,0,0,1-1.013-1.5l-.918-3.215-.892,3.215a2.874,2.874,0,0,1-.986,1.5,2.669,2.669,0,0,1-1.742.608h-.972a2.669,2.669,0,0,1-1.716-.593,2.831,2.831,0,0,1-.986-1.405l-3.08-10.129a2.909,2.909,0,0,1-.094-.392,2.36,2.36,0,0,1-.04-.393,2.407,2.407,0,0,1,.215-1.013,2.636,2.636,0,0,1,.568-.81,2.792,2.792,0,0,1,.81-.541,2.335,2.335,0,0,1,.945-.2h.216a2.713,2.713,0,0,1,1.661.554,2.75,2.75,0,0,1,1.013,1.445q.3.946.527,1.837t.473,1.593l.892-3.268a2.542,2.542,0,0,1,1.04-1.473,2.91,2.91,0,0,1,1.689-.553H117.6a2.8,2.8,0,0,1,2.7,2.079c.089.343.171.64.243.892s.139.5.2.742.136.491.216.744.167.548.257.891l.973-3.512a2.51,2.51,0,0,1,1.013-1.431,2.877,2.877,0,0,1,1.689-.541h.216a2.466,2.466,0,0,1,.945.19,2.859,2.859,0,0,1,.824.514,2.351,2.351,0,0,1,.581.8,2.467,2.467,0,0,1,.216,1.04" transform="translate(-18.262 -11.513)" fill="#5a5655"/><path d="M57.759,114.023a2.992,2.992,0,0,1-.595.851,2.416,2.416,0,0,1-.864.554,2.846,2.846,0,0,1-1.013.19h-.216a2.736,2.736,0,0,1-1-.19,2.569,2.569,0,0,1-.864-.554,2.845,2.845,0,0,1-.608-.851,2.558,2.558,0,0,1-.23-1.108v-4.943H45.508v4.943a2.571,2.571,0,0,1-.23,1.108,2.875,2.875,0,0,1-.608.851,2.594,2.594,0,0,1-.864.554,2.739,2.739,0,0,1-1,.19h-.216a2.806,2.806,0,0,1-1.027-.19,2.444,2.444,0,0,1-.851-.554,2.973,2.973,0,0,1-.594-.851,2.559,2.559,0,0,1-.23-1.108V102.408a14.694,14.694,0,0,1,.325-3.066A6.6,6.6,0,0,1,41.5,96.6a6.877,6.877,0,0,1,2.742-1.984,12.011,12.011,0,0,1,4.7-.77,12.011,12.011,0,0,1,4.7.77A6.871,6.871,0,0,1,56.381,96.6a6.6,6.6,0,0,1,1.283,2.743,14.693,14.693,0,0,1,.324,3.066v10.507a2.571,2.571,0,0,1-.23,1.108m-5.551-12.871a2.613,2.613,0,0,0-.553-1.027,2.649,2.649,0,0,0-1.054-.7,4.64,4.64,0,0,0-1.661-.257,4.727,4.727,0,0,0-1.688.257,2.541,2.541,0,0,0-1.041.7,2.683,2.683,0,0,0-.539,1.027,4.535,4.535,0,0,0-.162,1.228H52.37a4.535,4.535,0,0,0-.162-1.228" transform="translate(-6.838 -16.088)" fill="#5a5655"/><path d="M77.008,112.9a2.438,2.438,0,0,1-.27,1.175,2.718,2.718,0,0,1-.689.838,2.8,2.8,0,0,1-.959.5,3.7,3.7,0,0,1-1.053.162,3.356,3.356,0,0,1-1.554-.5,6.192,6.192,0,0,1-1.742-1.511A8.878,8.878,0,0,1,69.323,111a10.428,10.428,0,0,1-.581-3.66V96.292a2.584,2.584,0,0,1,.23-1.094,2.645,2.645,0,0,1,.608-.852,2.743,2.743,0,0,1,.851-.539,2.626,2.626,0,0,1,.986-.19h.243a2.74,2.74,0,0,1,1,.19,2.7,2.7,0,0,1,.864.539,2.671,2.671,0,0,1,.608.852,2.6,2.6,0,0,1,.23,1.094v11.156a4.869,4.869,0,0,0,.2,1.54,3.828,3.828,0,0,0,.445.945,2.2,2.2,0,0,0,.676.621,3.019,3.019,0,0,1,.945.932,2.545,2.545,0,0,1,.378,1.418" transform="translate(-11.784 -16.049)" fill="#5a5655"/><path d="M92.2,112.9a2.438,2.438,0,0,1-.27,1.175,2.718,2.718,0,0,1-.689.838,2.8,2.8,0,0,1-.959.5,3.7,3.7,0,0,1-1.053.162,3.356,3.356,0,0,1-1.554-.5,6.192,6.192,0,0,1-1.742-1.511A8.878,8.878,0,0,1,84.515,111a10.429,10.429,0,0,1-.581-3.66V96.292a2.584,2.584,0,0,1,.23-1.094,2.645,2.645,0,0,1,.608-.852,2.742,2.742,0,0,1,.851-.539,2.626,2.626,0,0,1,.986-.19h.243a2.74,2.74,0,0,1,1,.19,2.7,2.7,0,0,1,.864.539,2.67,2.67,0,0,1,.608.852,2.6,2.6,0,0,1,.23,1.094v11.156a4.869,4.869,0,0,0,.2,1.54,3.828,3.828,0,0,0,.445.945,2.2,2.2,0,0,0,.676.621,3.019,3.019,0,0,1,.945.932A2.545,2.545,0,0,1,92.2,112.9" transform="translate(-14.389 -16.049)" fill="#5a5655"/><path d="M8.972,26.128h0A3.381,3.381,0,0,1,6.584,20.36l.01-.01,8.4-8.395H11.1a3.18,3.18,0,0,1,0-6.36H22.944a3.184,3.184,0,0,1,3.18,3.18V20.622a3.2,3.2,0,0,1-.933,2.25,3.151,3.151,0,0,1-2.246.931,3.186,3.186,0,0,1-3.182-3.18V16.73l-8.4,8.4A3.387,3.387,0,0,1,8.972,26.128Zm-.981-4.346A1.377,1.377,0,0,0,8,23.719l0,0a1.364,1.364,0,0,0,1.939,0L20.056,13.609a1,1,0,0,1,1.707.707v6.307a1.182,1.182,0,0,0,1.18,1.18,1.182,1.182,0,0,0,1.18-1.18V8.775a1.181,1.181,0,0,0-1.18-1.18H11.1a1.18,1.18,0,0,0,0,2.36H17.4a1,1,0,0,1,.707,1.707L8,21.774Z" transform="translate(82.982 72.782)" fill="#5a5655"/></g></svg>