<?xml version="1.0" encoding="UTF-8"?>
<svg id="_レイヤー_2" data-name="レイヤー 2" xmlns="http://www.w3.org/2000/svg" viewBox="0 0 1107.22 95">
  <defs>
    <style>
      .cls-1 {
        fill: #ffdc00;
      }

      .cls-1, .cls-2 {
        stroke-width: 0px;
      }

      .cls-2 {
        fill: #ffc400;
      }
    </style>
  </defs>
  <g id="_レイヤー_1-2" data-name="レイヤー 1">
    <g id="_グループ_998" data-name="グループ 998">
      <g id="_グループ_995" data-name="グループ 995">
        <g id="_パス_5093" data-name="パス 5093">
          <path class="cls-1" d="M1090.23,41.08h-7.6v-1.65h-1.65v-5.95h1.65v-1.65h7.6v1.65h1.65v5.95h-1.65v1.65ZM1101.77,34.48h-4.3v-1.65h-1.65v-1.65h-1.65v-3.3h-3.3v-1.65h-1.65v-1.65h-1.65v-7.6h1.65v-1.65h1.65v-1.65h3.3v-3.3h1.65v-1.65h1.65v-1.65h4.3v1.65h1.65v1.65h1.65v1.65h1.65v4.3h-1.65v3.3h-1.65v2.3h1.65v3.3h1.65v4.3h-1.65v1.65h-1.65v1.65h-1.65v1.65ZM1083.63,31.18h-9.24v-1.65h-1.65v-5.95h1.65v-1.65h9.24v1.65h1.65v5.95h-1.65v1.65ZM1083.63,19.64h-9.24v-1.65h-1.65v-5.95h1.65v-1.65h9.24v1.65h1.65v5.95h-1.65v1.65ZM1090.23,9.74h-7.6v-1.65h-1.65V2.15h1.65V.5h7.6v1.65h1.65v5.95h-1.65v1.65Z"/>
          <path class="cls-2" d="M1089.73,40.58v-1.65h1.65v-4.95h-1.65v-1.65h-6.6v1.65h-1.65v4.95h1.65v1.65h6.6M1101.27,33.98v-1.65h1.65v-1.65h1.65v-1.65h1.65v-3.3h-1.65v-3.3h-1.65v-3.3h1.65v-3.3h1.65v-3.3h-1.65v-1.65h-1.65v-1.65h-1.65v-1.65h-3.3v1.65h-1.65v1.65h-1.65v3.3h-3.3v1.65h-1.65v1.65h-1.65v6.6h1.65v1.65h1.65v1.65h3.3v3.3h1.65v1.65h1.65v1.65h3.3M1083.13,30.68v-1.65h1.65v-4.95h-1.65v-1.65h-8.24v1.65h-1.65v4.95h1.65v1.65h8.24M1083.13,19.14v-1.65h1.65v-4.95h-1.65v-1.65h-8.24v1.65h-1.65v4.95h1.65v1.65h8.24M1089.73,9.24v-1.65h1.65V2.65h-1.65v-1.65h-6.6v1.65h-1.65v4.95h1.65v1.65h6.6M1090.73,41.58h-8.6v-1.65h-1.65v-6.95h1.65v-1.3h-8.24v-1.65h-1.65v-6.95h1.65v-1.65h10.24v1.65h1.65v6.95h-1.65v1.3h6.6v1.65h1.65v6.95h-1.65v1.65ZM1102.27,34.98h-5.3v-1.65h-1.65v-1.65h-1.65v-3.3h-3.3v-1.65h-1.65v-1.65h-1.65v-8.6h1.65v-1.65h1.65v-1.65h3.3v-3.3h1.65v-1.65h1.65v-1.65h5.3v1.65h1.65v1.65h1.65v1.65h1.65v5.3h-1.65v3.3h-1.65v1.3h1.65v3.3h1.65v5.3h-1.65v1.65h-1.65v1.65h-1.65v1.65ZM1084.13,20.14h-10.24v-1.65h-1.65v-6.95h1.65v-1.65h8.24v-1.3h-1.65V1.65h1.65V0h8.6v1.65h1.65v6.95h-1.65v1.65h-6.6v1.3h1.65v6.95h-1.65v1.65Z"/>
        </g>
        <g id="_パス_5094" data-name="パス 5094">
          <path class="cls-1" d="M985.08,80.65h-7.6v-1.65h-1.65v-5.95h1.65v-1.65h7.6v1.65h1.65v5.95h-1.65v1.65ZM996.62,74.05h-4.3v-1.65h-1.65v-1.65h-1.65v-3.3h-3.3v-1.65h-1.65v-1.65h-1.65v-7.6h1.65v-1.65h1.65v-1.65h3.3v-3.3h1.65v-1.65h1.65v-1.65h4.3v1.65h1.65v1.65h1.65v1.65h1.65v4.3h-1.65v3.3h-1.65v2.3h1.65v3.3h1.65v4.3h-1.65v1.65h-1.65v1.65h-1.65v1.65ZM978.48,70.76h-9.24v-1.65h-1.65v-5.95h1.65v-1.65h9.24v1.65h1.65v5.95h-1.65v1.65ZM978.48,59.21h-9.24v-1.65h-1.65v-5.95h1.65v-1.65h9.24v1.65h1.65v5.95h-1.65v1.65ZM985.08,49.32h-7.6v-1.65h-1.65v-5.95h1.65v-1.65h7.6v1.65h1.65v5.95h-1.65v1.65Z"/>
          <path class="cls-2" d="M984.58,80.15v-1.65h1.65v-4.95h-1.65v-1.65h-6.6v1.65h-1.65v4.95h1.65v1.65h6.6M996.12,73.55v-1.65h1.65v-1.65h1.65v-1.65h1.65v-3.3h-1.65v-3.3h-1.65v-3.3h1.65v-3.3h1.65v-3.3h-1.65v-1.65h-1.65v-1.65h-1.65v-1.65h-3.3v1.65h-1.65v1.65h-1.65v3.3h-3.3v1.65h-1.65v1.65h-1.65v6.6h1.65v1.65h1.65v1.65h3.3v3.3h1.65v1.65h1.65v1.65h3.3M977.98,70.26v-1.65h1.65v-4.95h-1.65v-1.65h-8.24v1.65h-1.65v4.95h1.65v1.65h8.24M977.98,58.71v-1.65h1.65v-4.95h-1.65v-1.65h-8.24v1.65h-1.65v4.95h1.65v1.65h8.24M984.58,48.82v-1.65h1.65v-4.95h-1.65v-1.65h-6.6v1.65h-1.65v4.95h1.65v1.65h6.6M985.58,81.15h-8.6v-1.65h-1.65v-6.95h1.65v-1.3h-8.24v-1.65h-1.65v-6.95h1.65v-1.65h10.24v1.65h1.65v6.95h-1.65v1.3h6.6v1.65h1.65v6.95h-1.65v1.65ZM997.12,74.55h-5.3v-1.65h-1.65v-1.65h-1.65v-3.3h-3.3v-1.65h-1.65v-1.65h-1.65v-8.6h1.65v-1.65h1.65v-1.65h3.3v-3.3h1.65v-1.65h1.65v-1.65h5.3v1.65h1.65v1.65h1.65v1.65h1.65v5.3h-1.65v3.3h-1.65v1.3h1.65v3.3h1.65v5.3h-1.65v1.65h-1.65v1.65h-1.65v1.65ZM978.98,59.71h-10.24v-1.65h-1.65v-6.95h1.65v-1.65h8.24v-1.3h-1.65v-6.95h1.65v-1.65h8.6v1.65h1.65v6.95h-1.65v1.65h-6.6v1.3h1.65v6.95h-1.65v1.65Z"/>
        </g>
        <g id="_パス_5096" data-name="パス 5096">
          <path class="cls-1" d="M792.67,94.5h-7.6v-1.65h-1.65v-5.95h1.65v-1.65h7.6v1.65h1.65v5.95h-1.65v1.65ZM804.22,87.9h-4.3v-1.65h-1.65v-1.65h-1.65v-3.3h-3.3v-1.65h-1.65v-1.65h-1.65v-7.6h1.65v-1.65h1.65v-1.65h3.3v-3.3h1.65v-1.65h1.65v-1.65h4.3v1.65h1.65v1.65h1.65v1.65h1.65v4.3h-1.65v3.3h-1.65v2.3h1.65v3.3h1.65v4.3h-1.65v1.65h-1.65v1.65h-1.65v1.65ZM786.08,84.61h-9.24v-1.65h-1.65v-5.95h1.65v-1.65h9.24v1.65h1.65v5.95h-1.65v1.65ZM786.08,73.06h-9.24v-1.65h-1.65v-5.95h1.65v-1.65h9.24v1.65h1.65v5.95h-1.65v1.65ZM792.67,63.17h-7.6v-1.65h-1.65v-5.95h1.65v-1.65h7.6v1.65h1.65v5.95h-1.65v1.65Z"/>
          <path class="cls-2" d="M792.17,94v-1.65h1.65v-4.95h-1.65v-1.65h-6.6v1.65h-1.65v4.95h1.65v1.65h6.6M803.72,87.4v-1.65h1.65v-1.65h1.65v-1.65h1.65v-3.3h-1.65v-3.3h-1.65v-3.3h1.65v-3.3h1.65v-3.3h-1.65v-1.65h-1.65v-1.65h-1.65v-1.65h-3.3v1.65h-1.65v1.65h-1.65v3.3h-3.3v1.65h-1.65v1.65h-1.65v6.6h1.65v1.65h1.65v1.65h3.3v3.3h1.65v1.65h1.65v1.65h3.3M785.58,84.11v-1.65h1.65v-4.95h-1.65v-1.65h-8.24v1.65h-1.65v4.95h1.65v1.65h8.24M785.58,72.56v-1.65h1.65v-4.95h-1.65v-1.65h-8.24v1.65h-1.65v4.95h1.65v1.65h8.24M792.17,62.67v-1.65h1.65v-4.95h-1.65v-1.65h-6.6v1.65h-1.65v4.95h1.65v1.65h6.6M793.17,95h-8.6v-1.65h-1.65v-6.95h1.65v-1.3h-8.24v-1.65h-1.65v-6.95h1.65v-1.65h10.24v1.65h1.65v6.95h-1.65v1.3h6.6v1.65h1.65v6.95h-1.65v1.65ZM804.72,88.4h-5.3v-1.65h-1.65v-1.65h-1.65v-3.3h-3.3v-1.65h-1.65v-1.65h-1.65v-8.6h1.65v-1.65h1.65v-1.65h3.3v-3.3h1.65v-1.65h1.65v-1.65h5.3v1.65h1.65v1.65h1.65v1.65h1.65v5.3h-1.65v3.3h-1.65v1.3h1.65v3.3h1.65v5.3h-1.65v1.65h-1.65v1.65h-1.65v1.65ZM786.58,73.56h-10.24v-1.65h-1.65v-6.95h1.65v-1.65h8.24v-1.3h-1.65v-6.95h1.65v-1.65h8.6v1.65h1.65v6.95h-1.65v1.65h-6.6v1.3h1.65v6.95h-1.65v1.65Z"/>
        </g>
        <g id="_パス_5095" data-name="パス 5095">
          <path class="cls-1" d="M899.93,54.92h-7.6v-1.65h-1.65v-5.95h1.65v-1.65h7.6v1.65h1.65v5.95h-1.65v1.65ZM911.47,48.33h-4.3v-1.65h-1.65v-1.65h-1.65v-3.3h-3.3v-1.65h-1.65v-1.65h-1.65v-7.6h1.65v-1.65h1.65v-1.65h3.3v-3.3h1.65v-1.65h1.65v-1.65h4.3v1.65h1.65v1.65h1.65v1.65h1.65v4.3h-1.65v3.3h-1.65v2.3h1.65v3.3h1.65v4.3h-1.65v1.65h-1.65v1.65h-1.65v1.65ZM893.34,45.03h-9.24v-1.65h-1.65v-5.95h1.65v-1.65h9.24v1.65h1.65v5.95h-1.65v1.65ZM893.34,33.49h-9.24v-1.65h-1.65v-5.95h1.65v-1.65h9.24v1.65h1.65v5.95h-1.65v1.65ZM899.93,23.59h-7.6v-1.65h-1.65v-5.95h1.65v-1.65h7.6v1.65h1.65v5.95h-1.65v1.65Z"/>
          <path class="cls-2" d="M899.43,54.42v-1.65h1.65v-4.95h-1.65v-1.65h-6.6v1.65h-1.65v4.95h1.65v1.65h6.6M910.97,47.83v-1.65h1.65v-1.65h1.65v-1.65h1.65v-3.3h-1.65v-3.3h-1.65v-3.3h1.65v-3.3h1.65v-3.3h-1.65v-1.65h-1.65v-1.65h-1.65v-1.65h-3.3v1.65h-1.65v1.65h-1.65v3.3h-3.3v1.65h-1.65v1.65h-1.65v6.6h1.65v1.65h1.65v1.65h3.3v3.3h1.65v1.65h1.65v1.65h3.3M892.84,44.53v-1.65h1.65v-4.95h-1.65v-1.65h-8.24v1.65h-1.65v4.95h1.65v1.65h8.24M892.84,32.99v-1.65h1.65v-4.95h-1.65v-1.65h-8.24v1.65h-1.65v4.95h1.65v1.65h8.24M899.43,23.09v-1.65h1.65v-4.95h-1.65v-1.65h-6.6v1.65h-1.65v4.95h1.65v1.65h6.6M900.43,55.42h-8.6v-1.65h-1.65v-6.95h1.65v-1.3h-8.24v-1.65h-1.65v-6.95h1.65v-1.65h10.24v1.65h1.65v6.95h-1.65v1.3h6.6v1.65h1.65v6.95h-1.65v1.65ZM911.97,48.83h-5.3v-1.65h-1.65v-1.65h-1.65v-3.3h-3.3v-1.65h-1.65v-1.65h-1.65v-8.6h1.65v-1.65h1.65v-1.65h3.3v-3.3h1.65v-1.65h1.65v-1.65h5.3v1.65h1.65v1.65h1.65v1.65h1.65v5.3h-1.65v3.3h-1.65v1.3h1.65v3.3h1.65v5.3h-1.65v1.65h-1.65v1.65h-1.65v1.65ZM893.84,33.99h-10.24v-1.65h-1.65v-6.95h1.65v-1.65h8.24v-1.3h-1.65v-6.95h1.65v-1.65h8.6v1.65h1.65v6.95h-1.65v1.65h-6.6v1.3h1.65v6.95h-1.65v1.65Z"/>
        </g>
      </g>
      <g id="_グループ_996" data-name="グループ 996">
        <g id="_パス_5093-2" data-name="パス 5093-2">
          <path class="cls-1" d="M702.89,41.08h-7.6v-1.65h-1.65v-5.95h1.65v-1.65h7.6v1.65h1.65v5.95h-1.65v1.65ZM714.43,34.48h-4.3v-1.65h-1.65v-1.65h-1.65v-3.3h-3.3v-1.65h-1.65v-1.65h-1.65v-7.6h1.65v-1.65h1.65v-1.65h3.3v-3.3h1.65v-1.65h1.65v-1.65h4.3v1.65h1.65v1.65h1.65v1.65h1.65v4.3h-1.65v3.3h-1.65v2.3h1.65v3.3h1.65v4.3h-1.65v1.65h-1.65v1.65h-1.65v1.65ZM696.29,31.18h-9.24v-1.65h-1.65v-5.95h1.65v-1.65h9.24v1.65h1.65v5.95h-1.65v1.65ZM696.29,19.64h-9.24v-1.65h-1.65v-5.95h1.65v-1.65h9.24v1.65h1.65v5.95h-1.65v1.65ZM702.89,9.74h-7.6v-1.65h-1.65V2.15h1.65V.5h7.6v1.65h1.65v5.95h-1.65v1.65Z"/>
          <path class="cls-2" d="M702.39,40.58v-1.65h1.65v-4.95h-1.65v-1.65h-6.6v1.65h-1.65v4.95h1.65v1.65h6.6M713.93,33.98v-1.65h1.65v-1.65h1.65v-1.65h1.65v-3.3h-1.65v-3.3h-1.65v-3.3h1.65v-3.3h1.65v-3.3h-1.65v-1.65h-1.65v-1.65h-1.65v-1.65h-3.3v1.65h-1.65v1.65h-1.65v3.3h-3.3v1.65h-1.65v1.65h-1.65v6.6h1.65v1.65h1.65v1.65h3.3v3.3h1.65v1.65h1.65v1.65h3.3M695.79,30.68v-1.65h1.65v-4.95h-1.65v-1.65h-8.24v1.65h-1.65v4.95h1.65v1.65h8.24M695.79,19.14v-1.65h1.65v-4.95h-1.65v-1.65h-8.24v1.65h-1.65v4.95h1.65v1.65h8.24M702.39,9.24v-1.65h1.65V2.65h-1.65v-1.65h-6.6v1.65h-1.65v4.95h1.65v1.65h6.6M703.39,41.58h-8.6v-1.65h-1.65v-6.95h1.65v-1.3h-8.24v-1.65h-1.65v-6.95h1.65v-1.65h10.24v1.65h1.65v6.95h-1.65v1.3h6.6v1.65h1.65v6.95h-1.65v1.65ZM714.93,34.98h-5.3v-1.65h-1.65v-1.65h-1.65v-3.3h-3.3v-1.65h-1.65v-1.65h-1.65v-8.6h1.65v-1.65h1.65v-1.65h3.3v-3.3h1.65v-1.65h1.65v-1.65h5.3v1.65h1.65v1.65h1.65v1.65h1.65v5.3h-1.65v3.3h-1.65v1.3h1.65v3.3h1.65v5.3h-1.65v1.65h-1.65v1.65h-1.65v1.65ZM696.79,20.14h-10.24v-1.65h-1.65v-6.95h1.65v-1.65h8.24v-1.3h-1.65V1.65h1.65V0h8.6v1.65h1.65v6.95h-1.65v1.65h-6.6v1.3h1.65v6.95h-1.65v1.65Z"/>
        </g>
        <g id="_パス_5094-2" data-name="パス 5094-2">
          <path class="cls-1" d="M597.74,80.65h-7.6v-1.65h-1.65v-5.95h1.65v-1.65h7.6v1.65h1.65v5.95h-1.65v1.65ZM609.28,74.05h-4.3v-1.65h-1.65v-1.65h-1.65v-3.3h-3.3v-1.65h-1.65v-1.65h-1.65v-7.6h1.65v-1.65h1.65v-1.65h3.3v-3.3h1.65v-1.65h1.65v-1.65h4.3v1.65h1.65v1.65h1.65v1.65h1.65v4.3h-1.65v3.3h-1.65v2.3h1.65v3.3h1.65v4.3h-1.65v1.65h-1.65v1.65h-1.65v1.65ZM591.14,70.76h-9.24v-1.65h-1.65v-5.95h1.65v-1.65h9.24v1.65h1.65v5.95h-1.65v1.65ZM591.14,59.21h-9.24v-1.65h-1.65v-5.95h1.65v-1.65h9.24v1.65h1.65v5.95h-1.65v1.65ZM597.74,49.32h-7.6v-1.65h-1.65v-5.95h1.65v-1.65h7.6v1.65h1.65v5.95h-1.65v1.65Z"/>
          <path class="cls-2" d="M597.24,80.15v-1.65h1.65v-4.95h-1.65v-1.65h-6.6v1.65h-1.65v4.95h1.65v1.65h6.6M608.78,73.55v-1.65h1.65v-1.65h1.65v-1.65h1.65v-3.3h-1.65v-3.3h-1.65v-3.3h1.65v-3.3h1.65v-3.3h-1.65v-1.65h-1.65v-1.65h-1.65v-1.65h-3.3v1.65h-1.65v1.65h-1.65v3.3h-3.3v1.65h-1.65v1.65h-1.65v6.6h1.65v1.65h1.65v1.65h3.3v3.3h1.65v1.65h1.65v1.65h3.3M590.64,70.26v-1.65h1.65v-4.95h-1.65v-1.65h-8.24v1.65h-1.65v4.95h1.65v1.65h8.24M590.64,58.71v-1.65h1.65v-4.95h-1.65v-1.65h-8.24v1.65h-1.65v4.95h1.65v1.65h8.24M597.24,48.82v-1.65h1.65v-4.95h-1.65v-1.65h-6.6v1.65h-1.65v4.95h1.65v1.65h6.6M598.24,81.15h-8.6v-1.65h-1.65v-6.95h1.65v-1.3h-8.24v-1.65h-1.65v-6.95h1.65v-1.65h10.24v1.65h1.65v6.95h-1.65v1.3h6.6v1.65h1.65v6.95h-1.65v1.65ZM609.78,74.55h-5.3v-1.65h-1.65v-1.65h-1.65v-3.3h-3.3v-1.65h-1.65v-1.65h-1.65v-8.6h1.65v-1.65h1.65v-1.65h3.3v-3.3h1.65v-1.65h1.65v-1.65h5.3v1.65h1.65v1.65h1.65v1.65h1.65v5.3h-1.65v3.3h-1.65v1.3h1.65v3.3h1.65v5.3h-1.65v1.65h-1.65v1.65h-1.65v1.65ZM591.64,59.71h-10.24v-1.65h-1.65v-6.95h1.65v-1.65h8.24v-1.3h-1.65v-6.95h1.65v-1.65h8.6v1.65h1.65v6.95h-1.65v1.65h-6.6v1.3h1.65v6.95h-1.65v1.65Z"/>
        </g>
        <g id="_パス_5096-2" data-name="パス 5096-2">
          <path class="cls-1" d="M405.33,94.5h-7.6v-1.65h-1.65v-5.95h1.65v-1.65h7.6v1.65h1.65v5.95h-1.65v1.65ZM416.87,87.9h-4.3v-1.65h-1.65v-1.65h-1.65v-3.3h-3.3v-1.65h-1.65v-1.65h-1.65v-7.6h1.65v-1.65h1.65v-1.65h3.3v-3.3h1.65v-1.65h1.65v-1.65h4.3v1.65h1.65v1.65h1.65v1.65h1.65v4.3h-1.65v3.3h-1.65v2.3h1.65v3.3h1.65v4.3h-1.65v1.65h-1.65v1.65h-1.65v1.65ZM398.74,84.61h-9.24v-1.65h-1.65v-5.95h1.65v-1.65h9.24v1.65h1.65v5.95h-1.65v1.65ZM398.74,73.06h-9.24v-1.65h-1.65v-5.95h1.65v-1.65h9.24v1.65h1.65v5.95h-1.65v1.65ZM405.33,63.17h-7.6v-1.65h-1.65v-5.95h1.65v-1.65h7.6v1.65h1.65v5.95h-1.65v1.65Z"/>
          <path class="cls-2" d="M404.83,94v-1.65h1.65v-4.95h-1.65v-1.65h-6.6v1.65h-1.65v4.95h1.65v1.65h6.6M416.37,87.4v-1.65h1.65v-1.65h1.65v-1.65h1.65v-3.3h-1.65v-3.3h-1.65v-3.3h1.65v-3.3h1.65v-3.3h-1.65v-1.65h-1.65v-1.65h-1.65v-1.65h-3.3v1.65h-1.65v1.65h-1.65v3.3h-3.3v1.65h-1.65v1.65h-1.65v6.6h1.65v1.65h1.65v1.65h3.3v3.3h1.65v1.65h1.65v1.65h3.3M398.24,84.11v-1.65h1.65v-4.95h-1.65v-1.65h-8.24v1.65h-1.65v4.95h1.65v1.65h8.24M398.24,72.56v-1.65h1.65v-4.95h-1.65v-1.65h-8.24v1.65h-1.65v4.95h1.65v1.65h8.24M404.83,62.67v-1.65h1.65v-4.95h-1.65v-1.65h-6.6v1.65h-1.65v4.95h1.65v1.65h6.6M405.83,95h-8.6v-1.65h-1.65v-6.95h1.65v-1.3h-8.24v-1.65h-1.65v-6.95h1.65v-1.65h10.24v1.65h1.65v6.95h-1.65v1.3h6.6v1.65h1.65v6.95h-1.65v1.65ZM417.37,88.4h-5.3v-1.65h-1.65v-1.65h-1.65v-3.3h-3.3v-1.65h-1.65v-1.65h-1.65v-8.6h1.65v-1.65h1.65v-1.65h3.3v-3.3h1.65v-1.65h1.65v-1.65h5.3v1.65h1.65v1.65h1.65v1.65h1.65v5.3h-1.65v3.3h-1.65v1.3h1.65v3.3h1.65v5.3h-1.65v1.65h-1.65v1.65h-1.65v1.65ZM399.24,73.56h-10.24v-1.65h-1.65v-6.95h1.65v-1.65h8.24v-1.3h-1.65v-6.95h1.65v-1.65h8.6v1.65h1.65v6.95h-1.65v1.65h-6.6v1.3h1.65v6.95h-1.65v1.65Z"/>
        </g>
        <g id="_パス_5095-2" data-name="パス 5095-2">
          <path class="cls-1" d="M512.59,54.92h-7.6v-1.65h-1.65v-5.95h1.65v-1.65h7.6v1.65h1.65v5.95h-1.65v1.65ZM524.13,48.33h-4.3v-1.65h-1.65v-1.65h-1.65v-3.3h-3.3v-1.65h-1.65v-1.65h-1.65v-7.6h1.65v-1.65h1.65v-1.65h3.3v-3.3h1.65v-1.65h1.65v-1.65h4.3v1.65h1.65v1.65h1.65v1.65h1.65v4.3h-1.65v3.3h-1.65v2.3h1.65v3.3h1.65v4.3h-1.65v1.65h-1.65v1.65h-1.65v1.65ZM505.99,45.03h-9.24v-1.65h-1.65v-5.95h1.65v-1.65h9.24v1.65h1.65v5.95h-1.65v1.65ZM505.99,33.49h-9.24v-1.65h-1.65v-5.95h1.65v-1.65h9.24v1.65h1.65v5.95h-1.65v1.65ZM512.59,23.59h-7.6v-1.65h-1.65v-5.95h1.65v-1.65h7.6v1.65h1.65v5.95h-1.65v1.65Z"/>
          <path class="cls-2" d="M512.09,54.42v-1.65h1.65v-4.95h-1.65v-1.65h-6.6v1.65h-1.65v4.95h1.65v1.65h6.6M523.63,47.83v-1.65h1.65v-1.65h1.65v-1.65h1.65v-3.3h-1.65v-3.3h-1.65v-3.3h1.65v-3.3h1.65v-3.3h-1.65v-1.65h-1.65v-1.65h-1.65v-1.65h-3.3v1.65h-1.65v1.65h-1.65v3.3h-3.3v1.65h-1.65v1.65h-1.65v6.6h1.65v1.65h1.65v1.65h3.3v3.3h1.65v1.65h1.65v1.65h3.3M505.49,44.53v-1.65h1.65v-4.95h-1.65v-1.65h-8.24v1.65h-1.65v4.95h1.65v1.65h8.24M505.49,32.99v-1.65h1.65v-4.95h-1.65v-1.65h-8.24v1.65h-1.65v4.95h1.65v1.65h8.24M512.09,23.09v-1.65h1.65v-4.95h-1.65v-1.65h-6.6v1.65h-1.65v4.95h1.65v1.65h6.6M513.09,55.42h-8.6v-1.65h-1.65v-6.95h1.65v-1.3h-8.24v-1.65h-1.65v-6.95h1.65v-1.65h10.24v1.65h1.65v6.95h-1.65v1.3h6.6v1.65h1.65v6.95h-1.65v1.65ZM524.63,48.83h-5.3v-1.65h-1.65v-1.65h-1.65v-3.3h-3.3v-1.65h-1.65v-1.65h-1.65v-8.6h1.65v-1.65h1.65v-1.65h3.3v-3.3h1.65v-1.65h1.65v-1.65h5.3v1.65h1.65v1.65h1.65v1.65h1.65v5.3h-1.65v3.3h-1.65v1.3h1.65v3.3h1.65v5.3h-1.65v1.65h-1.65v1.65h-1.65v1.65ZM506.49,33.99h-10.24v-1.65h-1.65v-6.95h1.65v-1.65h8.24v-1.3h-1.65v-6.95h1.65v-1.65h8.6v1.65h1.65v6.95h-1.65v1.65h-6.6v1.3h1.65v6.95h-1.65v1.65Z"/>
        </g>
      </g>
      <g id="_グループ_997" data-name="グループ 997">
        <g id="_パス_5093-3" data-name="パス 5093-3">
          <path class="cls-1" d="M315.55,41.08h-7.6v-1.65h-1.65v-5.95h1.65v-1.65h7.6v1.65h1.65v5.95h-1.65v1.65ZM327.09,34.48h-4.3v-1.65h-1.65v-1.65h-1.65v-3.3h-3.3v-1.65h-1.65v-1.65h-1.65v-7.6h1.65v-1.65h1.65v-1.65h3.3v-3.3h1.65v-1.65h1.65v-1.65h4.3v1.65h1.65v1.65h1.65v1.65h1.65v4.3h-1.65v3.3h-1.65v2.3h1.65v3.3h1.65v4.3h-1.65v1.65h-1.65v1.65h-1.65v1.65ZM308.95,31.18h-9.24v-1.65h-1.65v-5.95h1.65v-1.65h9.24v1.65h1.65v5.95h-1.65v1.65ZM308.95,19.64h-9.24v-1.65h-1.65v-5.95h1.65v-1.65h9.24v1.65h1.65v5.95h-1.65v1.65ZM315.55,9.74h-7.6v-1.65h-1.65V2.15h1.65V.5h7.6v1.65h1.65v5.95h-1.65v1.65Z"/>
          <path class="cls-2" d="M315.05,40.58v-1.65h1.65v-4.95h-1.65v-1.65h-6.6v1.65h-1.65v4.95h1.65v1.65h6.6M326.59,33.98v-1.65h1.65v-1.65h1.65v-1.65h1.65v-3.3h-1.65v-3.3h-1.65v-3.3h1.65v-3.3h1.65v-3.3h-1.65v-1.65h-1.65v-1.65h-1.65v-1.65h-3.3v1.65h-1.65v1.65h-1.65v3.3h-3.3v1.65h-1.65v1.65h-1.65v6.6h1.65v1.65h1.65v1.65h3.3v3.3h1.65v1.65h1.65v1.65h3.3M308.45,30.68v-1.65h1.65v-4.95h-1.65v-1.65h-8.24v1.65h-1.65v4.95h1.65v1.65h8.24M308.45,19.14v-1.65h1.65v-4.95h-1.65v-1.65h-8.24v1.65h-1.65v4.95h1.65v1.65h8.24M315.05,9.24v-1.65h1.65V2.65h-1.65v-1.65h-6.6v1.65h-1.65v4.95h1.65v1.65h6.6M316.05,41.58h-8.6v-1.65h-1.65v-6.95h1.65v-1.3h-8.24v-1.65h-1.65v-6.95h1.65v-1.65h10.24v1.65h1.65v6.95h-1.65v1.3h6.6v1.65h1.65v6.95h-1.65v1.65ZM327.59,34.98h-5.3v-1.65h-1.65v-1.65h-1.65v-3.3h-3.3v-1.65h-1.65v-1.65h-1.65v-8.6h1.65v-1.65h1.65v-1.65h3.3v-3.3h1.65v-1.65h1.65v-1.65h5.3v1.65h1.65v1.65h1.65v1.65h1.65v5.3h-1.65v3.3h-1.65v1.3h1.65v3.3h1.65v5.3h-1.65v1.65h-1.65v1.65h-1.65v1.65ZM309.45,20.14h-10.24v-1.65h-1.65v-6.95h1.65v-1.65h8.24v-1.3h-1.65V1.65h1.65V0h8.6v1.65h1.65v6.95h-1.65v1.65h-6.6v1.3h1.65v6.95h-1.65v1.65Z"/>
        </g>
        <g id="_パス_5094-3" data-name="パス 5094-3">
          <path class="cls-1" d="M210.39,80.65h-7.6v-1.65h-1.65v-5.95h1.65v-1.65h7.6v1.65h1.65v5.95h-1.65v1.65ZM221.94,74.05h-4.3v-1.65h-1.65v-1.65h-1.65v-3.3h-3.3v-1.65h-1.65v-1.65h-1.65v-7.6h1.65v-1.65h1.65v-1.65h3.3v-3.3h1.65v-1.65h1.65v-1.65h4.3v1.65h1.65v1.65h1.65v1.65h1.65v4.3h-1.65v3.3h-1.65v2.3h1.65v3.3h1.65v4.3h-1.65v1.65h-1.65v1.65h-1.65v1.65ZM203.8,70.76h-9.24v-1.65h-1.65v-5.95h1.65v-1.65h9.24v1.65h1.65v5.95h-1.65v1.65ZM203.8,59.21h-9.24v-1.65h-1.65v-5.95h1.65v-1.65h9.24v1.65h1.65v5.95h-1.65v1.65ZM210.39,49.32h-7.6v-1.65h-1.65v-5.95h1.65v-1.65h7.6v1.65h1.65v5.95h-1.65v1.65Z"/>
          <path class="cls-2" d="M209.89,80.15v-1.65h1.65v-4.95h-1.65v-1.65h-6.6v1.65h-1.65v4.95h1.65v1.65h6.6M221.44,73.55v-1.65h1.65v-1.65h1.65v-1.65h1.65v-3.3h-1.65v-3.3h-1.65v-3.3h1.65v-3.3h1.65v-3.3h-1.65v-1.65h-1.65v-1.65h-1.65v-1.65h-3.3v1.65h-1.65v1.65h-1.65v3.3h-3.3v1.65h-1.65v1.65h-1.65v6.6h1.65v1.65h1.65v1.65h3.3v3.3h1.65v1.65h1.65v1.65h3.3M203.3,70.26v-1.65h1.65v-4.95h-1.65v-1.65h-8.24v1.65h-1.65v4.95h1.65v1.65h8.24M203.3,58.71v-1.65h1.65v-4.95h-1.65v-1.65h-8.24v1.65h-1.65v4.95h1.65v1.65h8.24M209.89,48.82v-1.65h1.65v-4.95h-1.65v-1.65h-6.6v1.65h-1.65v4.95h1.65v1.65h6.6M210.89,81.15h-8.6v-1.65h-1.65v-6.95h1.65v-1.3h-8.24v-1.65h-1.65v-6.95h1.65v-1.65h10.24v1.65h1.65v6.95h-1.65v1.3h6.6v1.65h1.65v6.95h-1.65v1.65ZM222.44,74.55h-5.3v-1.65h-1.65v-1.65h-1.65v-3.3h-3.3v-1.65h-1.65v-1.65h-1.65v-8.6h1.65v-1.65h1.65v-1.65h3.3v-3.3h1.65v-1.65h1.65v-1.65h5.3v1.65h1.65v1.65h1.65v1.65h1.65v5.3h-1.65v3.3h-1.65v1.3h1.65v3.3h1.65v5.3h-1.65v1.65h-1.65v1.65h-1.65v1.65ZM204.3,59.71h-10.24v-1.65h-1.65v-6.95h1.65v-1.65h8.24v-1.3h-1.65v-6.95h1.65v-1.65h8.6v1.65h1.65v6.95h-1.65v1.65h-6.6v1.3h1.65v6.95h-1.65v1.65Z"/>
        </g>
        <g id="_パス_5096-3" data-name="パス 5096-3">
          <path class="cls-1" d="M17.99,94.5h-7.6v-1.65h-1.65v-5.95h1.65v-1.65h7.6v1.65h1.65v5.95h-1.65v1.65ZM29.53,87.9h-4.3v-1.65h-1.65v-1.65h-1.65v-3.3h-3.3v-1.65h-1.65v-1.65h-1.65v-7.6h1.65v-1.65h1.65v-1.65h3.3v-3.3h1.65v-1.65h1.65v-1.65h4.3v1.65h1.65v1.65h1.65v1.65h1.65v4.3h-1.65v3.3h-1.65v2.3h1.65v3.3h1.65v4.3h-1.65v1.65h-1.65v1.65h-1.65v1.65ZM11.39,84.61H2.15v-1.65H.5v-5.95h1.65v-1.65h9.24v1.65h1.65v5.95h-1.65v1.65ZM11.39,73.06H2.15v-1.65H.5v-5.95h1.65v-1.65h9.24v1.65h1.65v5.95h-1.65v1.65ZM17.99,63.17h-7.6v-1.65h-1.65v-5.95h1.65v-1.65h7.6v1.65h1.65v5.95h-1.65v1.65Z"/>
          <path class="cls-2" d="M17.49,94v-1.65h1.65v-4.95h-1.65v-1.65h-6.6v1.65h-1.65v4.95h1.65v1.65h6.6M29.03,87.4v-1.65h1.65v-1.65h1.65v-1.65h1.65v-3.3h-1.65v-3.3h-1.65v-3.3h1.65v-3.3h1.65v-3.3h-1.65v-1.65h-1.65v-1.65h-1.65v-1.65h-3.3v1.65h-1.65v1.65h-1.65v3.3h-3.3v1.65h-1.65v1.65h-1.65v6.6h1.65v1.65h1.65v1.65h3.3v3.3h1.65v1.65h1.65v1.65h3.3M10.89,84.11v-1.65h1.65v-4.95h-1.65v-1.65H2.65v1.65H1v4.95h1.65v1.65h8.24M10.89,72.56v-1.65h1.65v-4.95h-1.65v-1.65H2.65v1.65H1v4.95h1.65v1.65h8.24M17.49,62.67v-1.65h1.65v-4.95h-1.65v-1.65h-6.6v1.65h-1.65v4.95h1.65v1.65h6.6M18.49,95h-8.6v-1.65h-1.65v-6.95h1.65v-1.3H1.65v-1.65H0v-6.95h1.65v-1.65h10.24v1.65h1.65v6.95h-1.65v1.3h6.6v1.65h1.65v6.95h-1.65v1.65ZM30.03,88.4h-5.3v-1.65h-1.65v-1.65h-1.65v-3.3h-3.3v-1.65h-1.65v-1.65h-1.65v-8.6h1.65v-1.65h1.65v-1.65h3.3v-3.3h1.65v-1.65h1.65v-1.65h5.3v1.65h1.65v1.65h1.65v1.65h1.65v5.3h-1.65v3.3h-1.65v1.3h1.65v3.3h1.65v5.3h-1.65v1.65h-1.65v1.65h-1.65v1.65ZM11.89,73.56H1.65v-1.65H0v-6.95h1.65v-1.65h8.24v-1.3h-1.65v-6.95h1.65v-1.65h8.6v1.65h1.65v6.95h-1.65v1.65h-6.6v1.3h1.65v6.95h-1.65v1.65Z"/>
        </g>
        <g id="_パス_5095-3" data-name="パス 5095-3">
          <path class="cls-1" d="M125.25,54.92h-7.6v-1.65h-1.65v-5.95h1.65v-1.65h7.6v1.65h1.65v5.95h-1.65v1.65ZM136.79,48.33h-4.3v-1.65h-1.65v-1.65h-1.65v-3.3h-3.3v-1.65h-1.65v-1.65h-1.65v-7.6h1.65v-1.65h1.65v-1.65h3.3v-3.3h1.65v-1.65h1.65v-1.65h4.3v1.65h1.65v1.65h1.65v1.65h1.65v4.3h-1.65v3.3h-1.65v2.3h1.65v3.3h1.65v4.3h-1.65v1.65h-1.65v1.65h-1.65v1.65ZM118.65,45.03h-9.24v-1.65h-1.65v-5.95h1.65v-1.65h9.24v1.65h1.65v5.95h-1.65v1.65ZM118.65,33.49h-9.24v-1.65h-1.65v-5.95h1.65v-1.65h9.24v1.65h1.65v5.95h-1.65v1.65ZM125.25,23.59h-7.6v-1.65h-1.65v-5.95h1.65v-1.65h7.6v1.65h1.65v5.95h-1.65v1.65Z"/>
          <path class="cls-2" d="M124.75,54.42v-1.65h1.65v-4.95h-1.65v-1.65h-6.6v1.65h-1.65v4.95h1.65v1.65h6.6M136.29,47.83v-1.65h1.65v-1.65h1.65v-1.65h1.65v-3.3h-1.65v-3.3h-1.65v-3.3h1.65v-3.3h1.65v-3.3h-1.65v-1.65h-1.65v-1.65h-1.65v-1.65h-3.3v1.65h-1.65v1.65h-1.65v3.3h-3.3v1.65h-1.65v1.65h-1.65v6.6h1.65v1.65h1.65v1.65h3.3v3.3h1.65v1.65h1.65v1.65h3.3M118.15,44.53v-1.65h1.65v-4.95h-1.65v-1.65h-8.24v1.65h-1.65v4.95h1.65v1.65h8.24M118.15,32.99v-1.65h1.65v-4.95h-1.65v-1.65h-8.24v1.65h-1.65v4.95h1.65v1.65h8.24M124.75,23.09v-1.65h1.65v-4.95h-1.65v-1.65h-6.6v1.65h-1.65v4.95h1.65v1.65h6.6M125.75,55.42h-8.6v-1.65h-1.65v-6.95h1.65v-1.3h-8.24v-1.65h-1.65v-6.95h1.65v-1.65h10.24v1.65h1.65v6.95h-1.65v1.3h6.6v1.65h1.65v6.95h-1.65v1.65ZM137.29,48.83h-5.3v-1.65h-1.65v-1.65h-1.65v-3.3h-3.3v-1.65h-1.65v-1.65h-1.65v-8.6h1.65v-1.65h1.65v-1.65h3.3v-3.3h1.65v-1.65h1.65v-1.65h5.3v1.65h1.65v1.65h1.65v1.65h1.65v5.3h-1.65v3.3h-1.65v1.3h1.65v3.3h1.65v5.3h-1.65v1.65h-1.65v1.65h-1.65v1.65ZM119.15,33.99h-10.24v-1.65h-1.65v-6.95h1.65v-1.65h8.24v-1.3h-1.65v-6.95h1.65v-1.65h8.6v1.65h1.65v6.95h-1.65v1.65h-6.6v1.3h1.65v6.95h-1.65v1.65Z"/>
        </g>
      </g>
    </g>
  </g>
</svg>