<?xml version="1.0" encoding="UTF-8"?>
<svg id="_レイヤー_2" data-name="レイヤー 2" xmlns="http://www.w3.org/2000/svg" viewBox="0 0 1107.22 95">
  <defs>
    <style>
      .cls-1 {
        fill: #ffdc00;
      }

      .cls-1, .cls-2 {
        stroke-width: 0px;
      }

      .cls-2 {
        fill: #ffc400;
      }
    </style>
  </defs>
  <g id="_レイヤー_1-2" data-name="レイヤー 1">
    <g>
      <g id="_グループ_995" data-name="グループ 995">
        <g id="_パス_5093" data-name="パス 5093">
          <path class="cls-1" d="M24.59,41.08h-7.6v-1.65h-1.65v-5.95h1.65v-1.65h7.6v1.65h1.65v5.95h-1.65v1.65ZM9.74,34.48h-4.3v-1.65h-1.65v-1.65h-1.65v-1.65H.5v-4.3h1.65v-3.3h1.65v-2.3h-1.65v-3.3H.5v-4.3h1.65v-1.65h1.65v-1.65h1.65v-1.65h4.3v1.65h1.65v1.65h1.65v3.3h3.3v1.65h1.65v1.65h1.65v7.6h-1.65v1.65h-1.65v1.65h-3.3v3.3h-1.65v1.65h-1.65v1.65ZM32.83,31.18h-9.24v-1.65h-1.65v-5.95h1.65v-1.65h9.24v1.65h1.65v5.95h-1.65v1.65ZM32.83,19.64h-9.24v-1.65h-1.65v-5.95h1.65v-1.65h9.24v1.65h1.65v5.95h-1.65v1.65ZM24.59,9.74h-7.6v-1.65h-1.65V2.15h1.65V.5h7.6v1.65h1.65v5.95h-1.65v1.65Z"/>
          <path class="cls-2" d="M24.09,40.58v-1.65h1.65v-4.95h-1.65v-1.65h-6.6v1.65h-1.65v4.95h1.65v1.65h6.6M9.24,33.98v-1.65h1.65v-1.65h1.65v-3.3h3.3v-1.65h1.65v-1.65h1.65v-6.6h-1.65v-1.65h-1.65v-1.65h-3.3v-3.3h-1.65v-1.65h-1.65v-1.65h-3.3v1.65h-1.65v1.65h-1.65v1.65h-1.65v3.3h1.65v3.3h1.65v3.3h-1.65v3.3h-1.65v3.3h1.65v1.65h1.65v1.65h1.65v1.65h3.3M32.33,30.68v-1.65h1.65v-4.95h-1.65v-1.65h-8.24v1.65h-1.65v4.95h1.65v1.65h8.24M32.33,19.14v-1.65h1.65v-4.95h-1.65v-1.65h-8.24v1.65h-1.65v4.95h1.65v1.65h8.24M24.09,9.24v-1.65h1.65V2.65h-1.65v-1.65h-6.6v1.65h-1.65v4.95h1.65v1.65h6.6M25.09,41.58h-8.6v-1.65h-1.65v-6.95h1.65v-1.65h6.6v-1.3h-1.65v-6.95h1.65v-1.65h10.24v1.65h1.65v6.95h-1.65v1.65h-8.24v1.3h1.65v6.95h-1.65v1.65ZM10.24,34.98h-5.3v-1.65h-1.65v-1.65h-1.65v-1.65H0v-5.3h1.65v-3.3h1.65v-1.3h-1.65v-3.3H0v-5.3h1.65v-1.65h1.65v-1.65h1.65v-1.65h5.3v1.65h1.65v1.65h1.65v3.3h3.3v1.65h1.65v1.65h1.65v8.6h-1.65v1.65h-1.65v1.65h-3.3v3.3h-1.65v1.65h-1.65v1.65ZM33.33,20.14h-10.24v-1.65h-1.65v-6.95h1.65v-1.3h-6.6v-1.65h-1.65V1.65h1.65V0h8.6v1.65h1.65v6.95h-1.65v1.3h8.24v1.65h1.65v6.95h-1.65v1.65Z"/>
        </g>
        <g id="_パス_5094" data-name="パス 5094">
          <path class="cls-1" d="M129.74,80.65h-7.6v-1.65h-1.65v-5.95h1.65v-1.65h7.6v1.65h1.65v5.95h-1.65v1.65ZM114.89,74.05h-4.3v-1.65h-1.65v-1.65h-1.65v-1.65h-1.65v-4.3h1.65v-3.3h1.65v-2.3h-1.65v-3.3h-1.65v-4.3h1.65v-1.65h1.65v-1.65h1.65v-1.65h4.3v1.65h1.65v1.65h1.65v3.3h3.3v1.65h1.65v1.65h1.65v7.6h-1.65v1.65h-1.65v1.65h-3.3v3.3h-1.65v1.65h-1.65v1.65ZM137.98,70.76h-9.24v-1.65h-1.65v-5.95h1.65v-1.65h9.24v1.65h1.65v5.95h-1.65v1.65ZM137.98,59.21h-9.24v-1.65h-1.65v-5.95h1.65v-1.65h9.24v1.65h1.65v5.95h-1.65v1.65ZM129.74,49.32h-7.6v-1.65h-1.65v-5.95h1.65v-1.65h7.6v1.65h1.65v5.95h-1.65v1.65Z"/>
          <path class="cls-2" d="M129.24,80.15v-1.65h1.65v-4.95h-1.65v-1.65h-6.6v1.65h-1.65v4.95h1.65v1.65h6.6M114.39,73.55v-1.65h1.65v-1.65h1.65v-3.3h3.3v-1.65h1.65v-1.65h1.65v-6.6h-1.65v-1.65h-1.65v-1.65h-3.3v-3.3h-1.65v-1.65h-1.65v-1.65h-3.3v1.65h-1.65v1.65h-1.65v1.65h-1.65v3.3h1.65v3.3h1.65v3.3h-1.65v3.3h-1.65v3.3h1.65v1.65h1.65v1.65h1.65v1.65h3.3M137.48,70.26v-1.65h1.65v-4.95h-1.65v-1.65h-8.24v1.65h-1.65v4.95h1.65v1.65h8.24M137.48,58.71v-1.65h1.65v-4.95h-1.65v-1.65h-8.24v1.65h-1.65v4.95h1.65v1.65h8.24M129.24,48.82v-1.65h1.65v-4.95h-1.65v-1.65h-6.6v1.65h-1.65v4.95h1.65v1.65h6.6M130.24,81.15h-8.6v-1.65h-1.65v-6.95h1.65v-1.65h6.6v-1.3h-1.65v-6.95h1.65v-1.65h10.24v1.65h1.65v6.95h-1.65v1.65h-8.24v1.3h1.65v6.95h-1.65v1.65ZM115.39,74.55h-5.3v-1.65h-1.65v-1.65h-1.65v-1.65h-1.65v-5.3h1.65v-3.3h1.65v-1.3h-1.65v-3.3h-1.65v-5.3h1.65v-1.65h1.65v-1.65h1.65v-1.65h5.3v1.65h1.65v1.65h1.65v3.3h3.3v1.65h1.65v1.65h1.65v8.6h-1.65v1.65h-1.65v1.65h-3.3v3.3h-1.65v1.65h-1.65v1.65ZM138.48,59.71h-10.24v-1.65h-1.65v-6.95h1.65v-1.3h-6.6v-1.65h-1.65v-6.95h1.65v-1.65h8.6v1.65h1.65v6.95h-1.65v1.3h8.24v1.65h1.65v6.95h-1.65v1.65Z"/>
        </g>
        <g id="_パス_5096" data-name="パス 5096">
          <path class="cls-1" d="M322.14,94.5h-7.6v-1.65h-1.65v-5.95h1.65v-1.65h7.6v1.65h1.65v5.95h-1.65v1.65ZM307.3,87.9h-4.3v-1.65h-1.65v-1.65h-1.65v-1.65h-1.65v-4.3h1.65v-3.3h1.65v-2.3h-1.65v-3.3h-1.65v-4.3h1.65v-1.65h1.65v-1.65h1.65v-1.65h4.3v1.65h1.65v1.65h1.65v3.3h3.3v1.65h1.65v1.65h1.65v7.6h-1.65v1.65h-1.65v1.65h-3.3v3.3h-1.65v1.65h-1.65v1.65ZM330.39,84.61h-9.24v-1.65h-1.65v-5.95h1.65v-1.65h9.24v1.65h1.65v5.95h-1.65v1.65ZM330.39,73.06h-9.24v-1.65h-1.65v-5.95h1.65v-1.65h9.24v1.65h1.65v5.95h-1.65v1.65ZM322.14,63.17h-7.6v-1.65h-1.65v-5.95h1.65v-1.65h7.6v1.65h1.65v5.95h-1.65v1.65Z"/>
          <path class="cls-2" d="M321.64,94v-1.65h1.65v-4.95h-1.65v-1.65h-6.6v1.65h-1.65v4.95h1.65v1.65h6.6M306.8,87.4v-1.65h1.65v-1.65h1.65v-3.3h3.3v-1.65h1.65v-1.65h1.65v-6.6h-1.65v-1.65h-1.65v-1.65h-3.3v-3.3h-1.65v-1.65h-1.65v-1.65h-3.3v1.65h-1.65v1.65h-1.65v1.65h-1.65v3.3h1.65v3.3h1.65v3.3h-1.65v3.3h-1.65v3.3h1.65v1.65h1.65v1.65h1.65v1.65h3.3M329.89,84.11v-1.65h1.65v-4.95h-1.65v-1.65h-8.24v1.65h-1.65v4.95h1.65v1.65h8.24M329.89,72.56v-1.65h1.65v-4.95h-1.65v-1.65h-8.24v1.65h-1.65v4.95h1.65v1.65h8.24M321.64,62.67v-1.65h1.65v-4.95h-1.65v-1.65h-6.6v1.65h-1.65v4.95h1.65v1.65h6.6M322.64,95h-8.6v-1.65h-1.65v-6.95h1.65v-1.65h6.6v-1.3h-1.65v-6.95h1.65v-1.65h10.24v1.65h1.65v6.95h-1.65v1.65h-8.24v1.3h1.65v6.95h-1.65v1.65ZM307.8,88.4h-5.3v-1.65h-1.65v-1.65h-1.65v-1.65h-1.65v-5.3h1.65v-3.3h1.65v-1.3h-1.65v-3.3h-1.65v-5.3h1.65v-1.65h1.65v-1.65h1.65v-1.65h5.3v1.65h1.65v1.65h1.65v3.3h3.3v1.65h1.65v1.65h1.65v8.6h-1.65v1.65h-1.65v1.65h-3.3v3.3h-1.65v1.65h-1.65v1.65ZM330.89,73.56h-10.24v-1.65h-1.65v-6.95h1.65v-1.3h-6.6v-1.65h-1.65v-6.95h1.65v-1.65h8.6v1.65h1.65v6.95h-1.65v1.3h8.24v1.65h1.65v6.95h-1.65v1.65Z"/>
        </g>
        <g id="_パス_5095" data-name="パス 5095">
          <path class="cls-1" d="M214.88,54.92h-7.6v-1.65h-1.65v-5.95h1.65v-1.65h7.6v1.65h1.65v5.95h-1.65v1.65ZM200.04,48.33h-4.3v-1.65h-1.65v-1.65h-1.65v-1.65h-1.65v-4.3h1.65v-3.3h1.65v-2.3h-1.65v-3.3h-1.65v-4.3h1.65v-1.65h1.65v-1.65h1.65v-1.65h4.3v1.65h1.65v1.65h1.65v3.3h3.3v1.65h1.65v1.65h1.65v7.6h-1.65v1.65h-1.65v1.65h-3.3v3.3h-1.65v1.65h-1.65v1.65ZM223.13,45.03h-9.24v-1.65h-1.65v-5.95h1.65v-1.65h9.24v1.65h1.65v5.95h-1.65v1.65ZM223.13,33.49h-9.24v-1.65h-1.65v-5.95h1.65v-1.65h9.24v1.65h1.65v5.95h-1.65v1.65ZM214.88,23.59h-7.6v-1.65h-1.65v-5.95h1.65v-1.65h7.6v1.65h1.65v5.95h-1.65v1.65Z"/>
          <path class="cls-2" d="M214.38,54.42v-1.65h1.65v-4.95h-1.65v-1.65h-6.6v1.65h-1.65v4.95h1.65v1.65h6.6M199.54,47.83v-1.65h1.65v-1.65h1.65v-3.3h3.3v-1.65h1.65v-1.65h1.65v-6.6h-1.65v-1.65h-1.65v-1.65h-3.3v-3.3h-1.65v-1.65h-1.65v-1.65h-3.3v1.65h-1.65v1.65h-1.65v1.65h-1.65v3.3h1.65v3.3h1.65v3.3h-1.65v3.3h-1.65v3.3h1.65v1.65h1.65v1.65h1.65v1.65h3.3M222.63,44.53v-1.65h1.65v-4.95h-1.65v-1.65h-8.24v1.65h-1.65v4.95h1.65v1.65h8.24M222.63,32.99v-1.65h1.65v-4.95h-1.65v-1.65h-8.24v1.65h-1.65v4.95h1.65v1.65h8.24M214.38,23.09v-1.65h1.65v-4.95h-1.65v-1.65h-6.6v1.65h-1.65v4.95h1.65v1.65h6.6M215.38,55.42h-8.6v-1.65h-1.65v-6.95h1.65v-1.65h6.6v-1.3h-1.65v-6.95h1.65v-1.65h10.24v1.65h1.65v6.95h-1.65v1.65h-8.24v1.3h1.65v6.95h-1.65v1.65ZM200.54,48.83h-5.3v-1.65h-1.65v-1.65h-1.65v-1.65h-1.65v-5.3h1.65v-3.3h1.65v-1.3h-1.65v-3.3h-1.65v-5.3h1.65v-1.65h1.65v-1.65h1.65v-1.65h5.3v1.65h1.65v1.65h1.65v3.3h3.3v1.65h1.65v1.65h1.65v8.6h-1.65v1.65h-1.65v1.65h-3.3v3.3h-1.65v1.65h-1.65v1.65ZM223.63,33.99h-10.24v-1.65h-1.65v-6.95h1.65v-1.3h-6.6v-1.65h-1.65v-6.95h1.65v-1.65h8.6v1.65h1.65v6.95h-1.65v1.3h8.24v1.65h1.65v6.95h-1.65v1.65Z"/>
        </g>
      </g>
      <g id="_グループ_996" data-name="グループ 996">
        <g id="_パス_5093-2" data-name="パス 5093-2">
          <path class="cls-1" d="M411.93,41.08h-7.6v-1.65h-1.65v-5.95h1.65v-1.65h7.6v1.65h1.65v5.95h-1.65v1.65ZM397.09,34.48h-4.3v-1.65h-1.65v-1.65h-1.65v-1.65h-1.65v-4.3h1.65v-3.3h1.65v-2.3h-1.65v-3.3h-1.65v-4.3h1.65v-1.65h1.65v-1.65h1.65v-1.65h4.3v1.65h1.65v1.65h1.65v3.3h3.3v1.65h1.65v1.65h1.65v7.6h-1.65v1.65h-1.65v1.65h-3.3v3.3h-1.65v1.65h-1.65v1.65ZM420.17,31.18h-9.24v-1.65h-1.65v-5.95h1.65v-1.65h9.24v1.65h1.65v5.95h-1.65v1.65ZM420.17,19.64h-9.24v-1.65h-1.65v-5.95h1.65v-1.65h9.24v1.65h1.65v5.95h-1.65v1.65ZM411.93,9.74h-7.6v-1.65h-1.65V2.15h1.65V.5h7.6v1.65h1.65v5.95h-1.65v1.65Z"/>
          <path class="cls-2" d="M411.43,40.58v-1.65h1.65v-4.95h-1.65v-1.65h-6.6v1.65h-1.65v4.95h1.65v1.65h6.6M396.59,33.98v-1.65h1.65v-1.65h1.65v-3.3h3.3v-1.65h1.65v-1.65h1.65v-6.6h-1.65v-1.65h-1.65v-1.65h-3.3v-3.3h-1.65v-1.65h-1.65v-1.65h-3.3v1.65h-1.65v1.65h-1.65v1.65h-1.65v3.3h1.65v3.3h1.65v3.3h-1.65v3.3h-1.65v3.3h1.65v1.65h1.65v1.65h1.65v1.65h3.3M419.67,30.68v-1.65h1.65v-4.95h-1.65v-1.65h-8.24v1.65h-1.65v4.95h1.65v1.65h8.24M419.67,19.14v-1.65h1.65v-4.95h-1.65v-1.65h-8.24v1.65h-1.65v4.95h1.65v1.65h8.24M411.43,9.24v-1.65h1.65V2.65h-1.65v-1.65h-6.6v1.65h-1.65v4.95h1.65v1.65h6.6M412.43,41.58h-8.6v-1.65h-1.65v-6.95h1.65v-1.65h6.6v-1.3h-1.65v-6.95h1.65v-1.65h10.24v1.65h1.65v6.95h-1.65v1.65h-8.24v1.3h1.65v6.95h-1.65v1.65ZM397.59,34.98h-5.3v-1.65h-1.65v-1.65h-1.65v-1.65h-1.65v-5.3h1.65v-3.3h1.65v-1.3h-1.65v-3.3h-1.65v-5.3h1.65v-1.65h1.65v-1.65h1.65v-1.65h5.3v1.65h1.65v1.65h1.65v3.3h3.3v1.65h1.65v1.65h1.65v8.6h-1.65v1.65h-1.65v1.65h-3.3v3.3h-1.65v1.65h-1.65v1.65ZM420.67,20.14h-10.24v-1.65h-1.65v-6.95h1.65v-1.3h-6.6v-1.65h-1.65V1.65h1.65V0h8.6v1.65h1.65v6.95h-1.65v1.3h8.24v1.65h1.65v6.95h-1.65v1.65Z"/>
        </g>
        <g id="_パス_5094-2" data-name="パス 5094-2">
          <path class="cls-1" d="M517.08,80.65h-7.6v-1.65h-1.65v-5.95h1.65v-1.65h7.6v1.65h1.65v5.95h-1.65v1.65ZM502.24,74.05h-4.3v-1.65h-1.65v-1.65h-1.65v-1.65h-1.65v-4.3h1.65v-3.3h1.65v-2.3h-1.65v-3.3h-1.65v-4.3h1.65v-1.65h1.65v-1.65h1.65v-1.65h4.3v1.65h1.65v1.65h1.65v3.3h3.3v1.65h1.65v1.65h1.65v7.6h-1.65v1.65h-1.65v1.65h-3.3v3.3h-1.65v1.65h-1.65v1.65ZM525.32,70.76h-9.24v-1.65h-1.65v-5.95h1.65v-1.65h9.24v1.65h1.65v5.95h-1.65v1.65ZM525.32,59.21h-9.24v-1.65h-1.65v-5.95h1.65v-1.65h9.24v1.65h1.65v5.95h-1.65v1.65ZM517.08,49.32h-7.6v-1.65h-1.65v-5.95h1.65v-1.65h7.6v1.65h1.65v5.95h-1.65v1.65Z"/>
          <path class="cls-2" d="M516.58,80.15v-1.65h1.65v-4.95h-1.65v-1.65h-6.6v1.65h-1.65v4.95h1.65v1.65h6.6M501.74,73.55v-1.65h1.65v-1.65h1.65v-3.3h3.3v-1.65h1.65v-1.65h1.65v-6.6h-1.65v-1.65h-1.65v-1.65h-3.3v-3.3h-1.65v-1.65h-1.65v-1.65h-3.3v1.65h-1.65v1.65h-1.65v1.65h-1.65v3.3h1.65v3.3h1.65v3.3h-1.65v3.3h-1.65v3.3h1.65v1.65h1.65v1.65h1.65v1.65h3.3M524.82,70.26v-1.65h1.65v-4.95h-1.65v-1.65h-8.24v1.65h-1.65v4.95h1.65v1.65h8.24M524.82,58.71v-1.65h1.65v-4.95h-1.65v-1.65h-8.24v1.65h-1.65v4.95h1.65v1.65h8.24M516.58,48.82v-1.65h1.65v-4.95h-1.65v-1.65h-6.6v1.65h-1.65v4.95h1.65v1.65h6.6M517.58,81.15h-8.6v-1.65h-1.65v-6.95h1.65v-1.65h6.6v-1.3h-1.65v-6.95h1.65v-1.65h10.24v1.65h1.65v6.95h-1.65v1.65h-8.24v1.3h1.65v6.95h-1.65v1.65ZM502.74,74.55h-5.3v-1.65h-1.65v-1.65h-1.65v-1.65h-1.65v-5.3h1.65v-3.3h1.65v-1.3h-1.65v-3.3h-1.65v-5.3h1.65v-1.65h1.65v-1.65h1.65v-1.65h5.3v1.65h1.65v1.65h1.65v3.3h3.3v1.65h1.65v1.65h1.65v8.6h-1.65v1.65h-1.65v1.65h-3.3v3.3h-1.65v1.65h-1.65v1.65ZM525.82,59.71h-10.24v-1.65h-1.65v-6.95h1.65v-1.3h-6.6v-1.65h-1.65v-6.95h1.65v-1.65h8.6v1.65h1.65v6.95h-1.65v1.3h8.24v1.65h1.65v6.95h-1.65v1.65Z"/>
        </g>
        <g id="_パス_5096-2" data-name="パス 5096-2">
          <path class="cls-1" d="M709.48,94.5h-7.6v-1.65h-1.65v-5.95h1.65v-1.65h7.6v1.65h1.65v5.95h-1.65v1.65ZM694.64,87.9h-4.3v-1.65h-1.65v-1.65h-1.65v-1.65h-1.65v-4.3h1.65v-3.3h1.65v-2.3h-1.65v-3.3h-1.65v-4.3h1.65v-1.65h1.65v-1.65h1.65v-1.65h4.3v1.65h1.65v1.65h1.65v3.3h3.3v1.65h1.65v1.65h1.65v7.6h-1.65v1.65h-1.65v1.65h-3.3v3.3h-1.65v1.65h-1.65v1.65ZM717.73,84.61h-9.24v-1.65h-1.65v-5.95h1.65v-1.65h9.24v1.65h1.65v5.95h-1.65v1.65ZM717.73,73.06h-9.24v-1.65h-1.65v-5.95h1.65v-1.65h9.24v1.65h1.65v5.95h-1.65v1.65ZM709.48,63.17h-7.6v-1.65h-1.65v-5.95h1.65v-1.65h7.6v1.65h1.65v5.95h-1.65v1.65Z"/>
          <path class="cls-2" d="M708.98,94v-1.65h1.65v-4.95h-1.65v-1.65h-6.6v1.65h-1.65v4.95h1.65v1.65h6.6M694.14,87.4v-1.65h1.65v-1.65h1.65v-3.3h3.3v-1.65h1.65v-1.65h1.65v-6.6h-1.65v-1.65h-1.65v-1.65h-3.3v-3.3h-1.65v-1.65h-1.65v-1.65h-3.3v1.65h-1.65v1.65h-1.65v1.65h-1.65v3.3h1.65v3.3h1.65v3.3h-1.65v3.3h-1.65v3.3h1.65v1.65h1.65v1.65h1.65v1.65h3.3M717.23,84.11v-1.65h1.65v-4.95h-1.65v-1.65h-8.24v1.65h-1.65v4.95h1.65v1.65h8.24M717.23,72.56v-1.65h1.65v-4.95h-1.65v-1.65h-8.24v1.65h-1.65v4.95h1.65v1.65h8.24M708.98,62.67v-1.65h1.65v-4.95h-1.65v-1.65h-6.6v1.65h-1.65v4.95h1.65v1.65h6.6M709.98,95h-8.6v-1.65h-1.65v-6.95h1.65v-1.65h6.6v-1.3h-1.65v-6.95h1.65v-1.65h10.24v1.65h1.65v6.95h-1.65v1.65h-8.24v1.3h1.65v6.95h-1.65v1.65ZM695.14,88.4h-5.3v-1.65h-1.65v-1.65h-1.65v-1.65h-1.65v-5.3h1.65v-3.3h1.65v-1.3h-1.65v-3.3h-1.65v-5.3h1.65v-1.65h1.65v-1.65h1.65v-1.65h5.3v1.65h1.65v1.65h1.65v3.3h3.3v1.65h1.65v1.65h1.65v8.6h-1.65v1.65h-1.65v1.65h-3.3v3.3h-1.65v1.65h-1.65v1.65ZM718.23,73.56h-10.24v-1.65h-1.65v-6.95h1.65v-1.3h-6.6v-1.65h-1.65v-6.95h1.65v-1.65h8.6v1.65h1.65v6.95h-1.65v1.3h8.24v1.65h1.65v6.95h-1.65v1.65Z"/>
        </g>
        <g id="_パス_5095-2" data-name="パス 5095-2">
          <path class="cls-1" d="M602.23,54.92h-7.6v-1.65h-1.65v-5.95h1.65v-1.65h7.6v1.65h1.65v5.95h-1.65v1.65ZM587.39,48.33h-4.3v-1.65h-1.65v-1.65h-1.65v-1.65h-1.65v-4.3h1.65v-3.3h1.65v-2.3h-1.65v-3.3h-1.65v-4.3h1.65v-1.65h1.65v-1.65h1.65v-1.65h4.3v1.65h1.65v1.65h1.65v3.3h3.3v1.65h1.65v1.65h1.65v7.6h-1.65v1.65h-1.65v1.65h-3.3v3.3h-1.65v1.65h-1.65v1.65ZM610.47,45.03h-9.24v-1.65h-1.65v-5.95h1.65v-1.65h9.24v1.65h1.65v5.95h-1.65v1.65ZM610.47,33.49h-9.24v-1.65h-1.65v-5.95h1.65v-1.65h9.24v1.65h1.65v5.95h-1.65v1.65ZM602.23,23.59h-7.6v-1.65h-1.65v-5.95h1.65v-1.65h7.6v1.65h1.65v5.95h-1.65v1.65Z"/>
          <path class="cls-2" d="M601.73,54.42v-1.65h1.65v-4.95h-1.65v-1.65h-6.6v1.65h-1.65v4.95h1.65v1.65h6.6M586.89,47.83v-1.65h1.65v-1.65h1.65v-3.3h3.3v-1.65h1.65v-1.65h1.65v-6.6h-1.65v-1.65h-1.65v-1.65h-3.3v-3.3h-1.65v-1.65h-1.65v-1.65h-3.3v1.65h-1.65v1.65h-1.65v1.65h-1.65v3.3h1.65v3.3h1.65v3.3h-1.65v3.3h-1.65v3.3h1.65v1.65h1.65v1.65h1.65v1.65h3.3M609.97,44.53v-1.65h1.65v-4.95h-1.65v-1.65h-8.24v1.65h-1.65v4.95h1.65v1.65h8.24M609.97,32.99v-1.65h1.65v-4.95h-1.65v-1.65h-8.24v1.65h-1.65v4.95h1.65v1.65h8.24M601.73,23.09v-1.65h1.65v-4.95h-1.65v-1.65h-6.6v1.65h-1.65v4.95h1.65v1.65h6.6M602.73,55.42h-8.6v-1.65h-1.65v-6.95h1.65v-1.65h6.6v-1.3h-1.65v-6.95h1.65v-1.65h10.24v1.65h1.65v6.95h-1.65v1.65h-8.24v1.3h1.65v6.95h-1.65v1.65ZM587.89,48.83h-5.3v-1.65h-1.65v-1.65h-1.65v-1.65h-1.65v-5.3h1.65v-3.3h1.65v-1.3h-1.65v-3.3h-1.65v-5.3h1.65v-1.65h1.65v-1.65h1.65v-1.65h5.3v1.65h1.65v1.65h1.65v3.3h3.3v1.65h1.65v1.65h1.65v8.6h-1.65v1.65h-1.65v1.65h-3.3v3.3h-1.65v1.65h-1.65v1.65ZM610.97,33.99h-10.24v-1.65h-1.65v-6.95h1.65v-1.3h-6.6v-1.65h-1.65v-6.95h1.65v-1.65h8.6v1.65h1.65v6.95h-1.65v1.3h8.24v1.65h1.65v6.95h-1.65v1.65Z"/>
        </g>
      </g>
      <g id="_グループ_997" data-name="グループ 997">
        <g id="_パス_5093-3" data-name="パス 5093-3">
          <path class="cls-1" d="M799.27,41.08h-7.6v-1.65h-1.65v-5.95h1.65v-1.65h7.6v1.65h1.65v5.95h-1.65v1.65ZM784.43,34.48h-4.3v-1.65h-1.65v-1.65h-1.65v-1.65h-1.65v-4.3h1.65v-3.3h1.65v-2.3h-1.65v-3.3h-1.65v-4.3h1.65v-1.65h1.65v-1.65h1.65v-1.65h4.3v1.65h1.65v1.65h1.65v3.3h3.3v1.65h1.65v1.65h1.65v7.6h-1.65v1.65h-1.65v1.65h-3.3v3.3h-1.65v1.65h-1.65v1.65ZM807.52,31.18h-9.24v-1.65h-1.65v-5.95h1.65v-1.65h9.24v1.65h1.65v5.95h-1.65v1.65ZM807.52,19.64h-9.24v-1.65h-1.65v-5.95h1.65v-1.65h9.24v1.65h1.65v5.95h-1.65v1.65ZM799.27,9.74h-7.6v-1.65h-1.65V2.15h1.65V.5h7.6v1.65h1.65v5.95h-1.65v1.65Z"/>
          <path class="cls-2" d="M798.77,40.58v-1.65h1.65v-4.95h-1.65v-1.65h-6.6v1.65h-1.65v4.95h1.65v1.65h6.6M783.93,33.98v-1.65h1.65v-1.65h1.65v-3.3h3.3v-1.65h1.65v-1.65h1.65v-6.6h-1.65v-1.65h-1.65v-1.65h-3.3v-3.3h-1.65v-1.65h-1.65v-1.65h-3.3v1.65h-1.65v1.65h-1.65v1.65h-1.65v3.3h1.65v3.3h1.65v3.3h-1.65v3.3h-1.65v3.3h1.65v1.65h1.65v1.65h1.65v1.65h3.3M807.02,30.68v-1.65h1.65v-4.95h-1.65v-1.65h-8.24v1.65h-1.65v4.95h1.65v1.65h8.24M807.02,19.14v-1.65h1.65v-4.95h-1.65v-1.65h-8.24v1.65h-1.65v4.95h1.65v1.65h8.24M798.77,9.24v-1.65h1.65V2.65h-1.65v-1.65h-6.6v1.65h-1.65v4.95h1.65v1.65h6.6M799.77,41.58h-8.6v-1.65h-1.65v-6.95h1.65v-1.65h6.6v-1.3h-1.65v-6.95h1.65v-1.65h10.24v1.65h1.65v6.95h-1.65v1.65h-8.24v1.3h1.65v6.95h-1.65v1.65ZM784.93,34.98h-5.3v-1.65h-1.65v-1.65h-1.65v-1.65h-1.65v-5.3h1.65v-3.3h1.65v-1.3h-1.65v-3.3h-1.65v-5.3h1.65v-1.65h1.65v-1.65h1.65v-1.65h5.3v1.65h1.65v1.65h1.65v3.3h3.3v1.65h1.65v1.65h1.65v8.6h-1.65v1.65h-1.65v1.65h-3.3v3.3h-1.65v1.65h-1.65v1.65ZM808.02,20.14h-10.24v-1.65h-1.65v-6.95h1.65v-1.3h-6.6v-1.65h-1.65V1.65h1.65V0h8.6v1.65h1.65v6.95h-1.65v1.3h8.24v1.65h1.65v6.95h-1.65v1.65Z"/>
        </g>
        <g id="_パス_5094-3" data-name="パス 5094-3">
          <path class="cls-1" d="M904.42,80.65h-7.6v-1.65h-1.65v-5.95h1.65v-1.65h7.6v1.65h1.65v5.95h-1.65v1.65ZM889.58,74.05h-4.3v-1.65h-1.65v-1.65h-1.65v-1.65h-1.65v-4.3h1.65v-3.3h1.65v-2.3h-1.65v-3.3h-1.65v-4.3h1.65v-1.65h1.65v-1.65h1.65v-1.65h4.3v1.65h1.65v1.65h1.65v3.3h3.3v1.65h1.65v1.65h1.65v7.6h-1.65v1.65h-1.65v1.65h-3.3v3.3h-1.65v1.65h-1.65v1.65ZM912.67,70.76h-9.24v-1.65h-1.65v-5.95h1.65v-1.65h9.24v1.65h1.65v5.95h-1.65v1.65ZM912.67,59.21h-9.24v-1.65h-1.65v-5.95h1.65v-1.65h9.24v1.65h1.65v5.95h-1.65v1.65ZM904.42,49.32h-7.6v-1.65h-1.65v-5.95h1.65v-1.65h7.6v1.65h1.65v5.95h-1.65v1.65Z"/>
          <path class="cls-2" d="M903.92,80.15v-1.65h1.65v-4.95h-1.65v-1.65h-6.6v1.65h-1.65v4.95h1.65v1.65h6.6M889.08,73.55v-1.65h1.65v-1.65h1.65v-3.3h3.3v-1.65h1.65v-1.65h1.65v-6.6h-1.65v-1.65h-1.65v-1.65h-3.3v-3.3h-1.65v-1.65h-1.65v-1.65h-3.3v1.65h-1.65v1.65h-1.65v1.65h-1.65v3.3h1.65v3.3h1.65v3.3h-1.65v3.3h-1.65v3.3h1.65v1.65h1.65v1.65h1.65v1.65h3.3M912.17,70.26v-1.65h1.65v-4.95h-1.65v-1.65h-8.24v1.65h-1.65v4.95h1.65v1.65h8.24M912.17,58.71v-1.65h1.65v-4.95h-1.65v-1.65h-8.24v1.65h-1.65v4.95h1.65v1.65h8.24M903.92,48.82v-1.65h1.65v-4.95h-1.65v-1.65h-6.6v1.65h-1.65v4.95h1.65v1.65h6.6M904.92,81.15h-8.6v-1.65h-1.65v-6.95h1.65v-1.65h6.6v-1.3h-1.65v-6.95h1.65v-1.65h10.24v1.65h1.65v6.95h-1.65v1.65h-8.24v1.3h1.65v6.95h-1.65v1.65ZM890.08,74.55h-5.3v-1.65h-1.65v-1.65h-1.65v-1.65h-1.65v-5.3h1.65v-3.3h1.65v-1.3h-1.65v-3.3h-1.65v-5.3h1.65v-1.65h1.65v-1.65h1.65v-1.65h5.3v1.65h1.65v1.65h1.65v3.3h3.3v1.65h1.65v1.65h1.65v8.6h-1.65v1.65h-1.65v1.65h-3.3v3.3h-1.65v1.65h-1.65v1.65ZM913.17,59.71h-10.24v-1.65h-1.65v-6.95h1.65v-1.3h-6.6v-1.65h-1.65v-6.95h1.65v-1.65h8.6v1.65h1.65v6.95h-1.65v1.3h8.24v1.65h1.65v6.95h-1.65v1.65Z"/>
        </g>
        <g id="_パス_5096-3" data-name="パス 5096-3">
          <path class="cls-1" d="M1096.83,94.5h-7.6v-1.65h-1.65v-5.95h1.65v-1.65h7.6v1.65h1.65v5.95h-1.65v1.65ZM1081.99,87.9h-4.3v-1.65h-1.65v-1.65h-1.65v-1.65h-1.65v-4.3h1.65v-3.3h1.65v-2.3h-1.65v-3.3h-1.65v-4.3h1.65v-1.65h1.65v-1.65h1.65v-1.65h4.3v1.65h1.65v1.65h1.65v3.3h3.3v1.65h1.65v1.65h1.65v7.6h-1.65v1.65h-1.65v1.65h-3.3v3.3h-1.65v1.65h-1.65v1.65ZM1105.07,84.61h-9.24v-1.65h-1.65v-5.95h1.65v-1.65h9.24v1.65h1.65v5.95h-1.65v1.65ZM1105.07,73.06h-9.24v-1.65h-1.65v-5.95h1.65v-1.65h9.24v1.65h1.65v5.95h-1.65v1.65ZM1096.83,63.17h-7.6v-1.65h-1.65v-5.95h1.65v-1.65h7.6v1.65h1.65v5.95h-1.65v1.65Z"/>
          <path class="cls-2" d="M1096.33,94v-1.65h1.65v-4.95h-1.65v-1.65h-6.6v1.65h-1.65v4.95h1.65v1.65h6.6M1081.49,87.4v-1.65h1.65v-1.65h1.65v-3.3h3.3v-1.65h1.65v-1.65h1.65v-6.6h-1.65v-1.65h-1.65v-1.65h-3.3v-3.3h-1.65v-1.65h-1.65v-1.65h-3.3v1.65h-1.65v1.65h-1.65v1.65h-1.65v3.3h1.65v3.3h1.65v3.3h-1.65v3.3h-1.65v3.3h1.65v1.65h1.65v1.65h1.65v1.65h3.3M1104.57,84.11v-1.65h1.65v-4.95h-1.65v-1.65h-8.24v1.65h-1.65v4.95h1.65v1.65h8.24M1104.57,72.56v-1.65h1.65v-4.95h-1.65v-1.65h-8.24v1.65h-1.65v4.95h1.65v1.65h8.24M1096.33,62.67v-1.65h1.65v-4.95h-1.65v-1.65h-6.6v1.65h-1.65v4.95h1.65v1.65h6.6M1097.33,95h-8.6v-1.65h-1.65v-6.95h1.65v-1.65h6.6v-1.3h-1.65v-6.95h1.65v-1.65h10.24v1.65h1.65v6.95h-1.65v1.65h-8.24v1.3h1.65v6.95h-1.65v1.65ZM1082.49,88.4h-5.3v-1.65h-1.65v-1.65h-1.65v-1.65h-1.65v-5.3h1.65v-3.3h1.65v-1.3h-1.65v-3.3h-1.65v-5.3h1.65v-1.65h1.65v-1.65h1.65v-1.65h5.3v1.65h1.65v1.65h1.65v3.3h3.3v1.65h1.65v1.65h1.65v8.6h-1.65v1.65h-1.65v1.65h-3.3v3.3h-1.65v1.65h-1.65v1.65ZM1105.57,73.56h-10.24v-1.65h-1.65v-6.95h1.65v-1.3h-6.6v-1.65h-1.65v-6.95h1.65v-1.65h8.6v1.65h1.65v6.95h-1.65v1.3h8.24v1.65h1.65v6.95h-1.65v1.65Z"/>
        </g>
        <g id="_パス_5095-3" data-name="パス 5095-3">
          <path class="cls-1" d="M989.57,54.92h-7.6v-1.65h-1.65v-5.95h1.65v-1.65h7.6v1.65h1.65v5.95h-1.65v1.65ZM974.73,48.33h-4.3v-1.65h-1.65v-1.65h-1.65v-1.65h-1.65v-4.3h1.65v-3.3h1.65v-2.3h-1.65v-3.3h-1.65v-4.3h1.65v-1.65h1.65v-1.65h1.65v-1.65h4.3v1.65h1.65v1.65h1.65v3.3h3.3v1.65h1.65v1.65h1.65v7.6h-1.65v1.65h-1.65v1.65h-3.3v3.3h-1.65v1.65h-1.65v1.65ZM997.81,45.03h-9.24v-1.65h-1.65v-5.95h1.65v-1.65h9.24v1.65h1.65v5.95h-1.65v1.65ZM997.81,33.49h-9.24v-1.65h-1.65v-5.95h1.65v-1.65h9.24v1.65h1.65v5.95h-1.65v1.65ZM989.57,23.59h-7.6v-1.65h-1.65v-5.95h1.65v-1.65h7.6v1.65h1.65v5.95h-1.65v1.65Z"/>
          <path class="cls-2" d="M989.07,54.42v-1.65h1.65v-4.95h-1.65v-1.65h-6.6v1.65h-1.65v4.95h1.65v1.65h6.6M974.23,47.83v-1.65h1.65v-1.65h1.65v-3.3h3.3v-1.65h1.65v-1.65h1.65v-6.6h-1.65v-1.65h-1.65v-1.65h-3.3v-3.3h-1.65v-1.65h-1.65v-1.65h-3.3v1.65h-1.65v1.65h-1.65v1.65h-1.65v3.3h1.65v3.3h1.65v3.3h-1.65v3.3h-1.65v3.3h1.65v1.65h1.65v1.65h1.65v1.65h3.3M997.31,44.53v-1.65h1.65v-4.95h-1.65v-1.65h-8.24v1.65h-1.65v4.95h1.65v1.65h8.24M997.31,32.99v-1.65h1.65v-4.95h-1.65v-1.65h-8.24v1.65h-1.65v4.95h1.65v1.65h8.24M989.07,23.09v-1.65h1.65v-4.95h-1.65v-1.65h-6.6v1.65h-1.65v4.95h1.65v1.65h6.6M990.07,55.42h-8.6v-1.65h-1.65v-6.95h1.65v-1.65h6.6v-1.3h-1.65v-6.95h1.65v-1.65h10.24v1.65h1.65v6.95h-1.65v1.65h-8.24v1.3h1.65v6.95h-1.65v1.65ZM975.23,48.83h-5.3v-1.65h-1.65v-1.65h-1.65v-1.65h-1.65v-5.3h1.65v-3.3h1.65v-1.3h-1.65v-3.3h-1.65v-5.3h1.65v-1.65h1.65v-1.65h1.65v-1.65h5.3v1.65h1.65v1.65h1.65v3.3h3.3v1.65h1.65v1.65h1.65v8.6h-1.65v1.65h-1.65v1.65h-3.3v3.3h-1.65v1.65h-1.65v1.65ZM998.31,33.99h-10.24v-1.65h-1.65v-6.95h1.65v-1.3h-6.6v-1.65h-1.65v-6.95h1.65v-1.65h8.6v1.65h1.65v6.95h-1.65v1.3h8.24v1.65h1.65v6.95h-1.65v1.65Z"/>
        </g>
      </g>
    </g>
  </g>
</svg>