<?xml version="1.0" encoding="utf-8"?>
<!-- Generator: Adobe Illustrator 27.9.0, SVG Export Plug-In . SVG Version: 6.00 Build 0)  -->
<svg version="1.1" id="_レイヤー_2" xmlns="http://www.w3.org/2000/svg" xmlns:xlink="http://www.w3.org/1999/xlink" x="0px"
	 y="0px" viewBox="0 0 504.1 404" style="enable-background:new 0 0 504.1 404;" xml:space="preserve">
<style type="text/css">
	.st0{fill:#FFDC00;}
	.st1{fill:#FFFFFF;}
</style>
<g id="_レイヤー_1-2">
	<g>
		<path class="st0" d="M272.7,54.2L272.7,54.2c0,0-70.9,71.6-149.9,58.7c-122.7-20-159,139-83.7,225
			c43.5,49.7,149.2,89.8,292.7,30.9c140.4-57.6,80.9-146.2,145.9-241.5C580.3-23.3,356.3-30.3,272.7,54.2z"/>
		<g>
			<path class="st1" d="M117.8,224.2c-1.4,0.2-2.7-0.2-3.9-1.1s-1.8-2-2-3.4c-0.2-2-0.5-4.3-0.8-6.8s-0.7-5.1-1.1-7.8
				c-3.5,0.4-6.8,0.8-10,1.2s-6,0.8-8.3,1.1c-1.4,0.2-2.7-0.2-3.8-1.1c-1.1-0.9-1.8-2.1-2-3.5c-0.1-1.4,0.2-2.7,1.2-3.9
				s2.1-1.8,3.5-1.9c2-0.2,4.7-0.5,7.9-0.9c3.2-0.3,6.6-0.7,10.2-1.2c-0.1-1.1-0.3-2.2-0.4-3.3s-0.3-2.2-0.5-3.2
				c-2.3,0.3-4.6,0.6-6.7,0.9c-2.2,0.2-4,0.5-5.6,0.7c-1.4,0.2-2.7-0.2-3.9-1.1s-1.8-2.1-1.9-3.5c-0.1-1.4,0.3-2.7,1.2-3.8
				c0.9-1.1,2.1-1.8,3.5-1.9c1.3-0.1,3-0.3,5.1-0.5c2.1-0.2,4.4-0.5,6.8-0.8c-0.2-1.2-0.3-2.4-0.5-3.5c-0.2-1.1-0.3-2.1-0.5-2.9
				c-0.2-1.4,0.2-2.7,1.1-3.9s2.1-1.8,3.5-2c1.4-0.2,2.7,0.2,3.9,1.1s1.8,2,1.9,3.5c0.1,0.9,0.2,1.8,0.4,2.9s0.3,2.3,0.4,3.6
				c2.3-0.3,4.4-0.5,6.4-0.8s3.7-0.4,5.2-0.6c1.5-0.2,2.7,0.1,3.8,1.1c1.1,0.9,1.7,2.1,1.9,3.6c0.1,1.4-0.2,2.7-1.1,3.9
				s-2.1,1.7-3.5,1.8c-1.4,0.1-3.1,0.2-5,0.5c-1.9,0.2-4,0.4-6.2,0.7c0.1,1,0.3,2.1,0.4,3.2c0.2,1.1,0.3,2.2,0.4,3.3
				c3.4-0.4,6.6-0.9,9.5-1.2s5.4-0.6,7.2-0.8c1.4-0.2,2.7,0.2,3.8,1.1c1.1,0.9,1.8,2.1,1.9,3.5c0.2,1.4-0.2,2.7-1.1,3.8
				c-0.9,1.1-2.1,1.8-3.5,1.9c-1.9,0.2-4.3,0.4-7.1,0.8c-2.9,0.3-5.9,0.7-9.2,1c0.4,2.8,0.8,5.4,1.2,7.9c0.4,2.5,0.7,4.7,1.1,6.6
				c0.2,1.4-0.1,2.7-1,3.8C120.4,223.3,119.2,224,117.8,224.2L117.8,224.2z"/>
			<path class="st1" d="M174.4,226.6c-1.3,0.2-2.4,0-3.5-0.7s-1.7-1.6-1.9-2.9c-0.2-1.6-0.6-3.6-1-5.9s-1-4.7-1.5-7.4
				c-0.6-2.6-1.2-5.3-1.8-7.9c-2.4,0.4-4.6,0.9-6.6,1.2c-2,0.3-3.6,0.6-4.7,0.7c-1.3,0.2-2.4-0.1-3.4-0.8c-1-0.7-1.6-1.7-1.8-3
				s0.1-2.4,0.9-3.4s1.8-1.6,3-1.7c1-0.1,2.5-0.4,4.3-0.6s3.8-0.6,6-1c-0.3-1.3-0.7-2.6-1-3.7s-0.7-2.3-1-3.2
				c-0.4-1.2-0.3-2.4,0.3-3.5c0.6-1.1,1.6-1.9,2.8-2.2c1.2-0.4,2.4-0.2,3.5,0.4c1.1,0.6,1.9,1.6,2.2,2.8c0.3,1.1,0.6,2.3,1,3.7
				c0.4,1.4,0.8,2.8,1.1,4.3c1.8-0.3,3.5-0.6,5.1-0.9c1.6-0.3,3-0.5,4.3-0.7c3.8-0.6,6.8-0.4,9.2,0.8c2.4,1.2,3.9,3.2,4.5,6
				c0.4,2,0.4,3.9-0.3,5.9c-0.7,1.9-1.9,3.7-3.9,5.3c-1.9,1.6-4.6,2.9-8,3.9c-1.2,0.4-2.4,0.3-3.5-0.2s-1.9-1.3-2.3-2.5
				c-0.4-1.2-0.3-2.3,0.2-3.4s1.4-1.9,2.6-2.3c2.4-0.9,3.9-1.6,4.6-2.1c0.8-0.6,1.1-1.2,1-1.9c-0.1-0.9-0.9-1.2-2.2-1
				c-1.3,0.2-2.7,0.5-4.3,0.8s-3.3,0.6-5.1,1c0.6,2.6,1.2,5.2,1.8,7.9s1.1,5.1,1.6,7.3s0.9,4.1,1.1,5.7c0.2,1.3,0,2.4-0.7,3.5
				C176.7,225.7,175.7,226.4,174.4,226.6L174.4,226.6z"/>
			<path class="st1" d="M214.8,223.4c-1.4,0.4-2.7,0.4-4-0.3c-1.3-0.7-2.2-1.7-2.6-3.1c-0.4-1.4-0.4-2.7,0.3-4
				c0.6-1.3,1.7-2.2,3-2.6c5.5-1.8,10.2-4.2,14.4-7.4c4.1-3.2,7.1-6.8,9.1-10.8c0.5-1.1,0.5-2,0.1-2.6s-1.5-1-3.1-1h-24.8
				c-1.4,0-2.7-0.5-3.7-1.5s-1.6-2.2-1.6-3.6s0.5-2.7,1.6-3.7s2.3-1.5,3.7-1.5h25.6c4.1,0,7.3,0.8,9.5,2.3s3.5,3.7,3.9,6.4
				s-0.3,5.7-1.9,9.1c-2.6,5.5-6.5,10.4-11.6,14.6C227.5,217.9,221.6,221.2,214.8,223.4L214.8,223.4z M211.4,177.6
				c-1.4,0-2.6-0.5-3.6-1.5c-1-1-1.5-2.2-1.5-3.6s0.5-2.6,1.5-3.6s2.2-1.5,3.6-1.5H238c1.4,0,2.6,0.5,3.6,1.5s1.5,2.2,1.5,3.6
				s-0.5,2.6-1.5,3.6c-1,1-2.2,1.5-3.6,1.5H211.4z"/>
			<path class="st1" d="M263.4,223.6c-1.3,0.5-2.6,0.6-4,0s-2.3-1.4-2.9-2.7c-0.6-1.3-0.6-2.6-0.1-4c0.5-1.4,1.5-2.3,2.8-2.9
				c14.7-6.4,25.2-15.6,31.6-27.7c1.2-2.4,0.4-3.6-2.4-3.6h-8.1c-2.1,2.9-4.5,5.7-7.1,8.3c-2.6,2.6-5.4,5-8.3,7.1
				c-1.2,0.8-2.5,1.1-3.9,0.9c-1.4-0.2-2.6-1-3.4-2.1c-0.8-1.2-1.1-2.5-0.9-3.9s1-2.6,2.1-3.4c2.4-1.6,4.8-3.5,7.1-5.9
				s4.5-4.8,6.5-7.4s3.5-5.2,4.6-7.8c0.6-1.3,1.6-2.2,2.9-2.7c1.4-0.5,2.7-0.5,4,0.2c1.3,0.6,2.2,1.6,2.8,2.9s0.5,2.6-0.1,3.9h3.4
				c3.9,0,6.9,0.7,9,2.1s3.3,3.4,3.6,5.9c0.3,2.5-0.4,5.4-1.9,8.7c-2.4,4.9-5.5,9.5-9.3,13.9c-3.9,4.4-8.2,8.4-13,11.8
				S268.6,221.5,263.4,223.6L263.4,223.6z"/>
			<path class="st1" d="M316.8,224.2c-1.3,0.5-2.6,0.6-4,0c-1.4-0.5-2.3-1.4-2.9-2.7c-0.6-1.4-0.6-2.7-0.1-4
				c0.5-1.3,1.5-2.3,2.8-2.9c4.3-1.9,8.3-4,12-6.4c3.7-2.4,7-5.1,9.9-8c-0.7-0.7-1.4-1.4-2.1-2s-1.2-1.1-1.7-1.5
				c-1.1-0.9-1.8-2.1-1.9-3.5c-0.2-1.4,0.2-2.7,1.1-3.8c0.9-1.1,2.1-1.8,3.5-1.9c1.5-0.1,2.7,0.3,3.8,1.2c1,0.8,2.3,2,3.9,3.5
				c0.6-0.9,1.2-1.8,1.8-2.7s1-1.9,1.5-2.8c1.2-2.5,0.3-3.8-2.8-3.8h-7.6c-2.3,3-4.7,5.8-7.5,8.6c-2.7,2.7-5.4,5.1-8,6.9
				c-1.2,0.9-2.5,1.1-3.9,0.9c-1.5-0.3-2.6-1-3.4-2.2c-0.8-1.2-1.1-2.5-0.8-3.9c0.3-1.4,1-2.6,2.1-3.4c2.4-1.8,4.9-3.9,7.2-6.3
				s4.5-4.9,6.5-7.5c2-2.6,3.5-5.1,4.7-7.5c0.6-1.3,1.6-2.2,3-2.8c1.3-0.5,2.6-0.5,4,0.1c1.3,0.6,2.2,1.6,2.7,2.9
				c0.5,1.4,0.5,2.7-0.2,4v0.1h3.7c3.7,0,6.5,0.7,8.5,2.2s3.2,3.5,3.5,6c0.3,2.5-0.4,5.4-2,8.6c-0.8,1.7-1.7,3.3-2.7,4.9
				s-2,3.1-3.1,4.7c1,0.9,1.8,1.8,2.6,2.7c0.8,0.8,1.4,1.6,1.9,2.1c1,1.1,1.3,2.4,1.1,3.9c-0.2,1.4-0.8,2.6-2,3.5
				c-1.1,0.9-2.4,1.2-3.8,1.1c-1.4-0.2-2.6-0.8-3.6-1.9c-0.3-0.4-0.8-0.9-1.3-1.5c-0.5-0.6-1.1-1.2-1.8-1.9
				c-3.4,3.5-7.2,6.6-11.4,9.5C326.1,219.7,321.6,222.2,316.8,224.2L316.8,224.2z"/>
			<path class="st1" d="M368.2,199.9c-1.5,0-2.7-0.5-3.7-1.6c-1-1-1.5-2.3-1.5-3.7s0.5-2.7,1.5-3.7c1-1,2.2-1.5,3.7-1.5h42.2
				c1.5,0,2.7,0.5,3.7,1.5c1,1,1.5,2.2,1.5,3.7s-0.5,2.6-1.5,3.7c-1,1-2.2,1.6-3.7,1.6H368.2z"/>
			<path class="st1" d="M101.6,324.1c-1.3,0-2.4-0.4-3.3-1.3s-1.4-2-1.4-3.5v-31.5c-1.8,0.2-3.5,0.4-5.1,0.6c-1.6,0.2-3,0.3-4.1,0.4
				c-1.4,0.2-2.7-0.1-3.7-0.8s-1.6-1.7-1.8-3.1c-0.2-1.4,0.1-2.6,0.9-3.5s1.9-1.5,3.4-1.5c0.5-0.1,1-0.1,1.6-0.1
				c0.6,0,1.2-0.1,1.7-0.1c0.8-1,1.8-2.2,2.8-3.7s2.2-3,3.4-4.6c-1-0.8-2.3-1.7-3.8-2.7s-3-2.1-4.4-3.1c-1.4-1-2.6-1.8-3.4-2.2
				c-1-0.7-1.7-1.6-1.9-2.9s-0.1-2.3,0.6-3.4c0.6-1.1,1.6-1.8,2.8-2.1c1.2-0.3,2.4-0.1,3.5,0.6c0.5,0.4,1,0.7,1.5,1
				c0.6-0.9,1.3-2.1,2-3.4s1.5-2.6,2.2-3.9c0.7-1.3,1.3-2.2,1.6-2.9c0.6-1.2,1.5-2,2.7-2.4c1.2-0.5,2.4-0.4,3.6,0.2
				c1.2,0.6,1.9,1.5,2.2,2.7c0.3,1.2,0.2,2.4-0.4,3.5c-0.5,0.9-1.2,2-2.1,3.4s-1.8,2.8-2.6,4.2c-0.9,1.4-1.7,2.6-2.3,3.5
				c0.8,0.5,1.4,0.9,2,1.4c0.6,0.5,1.1,0.8,1.6,1.1c1.3-1.9,2.4-3.5,3.5-5.1s1.9-2.8,2.6-3.8c0.8-1.2,1.8-2,2.9-2.3
				c1.2-0.3,2.3-0.2,3.6,0.5c1.1,0.5,1.8,1.4,2.1,2.8s0.1,2.6-0.7,3.7c-1,1.4-2.3,3.2-3.9,5.4c-1.6,2.2-3.3,4.5-5.1,6.8
				c-1.8,2.4-3.5,4.7-5.1,6.9c1.4-0.1,2.8-0.2,4.2-0.4c1.4-0.1,2.6-0.3,3.8-0.4l-0.7-2c-0.4-1.2-0.4-2.3,0.1-3.3
				c0.5-1,1.3-1.7,2.4-2.1c1.2-0.4,2.3-0.4,3.3,0.1c1.1,0.5,1.9,1.3,2.4,2.5c0.3,0.9,0.8,2,1.3,3.4c0.6,1.4,1.1,2.8,1.6,4.2
				c0.5,1.4,0.9,2.6,1.2,3.5c0.4,1.3,0.3,2.5-0.2,3.6c-0.5,1.1-1.4,1.9-2.7,2.4c-1.3,0.4-2.5,0.3-3.6-0.3c-1.1-0.6-1.8-1.4-2.1-2.5
				c-0.1-0.6-0.3-1.1-0.5-1.7c-1.6,0.2-3.5,0.5-5.7,0.8v32.8c0,1.4-0.5,2.6-1.4,3.5C104,323.7,102.9,324.1,101.6,324.1L101.6,324.1z
				 M85.4,314.5c-1.1-0.3-1.9-1-2.4-2c-0.5-1-0.5-2.1-0.1-3.1c0.5-1.2,1-2.6,1.6-4.4c0.6-1.8,1.2-3.6,1.7-5.5s1-3.4,1.3-4.8
				c0.3-1.2,0.9-2.1,1.8-2.6c0.9-0.5,1.9-0.7,3-0.5c1.2,0.2,2.1,0.8,2.7,1.6c0.6,0.9,0.8,2,0.5,3.3c-0.2,1.3-0.6,2.9-1.2,4.8
				c-0.6,1.9-1.1,3.7-1.7,5.5s-1.1,3.3-1.6,4.6c-0.4,1.2-1.2,2-2.2,2.6C87.8,314.7,86.6,314.9,85.4,314.5L85.4,314.5z M117.6,310.7
				c-1.1,0.4-2.2,0.4-3.3,0c-1.1-0.4-1.8-1.2-2.2-2.5c-0.3-1-0.7-2.3-1.2-3.9s-1-3.2-1.5-4.8s-0.9-2.9-1.2-3.9
				c-0.3-1.3-0.1-2.4,0.5-3.2c0.6-0.9,1.5-1.5,2.6-1.7c1.2-0.3,2.2-0.2,3.1,0.4c0.9,0.5,1.5,1.4,1.8,2.5c0.3,0.9,0.7,2.1,1.2,3.5
				s1,2.9,1.5,4.3c0.5,1.4,0.9,2.6,1.2,3.5c0.5,1.3,0.5,2.4,0,3.5S118.8,310.2,117.6,310.7L117.6,310.7z M128,283.8
				c-1.1,0.8-2.3,1.2-3.7,1.1c-1.4-0.1-2.5-0.6-3.3-1.7c-0.7-1-1-2-0.9-3.2c0.1-1.1,0.6-2.1,1.6-2.8c3.6-2.7,6.2-5.7,7.8-9
				c1.6-3.4,2.6-7.4,3-12.2h-9.3c-1.3,0-2.4-0.4-3.2-1.3c-0.8-0.9-1.2-1.9-1.2-3s0.4-2.1,1.1-3c0.8-0.8,1.8-1.3,3-1.3h26
				c4.4,0,7.5,1,9.4,2.9c1.9,2,2.7,5,2.5,9.1c-0.1,2-0.2,4-0.4,6.2c-0.2,2.2-0.4,4.1-0.7,5.8c-0.5,3.1-1.3,5.6-2.4,7.3
				c-1.1,1.8-2.7,3-4.6,3.7c-2,0.7-4.5,1.1-7.6,1.3c-1.5,0.1-2.8-0.3-3.8-1c-1-0.7-1.6-1.8-1.7-3.3c-0.1-1.4,0.2-2.5,1.1-3.4
				c0.8-0.9,1.9-1.4,3.2-1.4c2.5-0.1,4.1-0.5,4.9-1.1c0.8-0.6,1.4-1.8,1.7-3.6c0.2-1.1,0.4-2.6,0.6-4.4s0.3-3.4,0.4-4.8
				c0.1-1.9-0.1-3.1-0.7-3.8c-0.6-0.7-1.8-1-3.6-1h-5.7c-0.5,6.2-1.7,11.6-3.7,16.2C135.7,276.7,132.4,280.5,128,283.8L128,283.8z
				 M141.3,321.9c-4.9,0-8.7-0.5-11.4-1.5s-4.5-2.7-5.5-5.3c-1-2.5-1.6-6.1-1.6-10.7s0.5-8.2,1.6-10.7c1-2.5,2.9-4.3,5.5-5.3
				c2.7-1,6.4-1.5,11.4-1.5s8.7,0.5,11.4,1.5s4.5,2.7,5.5,5.3c1,2.5,1.5,6.1,1.5,10.7s-0.5,8.2-1.5,10.7c-1,2.5-2.9,4.3-5.5,5.3
				C150,321.4,146.2,321.9,141.3,321.9z M141.3,312.7c2.4,0,4.3-0.2,5.5-0.6c1.2-0.4,2.1-1.2,2.5-2.4c0.4-1.2,0.6-3,0.6-5.4
				s-0.2-4-0.6-5.2c-0.4-1.1-1.2-2-2.5-2.4s-3.1-0.6-5.5-0.6s-4.3,0.2-5.5,0.6c-1.2,0.4-2.1,1.2-2.5,2.3s-0.6,2.9-0.6,5.2
				s0.2,4.1,0.6,5.3s1.3,2,2.5,2.5C137,312.5,138.9,312.7,141.3,312.7L141.3,312.7z"/>
			<path class="st1" d="M171.5,280.7c-1.3,0.9-2.7,1.2-4.2,1s-2.6-0.9-3.4-2.2c-0.6-1-0.8-2.2-0.6-3.4c0.3-1.2,1.1-2.3,2.5-3.2
				c3.2-2,6.5-4.2,9.8-6.6s6.6-4.9,9.7-7.5c3.1-2.6,6-5.1,8.5-7.6c2.5-2.4,4.8-4.1,6.8-4.9c2.1-0.8,4.2-0.9,6.5-0.1
				c2.2,0.8,4.7,2.3,7.4,4.7c1.7,1.4,3.6,3.1,5.9,4.9s4.6,3.7,7.2,5.7c2.5,2,5.1,3.9,7.8,5.7s5.1,3.5,7.5,4.9
				c1.4,0.9,2.4,2.1,2.7,3.5c0.4,1.4,0.1,2.7-0.7,4c-0.9,1.2-2.1,1.9-3.6,2.1c-1.6,0.2-3.1-0.2-4.6-1.2c-2.2-1.5-4.6-3.2-7.2-5.1
				s-5.2-4-7.9-6.1c-2.7-2.1-5.1-4.2-7.5-6.2c-2.3-2-4.4-3.8-6.1-5.5c-1.4-1.3-2.6-2-3.6-2s-2.2,0.6-3.6,1.9c-1.9,1.7-4,3.6-6.4,5.8
				c-2.4,2.1-4.9,4.2-7.5,6.4c-2.6,2.1-5.3,4.2-7.9,6.1C176.2,277.5,173.8,279.3,171.5,280.7L171.5,280.7z M178.5,320.9
				c-1.8,0.9-3.4,1.1-4.8,0.7c-1.4-0.4-2.5-1.2-3.2-2.6c-0.8-1.4-0.8-2.8,0-4.2c0.7-1.3,1.8-2.3,3.2-2.9c4.2-1.9,7.3-4.2,9.5-6.9
				c2.2-2.7,3.7-6.1,4.5-10.2c0.8-4.1,1.1-9.2,1-15.3c-0.1-1.3,0.4-2.4,1.3-3.4s2.1-1.5,3.6-1.5s2.7,0.5,3.7,1.5
				c1,1,1.5,2.1,1.5,3.3c0.1,7.5-0.5,13.9-1.8,19.1c-1.3,5.3-3.4,9.6-6.4,13.2C187.4,315.5,183.4,318.4,178.5,320.9L178.5,320.9z
				 M217,322.1c-1.6,0-2.9-0.4-3.8-1.3c-0.9-0.9-1.3-2-1.3-3.5v-37.6c0-1.4,0.5-2.5,1.5-3.5c1-0.9,2.2-1.4,3.6-1.4s2.5,0.5,3.6,1.4
				c1,0.9,1.6,2.1,1.6,3.5v37.6c0,1.5-0.4,2.7-1.3,3.5S218.7,322.1,217,322.1L217,322.1z"/>
		</g>
		<g>
			<path id="_パス_5089" class="st0" d="M289,394.4c-6.1-6.1-6.1-16,0-22.1l0,0l66.7-66.7h-41.6c-7.9,0-14.4-6.4-14.4-14.4l0,0
				c0-7.9,6.4-14.4,14.4-14.4h78.1c7.9,0,14.4,6.4,14.4,14.4l0,0v78.1c0,3.8-1.5,7.5-4.2,10.2c-2.7,2.7-6.4,4.2-10.2,4.2
				c-7.9,0-14.4-6.4-14.4-14.4v-41.6l-66.7,66.7c-2.9,3-6.9,4.6-11.1,4.6C295.9,399,291.9,397.3,289,394.4L289,394.4z"/>
			<path class="st1" d="M300.1,404c-5.5,0-10.8-2.2-14.6-6.1c-3.9-3.9-6-9.1-6-14.6c0-5.5,2.1-10.7,6-14.6l58.2-58.2h-29.5
				c-10.7,0-19.4-8.7-19.4-19.4s8.7-19.4,19.4-19.4h78.1c10.7,0,19.4,8.7,19.4,19.4v78.1c0,5.1-2.1,10.1-5.7,13.7
				c-3.6,3.6-8.6,5.7-13.7,5.7h0c-10.7,0-19.4-8.7-19.4-19.4v-29.5l-58.2,58.1C310.9,401.8,305.6,404,300.1,404L300.1,404z
				 M314.1,281.8c-5.2,0-9.4,4.2-9.4,9.4s4.2,9.4,9.4,9.4h41.6c2,0,3.9,1.2,4.6,3.1s0.4,4-1.1,5.5l-66.7,66.7c-2,2-3.1,4.7-3.1,7.5
				s1.1,5.5,3.1,7.5c0,0,0,0,0,0c2,2,4.7,3.1,7.5,3.1c2.8,0,5.5-1.1,7.5-3.1l66.7-66.7c1.4-1.4,3.6-1.9,5.5-1.1
				c1.9,0.8,3.1,2.6,3.1,4.6v41.6c0,5.2,4.2,9.4,9.4,9.4h0c2.5,0,4.9-1,6.6-2.7c1.8-1.8,2.8-4.2,2.8-6.6v-78.1
				c0-5.2-4.2-9.4-9.4-9.4L314.1,281.8L314.1,281.8z"/>
		</g>
	</g>
</g>
</svg>
