<?xml version="1.0" encoding="UTF-8"?>
<svg id="_レイヤー_2" data-name="レイヤー 2" xmlns="http://www.w3.org/2000/svg" viewBox="0 0 238.45 251.91">
  <defs>
    <style>
      .cls-1 {
        fill: #ffdc00;
        stroke-width: 0px;
      }
    </style>
  </defs>
  <g id="_レイヤー_1-2" data-name="レイヤー 1">
    <g>
      <path class="cls-1" d="M238,16.16c-.88-2.13-2.98-3.63-5.43-3.63-3.25,0-5.88,2.63-5.88,5.88s2.63,5.88,5.88,5.88c2.45,0,4.55-1.5,5.43-3.63.29-.69.45-1.45.45-2.25s-.16-1.56-.45-2.25Z"/>
      <path class="cls-1" d="M17.99,162.52c-3.9,0-7.05,3.16-7.05,7.06s3.16,7.05,7.05,7.05,7.05-3.16,7.05-7.05-3.16-7.06-7.05-7.06Z"/>
      <path class="cls-1" d="M31.19,222.52c0-16.23-13.16-29.4-29.4-29.4-.6,0-1.2.02-1.79.06v58.67c.59.04,1.19.06,1.79.06,16.23,0,29.4-13.16,29.4-29.4Z"/>
      <path class="cls-1" d="M189.45,24.29c8.6,0,15.58-6.97,15.58-15.58,0-3.23-.98-6.22-2.66-8.71h-25.84c-1.68,2.49-2.66,5.48-2.66,8.71,0,8.6,6.97,15.58,15.58,15.58Z"/>
      <path class="cls-1" d="M19.37,145.87c31.31-15.83,13.69-53.46,38.51-75.47,28.2-25.01,86.46-29.98,92.71-63.8.43-2.31.43-4.51.08-6.59H0v146.72c6.4,2.33,13.13,2.31,19.37-.85Z"/>
    </g>
  </g>
</svg>