<svg xmlns="http://www.w3.org/2000/svg" width="711.468" height="458.498" viewBox="0 0 711.468 458.498"><g transform="translate(-250.809 -356.846)"><path d="M207.1,423.834c35.306-7.272,66.565-26.6,89.882-53.3C316.026,348.726,353,319.683,418.252,312.12,526.262,299.6,602.1,286.188,602.1,192.652S397.569-4.2,268.875.132,4.6,60.907.135,193.251C-3.392,297.763,62.006,453.722,207.1,423.834" transform="translate(250.809 388.358) rotate(-3)" fill="#ffdc00"/><circle cx="35.91" cy="35.91" r="35.91" transform="translate(851.072 635.036)" fill="#ffdc00"/><circle cx="11.005" cy="11.005" r="11.005" transform="translate(940.268 696.43)" fill="#ffdc00"/><path d="M44.184,3.192q-7.812,0-12.012-3.738T27.972-11a13.147,13.147,0,0,1,4.41-10.416q4.41-3.864,12.474-3.864H46.41a14.066,14.066,0,0,1,1.554.084L47.8-33.1q-3.78.252-7.014.336t-5.25,0a5.578,5.578,0,0,1-4.158-1.932A6.047,6.047,0,0,1,29.82-39.06a5.933,5.933,0,0,1,1.974-4.158,6.217,6.217,0,0,1,4.326-1.638q2.016.084,5-.042t6.342-.294v-5.292q-3.192.168-6.048.252t-4.956.084A5.215,5.215,0,0,1,32.3-52.08a6.223,6.223,0,0,1-1.554-4.368,5.933,5.933,0,0,1,1.974-4.158,6.217,6.217,0,0,1,4.326-1.638q2.436,0,5.922-.168t7.35-.42q3.864-.252,7.476-.63t6.216-.714a6.3,6.3,0,0,1,4.578,1.092,5.483,5.483,0,0,1,2.394,3.948,5.769,5.769,0,0,1-1.05,4.494,5.866,5.866,0,0,1-3.906,2.478q-1.344.168-2.982.378t-3.4.378q0,1.176.042,2.52t.042,2.772q2.184-.168,4.116-.42t3.36-.42a6.155,6.155,0,0,1,4.494,1.092,5.766,5.766,0,0,1,2.478,3.948,5.769,5.769,0,0,1-1.05,4.494,5.866,5.866,0,0,1-3.906,2.478q-1.68.252-4.074.5t-5.166.5Q60.06-31,60.1-28.1t.126,5.5a58.325,58.325,0,0,1,8.61,3.57A42.2,42.2,0,0,1,75.6-14.784a6.064,6.064,0,0,1,2.52,4.116,6.091,6.091,0,0,1-1.092,4.7A6.223,6.223,0,0,1,73-3.318a5.335,5.335,0,0,1-4.62-1.05Q66.528-5.8,64.512-7.14a39.033,39.033,0,0,0-4.2-2.436Q58.8,3.192,44.184,3.192ZM16.8,4.368A5.891,5.891,0,0,1,12.138,3.4,5.875,5.875,0,0,1,9.576-.672q-.5-3.192-.8-7.938t-.42-10.5q-.126-5.754.042-11.8t.462-11.844q.294-5.8.84-10.71A77.549,77.549,0,0,1,11-61.74a6.548,6.548,0,0,1,2.94-4.41,6.406,6.406,0,0,1,5.04-.714,5.434,5.434,0,0,1,3.738,2.94,6.572,6.572,0,0,1,.546,4.872,69.605,69.605,0,0,0-1.554,9.324q-.63,5.712-.882,12.348t-.21,13.23q.042,6.594.336,12.18a84.427,84.427,0,0,0,.882,9.114,6.167,6.167,0,0,1-1.05,4.662A5.827,5.827,0,0,1,16.8,4.368ZM44.184-8.484a4.539,4.539,0,0,0,3.024-.924,3.645,3.645,0,0,0,1.092-2.94v-1.344a33.157,33.157,0,0,0-4.116-.252q-3.864,0-3.864,2.772A2.375,2.375,0,0,0,41.2-9.156,5.036,5.036,0,0,0,44.184-8.484Zm87.36,12.936q-10.92,0-16.926-5.292t-6.006-16.968v-44.52a6,6,0,0,1,1.806-4.41,6,6,0,0,1,4.41-1.806,6.14,6.14,0,0,1,4.452,1.806,5.931,5.931,0,0,1,1.848,4.41v44.52q0,5.46,2.394,7.686T131.544-7.9a17.487,17.487,0,0,0,8.82-2.52q4.368-2.52,7.224-8.568a6.156,6.156,0,0,1,3.57-3.192,5.871,5.871,0,0,1,4.746.336,5.7,5.7,0,0,1,3.15,3.486,6.708,6.708,0,0,1-.21,4.83,29.74,29.74,0,0,1-6.594,9.66,29.084,29.084,0,0,1-9.492,6.174A29.812,29.812,0,0,1,131.544,4.452Z" transform="translate(409.15 630.968)" fill="#fff"/><path d="M5.168,0Q2.774,0,2.774-2.508v-13.3q0-2.508,2.394-2.508t2.394,2.508v13.3Q7.562,0,5.168,0ZM5.13-21.052a2.79,2.79,0,0,1-2.071-.874,2.884,2.884,0,0,1-.855-2.09,2.821,2.821,0,0,1,.855-2.071,2.821,2.821,0,0,1,2.071-.855,2.821,2.821,0,0,1,2.071.855,2.821,2.821,0,0,1,.855,2.071,2.884,2.884,0,0,1-.855,2.09A2.79,2.79,0,0,1,5.13-21.052ZM19.418,0q-2.394,0-2.394-2.508v-22q0-2.508,2.394-2.508t2.394,2.508v22Q21.812,0,19.418,0ZM33.174,0Q30.78,0,30.78-2.508v-22q0-2.508,2.394-2.508t2.394,2.508v22Q35.568,0,33.174,0ZM50.692.418a6.265,6.265,0,0,1-4.655-1.824,7.366,7.366,0,0,1-1.805-5.4v-9.006q0-2.508,2.394-2.508t2.394,2.508v7.866a4.819,4.819,0,0,0,.8,3,2.523,2.523,0,0,0,2.09,1.026,3.039,3.039,0,0,0,2.375-1.045,4.851,4.851,0,0,0,.931-3.287v-7.562q0-2.508,2.394-2.508T60-15.808v13.3Q60,0,57.874,0T55.632-1.026L55.48-2.052a7.258,7.258,0,0,1-1.919,1.71A5.241,5.241,0,0,1,50.692.418ZM75.62.38a13.2,13.2,0,0,1-3.1-.361,9.433,9.433,0,0,1-2.831-1.2,2.146,2.146,0,0,1-1.14-1.577A2.194,2.194,0,0,1,69.2-4.446a2.013,2.013,0,0,1,1.5-.741,4.071,4.071,0,0,1,1.843.627,6.94,6.94,0,0,0,3.344.8A4.021,4.021,0,0,0,77.9-4.123a1.473,1.473,0,0,0,.57-1.349,1.088,1.088,0,0,0-.285-.741,2.744,2.744,0,0,0-1.178-.608,24.937,24.937,0,0,0-2.679-.627,9.085,9.085,0,0,1-4.275-1.824,4.835,4.835,0,0,1-1.5-3.876,4.988,4.988,0,0,1,.912-2.983,5.976,5.976,0,0,1,2.489-1.976,8.636,8.636,0,0,1,3.553-.7,11.59,11.59,0,0,1,4.864.988,2.157,2.157,0,0,1,1.311,1.444,2.07,2.07,0,0,1-.475,1.71,1.878,1.878,0,0,1-1.425.855,5.117,5.117,0,0,1-1.881-.4,5.5,5.5,0,0,0-1.14-.323,7.156,7.156,0,0,0-1.178-.1,2.679,2.679,0,0,0-1.71.4,1.205,1.205,0,0,0-.456.931,1.112,1.112,0,0,0,.228.684,2.243,2.243,0,0,0,.988.589,21.47,21.47,0,0,0,2.356.665,10.52,10.52,0,0,1,4.769,2.185,5,5,0,0,1,1.615,3.895,4.718,4.718,0,0,1-2.185,4.256A10.111,10.111,0,0,1,75.62.38ZM98.648.418a10.452,10.452,0,0,1-3.1-.4,3.353,3.353,0,0,1-1.938-1.5A6.061,6.061,0,0,1,92.948-4.6v-9.614h-.912q-2.508,0-2.508-2.052a2.057,2.057,0,0,1,.532-1.52A2.729,2.729,0,0,1,92-18.316h.95v-3.838a2.567,2.567,0,0,1,.627-1.862,2.349,2.349,0,0,1,1.767-.646q2.356,0,2.356,2.508v3.838h2.432q2.508,0,2.508,2.052t-2.47,2.052H97.7v8.36a1.841,1.841,0,0,0,.589,1.6,2.9,2.9,0,0,0,1.691.418,4.328,4.328,0,0,1,1.976.361q.684.361.684,1.615a1.9,1.9,0,0,1-.57,1.52,2.83,2.83,0,0,1-1.482.627A13.438,13.438,0,0,1,98.648.418ZM112.746,0q-2.394,0-2.394-2.508v-13.3a2.217,2.217,0,0,1,2.508-2.508,2.693,2.693,0,0,1,1.444.4,1.622,1.622,0,0,1,.646,1.5v.57a5.119,5.119,0,0,1,2.09-2.128,5.916,5.916,0,0,1,2.964-.8,2.337,2.337,0,0,1,1.862.741,2.759,2.759,0,0,1,.646,1.881,2.017,2.017,0,0,1-.57,1.577,1.509,1.509,0,0,1-1.216.437q-.3-.038-.665-.057t-.779-.019a4.146,4.146,0,0,0-2.945,1.121,4.288,4.288,0,0,0-1.2,3.287v7.3Q115.14,0,112.746,0Zm22.99.228a7.614,7.614,0,0,1-5-1.292,4.841,4.841,0,0,1-2-4.18A5.017,5.017,0,0,1,129.9-8.569a7.777,7.777,0,0,1,3-2.166,10.229,10.229,0,0,1,3.819-.817,4.883,4.883,0,0,1,1.672.133,7.621,7.621,0,0,1,1.482.551v-1.216q0-1.6-.684-2.071a3.37,3.37,0,0,0-1.938-.475,9.471,9.471,0,0,0-2.109.247,13.589,13.589,0,0,0-2.109.665,3.489,3.489,0,0,1-1.881.323,1.933,1.933,0,0,1-1.311-1.007,2.042,2.042,0,0,1-.228-1.691,2.3,2.3,0,0,1,1.406-1.311,17.1,17.1,0,0,1,2.945-.988,13.985,13.985,0,0,1,3.287-.38,8.5,8.5,0,0,1,5.358,1.444q1.824,1.444,1.824,5.244V-4.1a2.517,2.517,0,0,0,.038.532.965.965,0,0,0,.437.7,2.181,2.181,0,0,0,.665.228,3.05,3.05,0,0,1,.589.152q.247.1.247.475a2.2,2.2,0,0,1-.4,1.292,2.02,2.02,0,0,1-1.311.76q-.418.076-.874.133a7.658,7.658,0,0,1-.95.057q-2.242,0-2.85-1.52A7.892,7.892,0,0,1,135.736.228Zm-.114-4.1a7.514,7.514,0,0,0,3.211-.779A1.884,1.884,0,0,0,139.954-6.5a1.151,1.151,0,0,0-.855-1.14,5.371,5.371,0,0,0-2-.19,4.671,4.671,0,0,0-2.774.893,2.141,2.141,0,0,0-.988,1.729,1.233,1.233,0,0,0,.589,1.007A2.952,2.952,0,0,0,135.622-3.876ZM160.74.418a10.452,10.452,0,0,1-3.1-.4,3.353,3.353,0,0,1-1.938-1.5A6.061,6.061,0,0,1,155.04-4.6v-9.614h-.912q-2.508,0-2.508-2.052a2.057,2.057,0,0,1,.532-1.52,2.729,2.729,0,0,1,1.938-.532h.95v-3.838a2.567,2.567,0,0,1,.627-1.862,2.349,2.349,0,0,1,1.767-.646q2.356,0,2.356,2.508v3.838h2.432q2.508,0,2.508,2.052t-2.47,2.052h-2.47v8.36a1.841,1.841,0,0,0,.589,1.6,2.9,2.9,0,0,0,1.691.418,4.328,4.328,0,0,1,1.976.361q.684.361.684,1.615a1.9,1.9,0,0,1-.57,1.52,2.83,2.83,0,0,1-1.482.627A13.437,13.437,0,0,1,160.74.418Zm19.684,0A8.965,8.965,0,0,1,175.845-.76,8.293,8.293,0,0,1,172.653-4.1a10.555,10.555,0,0,1-1.159-5.054,10.527,10.527,0,0,1,1.159-5.073,8.456,8.456,0,0,1,3.192-3.344,8.854,8.854,0,0,1,4.579-1.2,8.826,8.826,0,0,1,4.6,1.2,8.5,8.5,0,0,1,3.173,3.344,10.527,10.527,0,0,1,1.159,5.073A10.555,10.555,0,0,1,188.195-4.1,8.332,8.332,0,0,1,185.022-.76,8.937,8.937,0,0,1,180.424.418Zm0-4.332a3.753,3.753,0,0,0,2.983-1.349,5.814,5.814,0,0,0,1.159-3.895,5.878,5.878,0,0,0-1.159-3.933,3.753,3.753,0,0,0-2.983-1.349,3.643,3.643,0,0,0-2.945,1.349,6.016,6.016,0,0,0-1.121,3.933,5.949,5.949,0,0,0,1.121,3.895A3.643,3.643,0,0,0,180.424-3.914ZM199.8,0q-2.394,0-2.394-2.508v-13.3a2.217,2.217,0,0,1,2.508-2.508,2.693,2.693,0,0,1,1.444.4,1.622,1.622,0,0,1,.646,1.5v.57a5.119,5.119,0,0,1,2.09-2.128,5.916,5.916,0,0,1,2.964-.8,2.337,2.337,0,0,1,1.862.741,2.759,2.759,0,0,1,.646,1.881,2.017,2.017,0,0,1-.57,1.577,1.509,1.509,0,0,1-1.216.437q-.3-.038-.665-.057t-.779-.019a4.146,4.146,0,0,0-2.945,1.121A4.288,4.288,0,0,0,202.2-9.8v7.3Q202.2,0,199.8,0Z" transform="translate(416.461 532.058)" fill="#fff"/></g></svg>