<svg xmlns="http://www.w3.org/2000/svg" width="62" height="67.612" viewBox="0 0 62 67.612"><g transform="translate(-1852 -414)"><path d="M55.814,50.938c.183-.195.365-.389.543-.588l.058-.061,0,0a30.228,30.228,0,1,0-45.211,0l0,0c.02.02.039.041.058.061.178.2.359.393.542.587C20.247,60.521,0,62,0,62H67.612s-20.246-1.479-11.8-11.062" transform="translate(1852 481.612) rotate(-90)" fill="#ffdc00"/><path d="M3.47,0,1.4,5.288V26.9H8.758V30.81H12.9L16.805,26.9h5.978l8.047-8.047V0Zm24.6,17.475-4.6,4.6H16.115l-3.909,3.909V22.072H6V2.758H28.07V17.475Zm-4.6-9.428v8.047H20.714V8.047Zm-7.358,0v8.047H13.356V8.047Z" transform="translate(1866.6 433)" fill="#fff" fill-rule="evenodd"/></g></svg>