<svg xmlns="http://www.w3.org/2000/svg" width="42.48" height="42.48" viewBox="0 0 42.48 42.48"><g transform="translate(0 -108.515)"><path d="M42.48,312.355a8.77,8.77,0,0,0-8.744-8.744H8.744A8.77,8.77,0,0,0,0,312.355v24.992a8.77,8.77,0,0,0,8.744,8.744H33.736a8.77,8.77,0,0,0,8.744-8.744c-.025,2.4,0-24.992,0-24.992" transform="translate(0 -195.096)" fill="#ffdc00" fill-rule="evenodd"/><path d="M47.071,337.435a3.686,3.686,0,0,0-2.6-2.6c-2.295-.615-11.5-.615-11.5-.615s-9.2,0-11.5.615a3.686,3.686,0,0,0-2.6,2.6,41.095,41.095,0,0,0,0,14.167,3.686,3.686,0,0,0,2.6,2.6c2.295.615,11.5.615,11.5.615s9.2,0,11.5-.615a3.686,3.686,0,0,0,2.6-2.6,41.095,41.095,0,0,0,0-14.167m-17.043,11.5V340.1l7.646,4.414Z" transform="translate(-11.731 -214.763)" fill="#fff"/></g></svg>