<?xml version="1.0" encoding="UTF-8"?>
<svg id="_レイヤー_2" data-name="レイヤー 2" xmlns="http://www.w3.org/2000/svg" viewBox="0 0 154.25 154.25">
  <defs>
    <style>
      .cls-1 {
        fill: #ffc400;
        fill-rule: evenodd;
      }

      .cls-1, .cls-2 {
        stroke-width: 0px;
      }

      .cls-2 {
        fill: #fff;
      }
    </style>
  </defs>
  <g id="_レイヤー_1-2" data-name="レイヤー 1">
    <g id="_グループ_61" data-name="グループ 61">
      <path id="_パス_27" data-name="パス 27" class="cls-1" d="M154.25,31.75c-.05-17.51-14.24-31.7-31.75-31.75H31.75C14.24.05.05,14.24,0,31.75v90.75c.05,17.51,14.24,31.7,31.75,31.75h90.75c17.51-.05,31.7-14.24,31.75-31.75-.09,8.71,0-90.75,0-90.75"/>
      <path id="_パス_28" data-name="パス 28" class="cls-2" d="M128.32,51.4c-1.24-4.6-4.84-8.2-9.44-9.44-8.33-2.23-41.76-2.23-41.76-2.23,0,0-33.41,0-41.76,2.23-4.6,1.24-8.2,4.84-9.44,9.44-2.98,17.02-2.98,34.42,0,51.44,1.24,4.6,4.84,8.2,9.44,9.44,8.33,2.23,41.76,2.23,41.76,2.23,0,0,33.41,0,41.76-2.23,4.6-1.24,8.2-4.84,9.44-9.44,2.98-17.02,2.98-34.42,0-51.44M66.44,93.16v-32.08l27.76,16.03-27.76,16.05Z"/>
    </g>
  </g>
</svg>