<svg xmlns="http://www.w3.org/2000/svg" width="42.48" height="42.48" viewBox="0 0 42.48 42.48"><path d="M42.48,8.744A8.77,8.77,0,0,0,33.736,0H8.744A8.77,8.77,0,0,0,0,8.744V33.736A8.77,8.77,0,0,0,8.744,42.48H33.736a8.77,8.77,0,0,0,8.744-8.744c-.025,2.4,0-24.992,0-24.992" fill="#ffdc00" fill-rule="evenodd"/><path d="M24.824,41.741v-15.3a14.193,14.193,0,0,1,7.556-2.2,9.4,9.4,0,0,1,7.083,2.912,9.912,9.912,0,0,1,2.515,6.833,8.947,8.947,0,0,1-2.64,6.519,9.806,9.806,0,0,1-6.957,2.712h-.015a17.643,17.643,0,0,1-7.541-1.472M15.81,30.286l1.929,3.062s1.067.089.5-1.714a11.578,11.578,0,0,1,3.308-3.6v20.4c-.8.226-1.866.652-1.142,1.377h5.541c.731-.732-.421-1.173-1.123-1.377V43.624a24.493,24.493,0,0,0,7.894,1.491,14.9,14.9,0,0,0,9.307-3,10.212,10.212,0,0,0,4-8.078,10.83,10.83,0,0,0-3.746-8.246,14.332,14.332,0,0,0-9.556-3.27c-10.064,0-16.908,7.769-16.908,7.769" transform="translate(-10.159 -14.469)" fill="#fff"/></svg>