<svg xmlns="http://www.w3.org/2000/svg" width="62" height="67.612" viewBox="0 0 62 67.612"><g transform="translate(-1852 -274.433)"><path d="M55.814,50.938c.183-.195.365-.389.543-.588l.058-.061,0,0a30.228,30.228,0,1,0-45.211,0l0,0c.02.02.039.041.058.061.178.2.359.393.542.587C20.247,60.521,0,62,0,62H67.612s-20.246-1.479-11.8-11.062" transform="translate(1852 342.044) rotate(-90)" fill="#ffdc00"/><path d="M24.824,41.741v-15.3a14.193,14.193,0,0,1,7.556-2.2,9.4,9.4,0,0,1,7.083,2.912,9.912,9.912,0,0,1,2.515,6.833,8.947,8.947,0,0,1-2.64,6.519,9.806,9.806,0,0,1-6.957,2.712h-.015a17.643,17.643,0,0,1-7.541-1.472M15.81,30.286l1.929,3.062s1.067.089.5-1.714a11.578,11.578,0,0,1,3.308-3.6v20.4c-.8.226-1.866.652-1.142,1.377h5.541c.731-.732-.421-1.173-1.123-1.377V43.624a24.493,24.493,0,0,0,7.894,1.491,14.9,14.9,0,0,0,9.307-3,10.212,10.212,0,0,0,4-8.078,10.83,10.83,0,0,0-3.746-8.246,14.332,14.332,0,0,0-9.556-3.27c-10.064,0-16.908,7.769-16.908,7.769" transform="translate(1852.19 272.073)" fill="#fff"/></g></svg>