<svg xmlns="http://www.w3.org/2000/svg" width="42.48" height="42.48" viewBox="0 0 42.48 42.48"><g transform="translate(0 -54.258)"><path d="M42.48,160.55a8.77,8.77,0,0,0-8.744-8.744H8.744A8.77,8.77,0,0,0,0,160.55v24.992a8.77,8.77,0,0,0,8.744,8.744H33.736a8.77,8.77,0,0,0,8.744-8.744c-.025,2.4,0-24.992,0-24.992" transform="translate(0 -97.548)" fill="#ffdc00" fill-rule="evenodd"/><path d="M38.676,185.5l9.611-11.172H46.009l-8.345,9.7L31,174.323H23.311L33.39,188.992,23.311,200.707h2.277L34.4,190.463l7.039,10.244h7.688L38.675,185.5Zm-3.12,3.626-1.021-1.461-8.126-11.623h3.5l6.557,9.38,1.021,1.461,8.524,12.192h-3.5l-6.956-9.949Z" transform="translate(-14.979 -112.017)" fill="#fff"/></g></svg>