<svg xmlns="http://www.w3.org/2000/svg" width="62" height="67.612" viewBox="0 0 62 67.612"><g transform="translate(-1852 -345.865)"><path d="M55.814,50.938c.183-.195.365-.389.543-.588l.058-.061,0,0a30.228,30.228,0,1,0-45.211,0l0,0c.02.02.039.041.058.061.178.2.359.393.542.587C20.247,60.521,0,62,0,62H67.612s-20.246-1.479-11.8-11.062" transform="translate(1852 413.477) rotate(-90)" fill="#ffdc00"/><path d="M47.071,337.435a3.686,3.686,0,0,0-2.6-2.6c-2.295-.615-11.5-.615-11.5-.615s-9.2,0-11.5.615a3.686,3.686,0,0,0-2.6,2.6,41.095,41.095,0,0,0,0,14.167,3.686,3.686,0,0,0,2.6,2.6c2.295.615,11.5.615,11.5.615s9.2,0,11.5-.615a3.686,3.686,0,0,0,2.6-2.6,41.095,41.095,0,0,0,0-14.167m-17.043,11.5V340.1l7.646,4.414Z" transform="translate(1849.744 35.153)" fill="#fff"/></g></svg>