<svg xmlns="http://www.w3.org/2000/svg" width="42.48" height="42.48" viewBox="0 0 42.48 42.48"><g transform="translate(0 -108.515)"><path d="M42.48,312.355a8.77,8.77,0,0,0-8.744-8.744H8.744A8.77,8.77,0,0,0,0,312.355v24.992a8.77,8.77,0,0,0,8.744,8.744H33.736a8.77,8.77,0,0,0,8.744-8.744c-.025,2.4,0-24.992,0-24.992" transform="translate(0 -195.096)" fill="#ffdc00" fill-rule="evenodd"/><path d="M3.088,0,1.4,4.312V21.937h6v3.188h3.375l3.188-3.188h4.875L25.4,15.375V0ZM23.15,14.251,19.4,18h-6l-3.188,3.188V18H5.15V2.249h18v12ZM19.4,6.562v6.562H17.15V6.562Zm-6,0v6.562H11.15V6.562Z" transform="translate(7.84 117.193)" fill="#fff" fill-rule="evenodd"/></g></svg>