<svg xmlns="http://www.w3.org/2000/svg" width="62" height="67.612" viewBox="0 0 62 67.612"><g transform="translate(-1852 -203)"><path d="M55.814,50.938c.183-.195.365-.389.543-.588l.058-.061,0,0a30.228,30.228,0,1,0-45.211,0l0,0c.02.02.039.041.058.061.178.2.359.393.542.587C20.247,60.521,0,62,0,62H67.612s-20.246-1.479-11.8-11.062" transform="translate(1852 270.612) rotate(-90)" fill="#ffdc00"/><path d="M38.676,185.5l9.611-11.172H46.009l-8.345,9.7L31,174.323H23.311L33.39,188.992,23.311,200.707h2.277L34.4,190.463l7.039,10.244h7.688L38.675,185.5Zm-3.12,3.626-1.021-1.461-8.126-11.623h3.5l6.557,9.38,1.021,1.461,8.524,12.192h-3.5l-6.956-9.949Z" transform="translate(1846.689 49.291)" fill="#fff"/></g></svg>