<?xml version="1.0" encoding="UTF-8"?>
<svg id="_レイヤー_2" data-name="レイヤー 2" xmlns="http://www.w3.org/2000/svg" viewBox="0 0 154.25 154.25">
  <defs>
    <style>
      .cls-1 {
        fill: #ffc400;
        fill-rule: evenodd;
      }

      .cls-1, .cls-2 {
        stroke-width: 0px;
      }

      .cls-2 {
        fill: #fff;
      }
    </style>
  </defs>
  <g id="_レイヤー_1-2" data-name="レイヤー 1">
    <g id="_グループ_59" data-name="グループ 59">
      <path id="_パス_25" data-name="パス 25" class="cls-1" d="M154.25,31.75c-.05-17.51-14.24-31.7-31.75-31.75H31.75C14.24.05.05,14.24,0,31.75v90.75c.05,17.51,14.24,31.7,31.75,31.75h90.75c17.51-.05,31.7-14.24,31.75-31.75-.09,8.71,0-90.75,0-90.75"/>
      <path id="_パス_26" data-name="パス 26" class="cls-2" d="M86.05,69.81l34.9-40.57h-8.27l-30.3,35.22-24.2-35.24h-27.92l36.6,53.26-36.6,42.54h8.27l32-37.2,25.56,37.2h27.92l-37.95-55.22h0ZM74.72,82.97l-3.71-5.3-29.51-42.2h12.71l23.81,34.06,3.71,5.3,30.95,44.27h-12.71l-25.26-36.13h0Z"/>
    </g>
  </g>
</svg>