<svg xmlns="http://www.w3.org/2000/svg" width="81.906" height="81.345" viewBox="0 0 81.906 81.345">
  <path id="パス_5040" data-name="パス 5040" d="M355.849,40.848a40.09,40.09,0,0,1-3.321,16.439,39.535,39.535,0,0,1-9.005,12.872,41.79,41.79,0,0,1-57.252,0,39.548,39.548,0,0,1-12.328-29.311,40.385,40.385,0,0,1,3.321-16.541,39.583,39.583,0,0,1,9.007-12.87,41.79,41.79,0,0,1,57.252,0,39.579,39.579,0,0,1,9.005,12.87,40.359,40.359,0,0,1,3.321,16.541m-21.029,0a19.029,19.029,0,0,0-1.51-7.49,21.118,21.118,0,0,0-4.125-6.336,19.122,19.122,0,0,0-6.289-4.373,20.691,20.691,0,0,0-16,0,19.071,19.071,0,0,0-6.289,4.373,21.122,21.122,0,0,0-4.126,6.336,19.355,19.355,0,0,0,0,14.982,20.425,20.425,0,0,0,4.126,6.283A20.076,20.076,0,0,0,306.9,59a20.119,20.119,0,0,0,16,0,20.133,20.133,0,0,0,6.289-4.374,20.42,20.42,0,0,0,4.125-6.283,19.036,19.036,0,0,0,1.51-7.492" transform="translate(-273.943 -0.125)" fill="#fff"/>
</svg>
