<svg xmlns="http://www.w3.org/2000/svg" width="62.577" height="43.99" viewBox="0 0 62.577 43.99">
  <path id="パス_5033" data-name="パス 5033" d="M462.522,65.213a7.3,7.3,0,0,1-5.259,2.1h-.45a7.109,7.109,0,0,1-5.222-2.139,7.282,7.282,0,0,1-2.14-5.367V41.942a4.622,4.622,0,0,0-.6-2.177q-.6-1.126-2.779-1.126a5.1,5.1,0,0,0-3.306,1.09,3.377,3.377,0,0,0-1.353,2.74V59.808a7.179,7.179,0,0,1-2.177,5.4,7.394,7.394,0,0,1-5.334,2.1h-.376a7.566,7.566,0,0,1-2.93-.562,7.281,7.281,0,0,1-2.366-1.576,7.65,7.65,0,0,1-1.615-2.4,7.361,7.361,0,0,1-.6-2.965V41.416a3.2,3.2,0,0,0-.751-1.952q-.753-.974-3.155-.975a4.941,4.941,0,0,0-3.343,1.2,3.662,3.662,0,0,0-1.389,2.852V59.808a7.389,7.389,0,0,1-.6,2.965,7.675,7.675,0,0,1-1.615,2.4,7.287,7.287,0,0,1-2.367,1.576,7.18,7.18,0,0,1-2.779.562h-.45a7.566,7.566,0,0,1-2.93-.562,7.263,7.263,0,0,1-2.366-1.576,7.172,7.172,0,0,1-1.579-2.4,7.827,7.827,0,0,1-.563-2.965V31.132a7.552,7.552,0,0,1,.563-2.928,7.262,7.262,0,0,1,3.945-3.94,7.537,7.537,0,0,1,2.93-.564h.45a6.3,6.3,0,0,1,3.3.9,4.712,4.712,0,0,1,1.954,1.877,6.987,6.987,0,0,1,1.541-1.09,16.5,16.5,0,0,1,2.216-1.012,20.859,20.859,0,0,1,2.441-.75,9.489,9.489,0,0,1,2.216-.3,22.355,22.355,0,0,1,4.207.337,16.139,16.139,0,0,1,3,.863,9.789,9.789,0,0,1,2.216,1.239q.938.713,1.917,1.464a27.166,27.166,0,0,1,5.107-2.7,14.371,14.371,0,0,1,5.41-1.2,27.743,27.743,0,0,1,9.691,1.425,13.855,13.855,0,0,1,5.858,3.942,13.683,13.683,0,0,1,2.856,5.93,34.085,34.085,0,0,1,.751,7.32V59.808a7.181,7.181,0,0,1-2.179,5.4" transform="translate(-402.124 -23.325)" fill="#fff"/>
</svg>
