<svg xmlns="http://www.w3.org/2000/svg" width="44.923" height="44.515" viewBox="0 0 44.923 44.515">
  <path id="パス_5031" data-name="パス 5031" d="M382.433,56.262a6.266,6.266,0,0,1-1.2,3.715,11.826,11.826,0,0,1-3.118,2.966,21.126,21.126,0,0,1-4.319,2.176,45.36,45.36,0,0,1-4.77,1.5,37.1,37.1,0,0,1-4.471.861A27.9,27.9,0,0,1,351.9,66.322a21.308,21.308,0,0,1-7.512-4.242,19.855,19.855,0,0,1-5.033-6.981,23.457,23.457,0,0,1-1.841-9.571,23.725,23.725,0,0,1,1.878-9.759,19.554,19.554,0,0,1,5.109-6.981,21.619,21.619,0,0,1,7.512-4.167,29.286,29.286,0,0,1,9.089-1.388,24.348,24.348,0,0,1,3.72.337,37.435,37.435,0,0,1,9.013,2.664,21.506,21.506,0,0,1,4.019,2.29,11.875,11.875,0,0,1,2.893,2.928,6.128,6.128,0,0,1,1.089,3.49,6.915,6.915,0,0,1-2.253,5.406,7.909,7.909,0,0,1-5.484,2.026,7.2,7.2,0,0,1-2.03-.264,8.593,8.593,0,0,1-1.727-.712q-1.652-.9-3.982-2.028a11.4,11.4,0,0,0-5.032-1.125,9.728,9.728,0,0,0-3.832.675,6.779,6.779,0,0,0-2.517,1.764,7.248,7.248,0,0,0-1.389,2.4,7.936,7.936,0,0,0-.45,2.589,7.641,7.641,0,0,0,.413,2.439,6.23,6.23,0,0,0,1.389,2.29,7.54,7.54,0,0,0,2.478,1.728,9.18,9.18,0,0,0,3.757.675,16.275,16.275,0,0,0,5.447-.938,22.28,22.28,0,0,0,4.244-1.914,13.926,13.926,0,0,1,1.766-.789,5.833,5.833,0,0,1,2.065-.413,7.825,7.825,0,0,1,2.969.564,8.414,8.414,0,0,1,2.478,1.538,6.737,6.737,0,0,1,1.69,2.365,7.584,7.584,0,0,1,.6,3.04" transform="translate(-337.51 -23.232)" fill="#fff"/>
</svg>
