<svg xmlns="http://www.w3.org/2000/svg" width="76.675" height="81.244" viewBox="0 0 76.675 81.244">
  <path id="パス_5039" data-name="パス 5039" d="M295.93,66.45a24.806,24.806,0,0,1-7.5,8.045,37.126,37.126,0,0,1-11.22,5.128,50.751,50.751,0,0,1-13.785,1.809,44.093,44.093,0,0,1-15.044-2.664A40.9,40.9,0,0,1,235.1,70.924,39.3,39.3,0,0,1,225.6,58.155a39.8,39.8,0,0,1-3.623-17.346,40.219,40.219,0,0,1,11.673-28.5,41.076,41.076,0,0,1,13.18-8.85,42.375,42.375,0,0,1,16.8-3.267,39.823,39.823,0,0,1,12.83,1.961,40.749,40.749,0,0,1,9.911,4.776,26.145,26.145,0,0,1,6.389,5.883q2.265,3.066,2.264,5.178a9.748,9.748,0,0,1-.855,4.022,11.183,11.183,0,0,1-2.314,3.368,11.377,11.377,0,0,1-3.321,2.312,9.4,9.4,0,0,1-3.974.855,9.727,9.727,0,0,1-7.246-3.118v.1a17.344,17.344,0,0,0-4.829-3.068,19.3,19.3,0,0,0-7.848-1.356,24.138,24.138,0,0,0-9.258,1.658,20.54,20.54,0,0,0-6.793,4.424,18.849,18.849,0,0,0-4.225,6.434,20.348,20.348,0,0,0-1.46,7.591,18.332,18.332,0,0,0,1.46,7.19,19.178,19.178,0,0,0,4.175,6.185,20.743,20.743,0,0,0,6.592,4.373,22.166,22.166,0,0,0,8.8,1.66,26.83,26.83,0,0,0,9.912-1.559q3.872-1.557,3.874-3.569V53.681H267.555a9.383,9.383,0,0,1-3.975-.857,11.509,11.509,0,0,1-5.635-5.629,9.665,9.665,0,0,1,0-7.943,10.709,10.709,0,0,1,2.316-3.269,11.909,11.909,0,0,1,3.319-2.263,9.43,9.43,0,0,1,3.975-.855h20.526a10.012,10.012,0,0,1,4.126.855,11.071,11.071,0,0,1,3.321,2.263,11.221,11.221,0,0,1,2.264,3.269,9.429,9.429,0,0,1,.856,3.971V55.992A20.613,20.613,0,0,1,295.93,66.45" transform="translate(-221.973 -0.188)" fill="#fff"/>
</svg>
