<svg xmlns="http://www.w3.org/2000/svg" width="47.628" height="44.515" viewBox="0 0 47.628 44.515">
  <path id="パス_5032" data-name="パス 5032" d="M415.549,45.526a24.447,24.447,0,0,1-1.465,8.445,19.849,19.849,0,0,1-4.395,7.056,21.438,21.438,0,0,1-7.4,4.88,31.219,31.219,0,0,1-21.11,0,21.406,21.406,0,0,1-7.4-4.88,19.827,19.827,0,0,1-4.395-7.056,24.447,24.447,0,0,1-1.465-8.445,25.165,25.165,0,0,1,1.426-8.408,19.5,19.5,0,0,1,4.395-7.132,21.6,21.6,0,0,1,7.438-4.917,27.669,27.669,0,0,1,10.554-1.838,27.961,27.961,0,0,1,10.593,1.838,21.136,21.136,0,0,1,7.438,4.917,19.824,19.824,0,0,1,4.356,7.095,25.057,25.057,0,0,1,1.428,8.445m-15.626,0a7.327,7.327,0,0,0-1.991-5.105q-1.99-2.177-6.2-2.176t-6.2,2.176a7.319,7.319,0,0,0-1.991,5.105,7.223,7.223,0,0,0,1.991,5.03q1.988,2.177,6.2,2.177t6.2-2.177a7.231,7.231,0,0,0,1.991-5.03" transform="translate(-367.921 -23.231)" fill="#fff"/>
</svg>
