<svg xmlns="http://www.w3.org/2000/svg" width="76.675" height="81.244" viewBox="0 0 76.675 81.244">
  <path id="パス_5037" data-name="パス 5037" d="M220.934,66.45a24.794,24.794,0,0,1-7.5,8.045,37.1,37.1,0,0,1-11.218,5.128,50.751,50.751,0,0,1-13.785,1.809,44.093,44.093,0,0,1-15.044-2.664,40.9,40.9,0,0,1-13.281-7.844A39.3,39.3,0,0,1,150.6,58.155a39.8,39.8,0,0,1-3.623-17.346A40.219,40.219,0,0,1,158.65,12.3a41.076,41.076,0,0,1,13.18-8.85,42.375,42.375,0,0,1,16.8-3.267,39.823,39.823,0,0,1,12.83,1.961,40.748,40.748,0,0,1,9.911,4.776,26.144,26.144,0,0,1,6.389,5.883q2.265,3.066,2.264,5.178a9.747,9.747,0,0,1-.856,4.022,11.182,11.182,0,0,1-2.314,3.368,11.378,11.378,0,0,1-3.321,2.312,9.406,9.406,0,0,1-3.975.855,9.726,9.726,0,0,1-7.245-3.118v.1a17.345,17.345,0,0,0-4.829-3.068,19.3,19.3,0,0,0-7.848-1.356,24.138,24.138,0,0,0-9.258,1.658,20.54,20.54,0,0,0-6.793,4.424,18.849,18.849,0,0,0-4.225,6.434,20.349,20.349,0,0,0-1.46,7.591,18.334,18.334,0,0,0,1.46,7.19,19.178,19.178,0,0,0,4.175,6.185,20.745,20.745,0,0,0,6.592,4.373,22.166,22.166,0,0,0,8.8,1.66,26.83,26.83,0,0,0,9.912-1.559q3.872-1.557,3.874-3.569V53.681H192.559a9.383,9.383,0,0,1-3.975-.857,11.509,11.509,0,0,1-5.635-5.629,9.663,9.663,0,0,1,0-7.943,10.707,10.707,0,0,1,2.316-3.269,11.909,11.909,0,0,1,3.319-2.263,9.43,9.43,0,0,1,3.975-.855h20.526a10.012,10.012,0,0,1,4.126.855,11.069,11.069,0,0,1,3.321,2.263,11.22,11.22,0,0,1,2.264,3.269,9.43,9.43,0,0,1,.855,3.971V55.992a20.612,20.612,0,0,1-2.718,10.458" transform="translate(-146.977 -0.188)" fill="#fff"/>
</svg>
