<svg xmlns="http://www.w3.org/2000/svg" width="72.951" height="81.345" viewBox="0 0 72.951 81.345">
  <path id="パス_5035" data-name="パス 5035" d="M121.262,55.415a21.69,21.69,0,0,1-3.018,11.562,25.512,25.512,0,0,1-8.1,8.2A37.99,37.99,0,0,1,98.37,80.05a59.455,59.455,0,0,1-13.936,1.609A51.851,51.851,0,0,1,72.561,80.4,49.574,49.574,0,0,1,63.1,77.234a42.391,42.391,0,0,1-7.044-4.022,47.709,47.709,0,0,1-4.729-3.821,10.119,10.119,0,0,1-2.213-3.368,10.333,10.333,0,0,1-.806-3.971,13.224,13.224,0,0,1,1.307-5.028,10.868,10.868,0,0,1,3.12-3.519A9.812,9.812,0,0,1,58.775,51.9a11.79,11.79,0,0,1,3.774.7,8.068,8.068,0,0,1,3.371,2.112q1.409,1.005,3.17,2.062a26.385,26.385,0,0,0,4.125,1.961A34.11,34.11,0,0,0,78.5,60.241a32.873,32.873,0,0,0,6.64.6,45.347,45.347,0,0,0,5.082-.3,26.718,26.718,0,0,0,4.93-1.006,13.731,13.731,0,0,0,3.723-1.708,2.976,2.976,0,0,0,1.459-2.515A3.328,3.328,0,0,0,98.873,52.4a9.96,9.96,0,0,0-3.723-1.456,30.813,30.813,0,0,0-4.881-.553q-2.617-.1-4.829-.1H75.68a28.275,28.275,0,0,1-8.8-1.459,25.237,25.237,0,0,1-8.1-4.374,22.886,22.886,0,0,1-5.936-7.339,22.025,22.025,0,0,1-2.314-10.357,20.89,20.89,0,0,1,3.219-11.614,28.661,28.661,0,0,1,8.15-8.3A36.351,36.351,0,0,1,72.762,1.922,43.55,43.55,0,0,1,84.132.313,54.938,54.938,0,0,1,96.106,1.57a41.464,41.464,0,0,1,9.861,3.42,20.589,20.589,0,0,1,6.691,5.178,10.123,10.123,0,0,1,2.465,6.536,9.412,9.412,0,0,1-.856,3.972,11.38,11.38,0,0,1-2.314,3.318,10.45,10.45,0,0,1-3.371,2.261,9.994,9.994,0,0,1-3.924.805,11.3,11.3,0,0,1-2.919-.4,9.007,9.007,0,0,1-2.917-1.408q-1.812-1.005-3.271-1.811a16.758,16.758,0,0,0-3.068-1.306,20.93,20.93,0,0,0-3.522-.754,36.3,36.3,0,0,0-4.628-.252,29.469,29.469,0,0,0-4.429.352,21.839,21.839,0,0,0-4.226,1.056,9.879,9.879,0,0,0-3.118,1.76,3.186,3.186,0,0,0-1.208,2.463q0,.906,1.409,1.809a7.676,7.676,0,0,0,4.125.9h8.653a78.923,78.923,0,0,1,13.383,1.107A33.692,33.692,0,0,1,110.344,34.6a22.033,22.033,0,0,1,7.949,7.943q2.967,5.028,2.969,12.87" transform="translate(-48.311 -0.313)" fill="#fff"/>
</svg>
