<svg xmlns="http://www.w3.org/2000/svg" width="20.93" height="79.435" viewBox="0 0 20.93 79.435">
  <path id="パス_5038" data-name="パス 5038" d="M222.107,74.2a11.064,11.064,0,0,1-2.163,3.217,9.981,9.981,0,0,1-3.17,2.213,9.575,9.575,0,0,1-3.924.8h-.806a9.333,9.333,0,0,1-3.824-.8,10.727,10.727,0,0,1-5.432-5.43,9.265,9.265,0,0,1-.806-3.821V11.056a9.506,9.506,0,0,1,.806-3.921A9.944,9.944,0,0,1,205,3.967a11.1,11.1,0,0,1,3.219-2.161A9.334,9.334,0,0,1,212.045,1h.806a9.717,9.717,0,0,1,7.143,2.917,9.7,9.7,0,0,1,2.919,7.138V70.381a9.316,9.316,0,0,1-.806,3.821" transform="translate(-201.983 -1.001)" fill="#fff"/>
</svg>
