<svg xmlns="http://www.w3.org/2000/svg" width="67.416" height="81.042" viewBox="0 0 67.416 81.042">
  <path id="パス_5036" data-name="パス 5036" d="M165.621,75.11a11.177,11.177,0,0,1-2.213,3.167,9.006,9.006,0,0,1-3.219,2.062,10.643,10.643,0,0,1-3.774.7h-.8a10.232,10.232,0,0,1-3.724-.7,9.635,9.635,0,0,1-3.219-2.062A10.691,10.691,0,0,1,146.4,75.11a9.551,9.551,0,0,1-.854-4.122v-18.4H119.991v18.4a9.551,9.551,0,0,1-.856,4.122,10.72,10.72,0,0,1-2.264,3.167,9.651,9.651,0,0,1-3.219,2.062,10.236,10.236,0,0,1-3.723.7h-.806a10.494,10.494,0,0,1-3.824-.7,9.093,9.093,0,0,1-3.17-2.062,11.144,11.144,0,0,1-2.213-3.167,9.528,9.528,0,0,1-.856-4.122V31.873a54.7,54.7,0,0,1,1.208-11.411,24.44,24.44,0,0,1,4.779-10.206,25.582,25.582,0,0,1,10.213-7.391Q121.9,0,132.769,0t17.508,2.865a25.581,25.581,0,0,1,10.213,7.391,24.44,24.44,0,0,1,4.779,10.206,54.7,54.7,0,0,1,1.208,11.411V70.988a9.551,9.551,0,0,1-.856,4.122M144.944,27.2a9.633,9.633,0,0,0-2.063-3.821,9.876,9.876,0,0,0-3.924-2.615,17.282,17.282,0,0,0-6.188-.955,17.616,17.616,0,0,0-6.289.955,9.453,9.453,0,0,0-3.874,2.615,9.97,9.97,0,0,0-2.012,3.821,16.966,16.966,0,0,0-.6,4.575h25.558a16.965,16.965,0,0,0-.6-4.575" transform="translate(-99.061)" fill="#fff"/>
</svg>
