<svg xmlns="http://www.w3.org/2000/svg" width="69.228" height="80.238" viewBox="0 0 69.228 80.238">
  <path id="パス_5034" data-name="パス 5034" d="M67.869,60.677a25.1,25.1,0,0,1-5.132,10.257,27,27,0,0,1-10.515,7.44Q45.48,81.241,34.615,81.24T17,78.375A26.977,26.977,0,0,1,6.49,70.935,25.1,25.1,0,0,1,1.359,60.677,48.917,48.917,0,0,1,0,49.266V11.057A8.945,8.945,0,0,1,.856,7.285,10.49,10.49,0,0,1,3.12,4.068,11.952,11.952,0,0,1,6.339,1.855,8.642,8.642,0,0,1,10.062,1h.905a8.327,8.327,0,0,1,3.673.853,12.326,12.326,0,0,1,3.17,2.213,10.544,10.544,0,0,1,2.264,3.217,8.969,8.969,0,0,1,.856,3.772V49.266a15.873,15.873,0,0,0,.6,4.474A7.674,7.674,0,0,0,23.7,57.259a11.016,11.016,0,0,0,4.226,2.312,22.225,22.225,0,0,0,6.693.855,22.224,22.224,0,0,0,6.69-.855,11.016,11.016,0,0,0,4.226-2.312A7.69,7.69,0,0,0,47.7,53.74a15.873,15.873,0,0,0,.6-4.474V11.057a8.945,8.945,0,0,1,.856-3.772,10.49,10.49,0,0,1,2.264-3.217,12.217,12.217,0,0,1,3.17-2.213A8.315,8.315,0,0,1,58.259,1h.907a8.648,8.648,0,0,1,3.723.853,12,12,0,0,1,3.219,2.213,10.544,10.544,0,0,1,2.264,3.217,8.969,8.969,0,0,1,.856,3.772V49.266a48.918,48.918,0,0,1-1.359,11.411" transform="translate(0 -1.002)" fill="#fff"/>
</svg>
