<svg xmlns="http://www.w3.org/2000/svg" width="899.24" height="150.848" viewBox="0 0 899.24 150.848"><g transform="translate(-46 -907.196)"><rect width="899.24" height="31.648" rx="15.824" transform="translate(46 1026.396)" fill="#ffdb00"/><path d="M1.936,0Q.928,0,.928-1.056V-10.32q0-1.056,1.008-1.056T2.944-10.32v3.472a2.052,2.052,0,0,1,.72-.736A2.136,2.136,0,0,1,4.848-7.9a2.638,2.638,0,0,1,1.96.768,3.1,3.1,0,0,1,.76,2.272v3.808Q7.568,0,6.56,0T5.552-1.056V-4.368a2.1,2.1,0,0,0-.328-1.28,1.056,1.056,0,0,0-.888-.432,1.28,1.28,0,0,0-1,.44,2.043,2.043,0,0,0-.392,1.384v3.2Q2.944,0,1.936,0ZM22.56.176a3.775,3.775,0,0,1-1.928-.5,3.492,3.492,0,0,1-1.344-1.408A4.444,4.444,0,0,1,18.8-3.856a4.433,4.433,0,0,1,.488-2.136A3.56,3.56,0,0,1,20.632-7.4a3.728,3.728,0,0,1,1.928-.5,3.716,3.716,0,0,1,1.936.5,3.578,3.578,0,0,1,1.336,1.408,4.433,4.433,0,0,1,.488,2.136,4.444,4.444,0,0,1-.488,2.128A3.508,3.508,0,0,1,24.5-.32,3.763,3.763,0,0,1,22.56.176Zm0-1.824a1.58,1.58,0,0,0,1.256-.568,2.448,2.448,0,0,0,.488-1.64,2.475,2.475,0,0,0-.488-1.656A1.58,1.58,0,0,0,22.56-6.08a1.534,1.534,0,0,0-1.24.568,2.533,2.533,0,0,0-.472,1.656,2.505,2.505,0,0,0,.472,1.64A1.534,1.534,0,0,0,22.56-1.648ZM40.352.16a5.557,5.557,0,0,1-1.3-.152,3.972,3.972,0,0,1-1.192-.5.9.9,0,0,1-.48-.664.924.924,0,0,1,.272-.712.847.847,0,0,1,.632-.312,1.714,1.714,0,0,1,.776.264,2.922,2.922,0,0,0,1.408.336,1.693,1.693,0,0,0,.848-.152.62.62,0,0,0,.24-.568.458.458,0,0,0-.12-.312,1.155,1.155,0,0,0-.5-.256,10.5,10.5,0,0,0-1.128-.264,3.825,3.825,0,0,1-1.8-.768,2.036,2.036,0,0,1-.632-1.632,2.1,2.1,0,0,1,.384-1.256,2.516,2.516,0,0,1,1.048-.832,3.636,3.636,0,0,1,1.5-.3,4.88,4.88,0,0,1,2.048.416A.908.908,0,0,1,42.9-6.9a.872.872,0,0,1-.2.72.791.791,0,0,1-.6.36,2.155,2.155,0,0,1-.792-.168,2.316,2.316,0,0,0-.48-.136,3.013,3.013,0,0,0-.5-.04,1.128,1.128,0,0,0-.72.168.507.507,0,0,0-.192.392.468.468,0,0,0,.1.288.945.945,0,0,0,.416.248,9.04,9.04,0,0,0,.992.28,4.43,4.43,0,0,1,2.008.92,2.105,2.105,0,0,1,.68,1.64A1.986,1.986,0,0,1,42.7-.432,4.257,4.257,0,0,1,40.352.16ZM55.712,0Q54.7,0,54.7-1.056V-10.32q0-1.056,1.008-1.056T56.72-10.32v3.472a2.052,2.052,0,0,1,.72-.736,2.136,2.136,0,0,1,1.184-.32,2.638,2.638,0,0,1,1.96.768,3.1,3.1,0,0,1,.76,2.272v3.808Q61.344,0,60.336,0T59.328-1.056V-4.368A2.1,2.1,0,0,0,59-5.648a1.056,1.056,0,0,0-.888-.432,1.28,1.28,0,0,0-1,.44,2.043,2.043,0,0,0-.392,1.384v3.2Q56.72,0,55.712,0ZM74.224,0q-1.008,0-1.008-1.056v-5.6q0-1.056,1.008-1.056t1.008,1.056v5.6Q75.232,0,74.224,0Zm-.016-8.864a1.175,1.175,0,0,1-.872-.368,1.214,1.214,0,0,1-.36-.88,1.188,1.188,0,0,1,.36-.872,1.188,1.188,0,0,1,.872-.36,1.188,1.188,0,0,1,.872.36,1.188,1.188,0,0,1,.36.872,1.214,1.214,0,0,1-.36.88A1.175,1.175,0,0,1,74.208-8.864ZM104.656.176a3.775,3.775,0,0,1-1.928-.5,3.492,3.492,0,0,1-1.344-1.408,4.444,4.444,0,0,1-.488-2.128,4.433,4.433,0,0,1,.488-2.136A3.56,3.56,0,0,1,102.728-7.4a3.728,3.728,0,0,1,1.928-.5,3.716,3.716,0,0,1,1.936.5,3.578,3.578,0,0,1,1.336,1.408,4.433,4.433,0,0,1,.488,2.136,4.444,4.444,0,0,1-.488,2.128A3.508,3.508,0,0,1,106.592-.32,3.763,3.763,0,0,1,104.656.176Zm0-1.824a1.58,1.58,0,0,0,1.256-.568,2.448,2.448,0,0,0,.488-1.64,2.475,2.475,0,0,0-.488-1.656,1.58,1.58,0,0,0-1.256-.568,1.534,1.534,0,0,0-1.24.568,2.533,2.533,0,0,0-.472,1.656,2.505,2.505,0,0,0,.472,1.64A1.534,1.534,0,0,0,104.656-1.648ZM121.44,0q-1.008,0-1.008-1.056V-5.984h-.384q-1.056,0-1.056-.864t.72-.864h.72V-9.04a2.516,2.516,0,0,1,.64-1.976,2.9,2.9,0,0,1,1.936-.552,3.1,3.1,0,0,1,1.08.16.709.709,0,0,1,.424.752,1.213,1.213,0,0,1-.152.616.668.668,0,0,1-.632.264,2.033,2.033,0,0,1-.232-.016,1.952,1.952,0,0,0-.216-.016.754.754,0,0,0-.64.272,1.212,1.212,0,0,0-.208.752v1.072h1.024q1.056,0,1.056.864t-1.04.864h-1.04v4.928Q122.432,0,121.44,0Zm15.7,0q-1.008,0-1.008-1.056V-5.984h-.384q-1.056,0-1.056-.864t.72-.864h.72V-9.04a2.516,2.516,0,0,1,.64-1.976,2.9,2.9,0,0,1,1.936-.552,3.1,3.1,0,0,1,1.08.16.709.709,0,0,1,.424.752,1.213,1.213,0,0,1-.152.616.668.668,0,0,1-.632.264,2.033,2.033,0,0,1-.232-.016,1.952,1.952,0,0,0-.216-.016.754.754,0,0,0-.64.272,1.212,1.212,0,0,0-.208.752v1.072h1.024q1.056,0,1.056.864t-1.04.864h-1.04v4.928Q138.128,0,137.136,0Zm15.152,0q-1.008,0-1.008-1.056v-5.6q0-1.056,1.008-1.056T153.3-6.656v5.6Q153.3,0,152.288,0Zm-.016-8.864a1.175,1.175,0,0,1-.872-.368,1.214,1.214,0,0,1-.36-.88,1.188,1.188,0,0,1,.36-.872,1.188,1.188,0,0,1,.872-.36,1.188,1.188,0,0,1,.872.36,1.188,1.188,0,0,1,.36.872,1.214,1.214,0,0,1-.36.88A1.175,1.175,0,0,1,152.272-8.864ZM168.48.176a3.775,3.775,0,0,1-1.928-.5,3.492,3.492,0,0,1-1.344-1.408,4.444,4.444,0,0,1-.488-2.128,4.433,4.433,0,0,1,.488-2.136A3.56,3.56,0,0,1,166.552-7.4a3.728,3.728,0,0,1,1.928-.5,3.651,3.651,0,0,1,2.288.736.793.793,0,0,1,.392.72.922.922,0,0,1-.424.672,1.007,1.007,0,0,1-.664.24,1.869,1.869,0,0,1-.728-.32,1.629,1.629,0,0,0-.864-.224,1.534,1.534,0,0,0-1.24.568,2.533,2.533,0,0,0-.472,1.656,2.505,2.505,0,0,0,.472,1.64,1.534,1.534,0,0,0,1.24.568,1.712,1.712,0,0,0,.832-.192,2.569,2.569,0,0,1,.72-.328.861.861,0,0,1,.688.2,1.024,1.024,0,0,1,.44.672.751.751,0,0,1-.344.7A3.622,3.622,0,0,1,168.48.176ZM184,0q-1.008,0-1.008-1.056v-5.6q0-1.056,1.008-1.056t1.008,1.056v5.6Q185.008,0,184,0Zm-.016-8.864a1.175,1.175,0,0,1-.872-.368,1.214,1.214,0,0,1-.36-.88,1.188,1.188,0,0,1,.36-.872,1.188,1.188,0,0,1,.872-.36,1.188,1.188,0,0,1,.872.36,1.188,1.188,0,0,1,.36.872,1.214,1.214,0,0,1-.36.88A1.175,1.175,0,0,1,183.984-8.864ZM199.472.1a3.206,3.206,0,0,1-2.1-.544,2.038,2.038,0,0,1-.84-1.76,2.112,2.112,0,0,1,.488-1.4,3.274,3.274,0,0,1,1.264-.912,4.307,4.307,0,0,1,1.608-.344,2.056,2.056,0,0,1,.7.056,3.209,3.209,0,0,1,.624.232v-.512q0-.672-.288-.872a1.419,1.419,0,0,0-.816-.2,3.988,3.988,0,0,0-.888.1,5.722,5.722,0,0,0-.888.28,1.469,1.469,0,0,1-.792.136.814.814,0,0,1-.552-.424.86.86,0,0,1-.1-.712.969.969,0,0,1,.592-.552,7.2,7.2,0,0,1,1.24-.416,5.888,5.888,0,0,1,1.384-.16,3.578,3.578,0,0,1,2.256.608,2.68,2.68,0,0,1,.768,2.208v3.36a1.06,1.06,0,0,0,.016.224.406.406,0,0,0,.184.3.918.918,0,0,0,.28.1,1.284,1.284,0,0,1,.248.064q.1.04.1.2A.926.926,0,0,1,203.8-.3a.85.85,0,0,1-.552.32q-.176.032-.368.056a3.225,3.225,0,0,1-.4.024,1.141,1.141,0,0,1-1.2-.64A3.323,3.323,0,0,1,199.472.1Zm-.048-1.728a3.164,3.164,0,0,0,1.352-.328.793.793,0,0,0,.472-.776.485.485,0,0,0-.36-.48,2.261,2.261,0,0,0-.84-.08,1.967,1.967,0,0,0-1.168.376.9.9,0,0,0-.416.728.519.519,0,0,0,.248.424A1.243,1.243,0,0,0,199.424-1.632ZM216.144,0q-1.008,0-1.008-1.056V-10.32q0-1.056,1.008-1.056t1.008,1.056v9.264Q217.152,0,216.144,0Zm29.28,0a1.111,1.111,0,0,1-1.136-.9l-1.6-5.632a1.155,1.155,0,0,1,.008-.864.632.632,0,0,1,.616-.32h.016A1.1,1.1,0,0,1,244.5-6.8L245.5-2.816,246.528-6.8a1.052,1.052,0,0,1,1.072-.912,1.044,1.044,0,0,1,1.056.912l1.008,3.984L250.688-6.8a1.1,1.1,0,0,1,1.168-.912.65.65,0,0,1,.624.32,1.124,1.124,0,0,1,.016.864L250.88-.9a1.111,1.111,0,0,1-1.136.9,1.077,1.077,0,0,1-1.12-.912l-1.04-4.032-1.04,4.032A1.077,1.077,0,0,1,245.424,0Zm21.44.176a3.838,3.838,0,0,1-2.752-1,3.989,3.989,0,0,1-1.056-3.032,4.63,4.63,0,0,1,.472-2.168,3.392,3.392,0,0,1,1.3-1.392,3.724,3.724,0,0,1,1.92-.488,3.308,3.308,0,0,1,1.848.5,3.315,3.315,0,0,1,1.16,1.272,3.531,3.531,0,0,1,.4,1.64q0,.688-.272.88a1.351,1.351,0,0,1-.784.192H265.04a1.964,1.964,0,0,0,.584,1.464,2.01,2.01,0,0,0,1.272.392,1.816,1.816,0,0,0,1.344-.5,1.955,1.955,0,0,1,.68-.48.7.7,0,0,1,.664.144.88.88,0,0,1,.408.648,1.05,1.05,0,0,1-.344.808,3.229,3.229,0,0,1-1.24.856A4.323,4.323,0,0,1,266.864.176ZM265.12-4.96h3.056q-.288-1.376-1.456-1.376a1.614,1.614,0,0,0-1.04.32A1.788,1.788,0,0,0,265.12-4.96ZM285.392.176a2.434,2.434,0,0,1-1.1-.256,2.518,2.518,0,0,1-.912-.816v.144a.625.625,0,0,1-.28.584,1.3,1.3,0,0,1-.68.168q-.88,0-.88-1.056V-10.32q0-1.056,1.008-1.056t1.008,1.056v3.136a2.67,2.67,0,0,1,1.84-.72,3.913,3.913,0,0,1,1.936.472,3.358,3.358,0,0,1,1.336,1.376,4.577,4.577,0,0,1,.488,2.2,4.54,4.54,0,0,1-.488,2.184A3.358,3.358,0,0,1,287.328-.3,3.913,3.913,0,0,1,285.392.176Zm-.08-1.824a1.676,1.676,0,0,0,1.288-.568,2.346,2.346,0,0,0,.52-1.64,2.372,2.372,0,0,0-.52-1.656,1.676,1.676,0,0,0-1.288-.568,1.652,1.652,0,0,0-1.28.568,2.4,2.4,0,0,0-.512,1.656,2.37,2.37,0,0,0,.512,1.64A1.652,1.652,0,0,0,285.312-1.648ZM303.168.16a5.557,5.557,0,0,1-1.3-.152,3.972,3.972,0,0,1-1.192-.5.9.9,0,0,1-.48-.664.924.924,0,0,1,.272-.712.848.848,0,0,1,.632-.312,1.714,1.714,0,0,1,.776.264,2.922,2.922,0,0,0,1.408.336,1.693,1.693,0,0,0,.848-.152.62.62,0,0,0,.24-.568.458.458,0,0,0-.12-.312,1.155,1.155,0,0,0-.5-.256,10.5,10.5,0,0,0-1.128-.264,3.825,3.825,0,0,1-1.8-.768,2.036,2.036,0,0,1-.632-1.632,2.1,2.1,0,0,1,.384-1.256,2.516,2.516,0,0,1,1.048-.832,3.636,3.636,0,0,1,1.5-.3,4.88,4.88,0,0,1,2.048.416.908.908,0,0,1,.552.608.872.872,0,0,1-.2.72.791.791,0,0,1-.6.36,2.155,2.155,0,0,1-.792-.168,2.316,2.316,0,0,0-.48-.136,3.013,3.013,0,0,0-.5-.04,1.128,1.128,0,0,0-.72.168.507.507,0,0,0-.192.392.468.468,0,0,0,.1.288.945.945,0,0,0,.416.248,9.038,9.038,0,0,0,.992.28,4.43,4.43,0,0,1,2.008.92,2.105,2.105,0,0,1,.68,1.64,1.986,1.986,0,0,1-.92,1.792A4.257,4.257,0,0,1,303.168.16Zm15.6-.16q-1.008,0-1.008-1.056v-5.6q0-1.056,1.008-1.056t1.008,1.056v5.6Q319.776,0,318.768,0Zm-.016-8.864a1.175,1.175,0,0,1-.872-.368,1.214,1.214,0,0,1-.36-.88,1.188,1.188,0,0,1,.36-.872,1.188,1.188,0,0,1,.872-.36,1.188,1.188,0,0,1,.872.36,1.188,1.188,0,0,1,.36.872,1.214,1.214,0,0,1-.36.88A1.175,1.175,0,0,1,318.752-8.864ZM334.784.176a4.4,4.4,0,0,1-1.3-.168,1.412,1.412,0,0,1-.816-.632,2.552,2.552,0,0,1-.28-1.312V-5.984H332q-1.056,0-1.056-.864a.866.866,0,0,1,.224-.64,1.149,1.149,0,0,1,.816-.224h.4V-9.328a1.081,1.081,0,0,1,.264-.784.989.989,0,0,1,.744-.272q.992,0,.992,1.056v1.616h1.024q1.056,0,1.056.864t-1.04.864h-1.04v3.52a.775.775,0,0,0,.248.672,1.221,1.221,0,0,0,.712.176,1.822,1.822,0,0,1,.832.152q.288.152.288.68a.8.8,0,0,1-.24.64A1.192,1.192,0,0,1,335.6.12,5.658,5.658,0,0,1,334.784.176Zm16.176,0a3.838,3.838,0,0,1-2.752-1,3.989,3.989,0,0,1-1.056-3.032,4.63,4.63,0,0,1,.472-2.168,3.392,3.392,0,0,1,1.3-1.392,3.724,3.724,0,0,1,1.92-.488,3.308,3.308,0,0,1,1.848.5,3.315,3.315,0,0,1,1.16,1.272,3.531,3.531,0,0,1,.4,1.64q0,.688-.272.88a1.351,1.351,0,0,1-.784.192h-4.064a1.964,1.964,0,0,0,.584,1.464,2.01,2.01,0,0,0,1.272.392,1.816,1.816,0,0,0,1.344-.5,1.955,1.955,0,0,1,.68-.48.7.7,0,0,1,.664.144.88.88,0,0,1,.408.648,1.05,1.05,0,0,1-.344.808,3.229,3.229,0,0,1-1.24.856A4.323,4.323,0,0,1,350.96.176ZM349.216-4.96h3.056q-.288-1.376-1.456-1.376a1.614,1.614,0,0,0-1.04.32A1.788,1.788,0,0,0,349.216-4.96Z" transform="translate(73.283 1047.916)" fill="#fff"/><path d="M706.4,102.041a27,27,0,0,1-9.523-5.383,25.178,25.178,0,0,1-6.382-8.856,29.783,29.783,0,0,1-2.335-12.145,30.128,30.128,0,0,1,2.382-12.382,24.8,24.8,0,0,1,6.477-8.856,27.4,27.4,0,0,1,9.524-5.287,37.1,37.1,0,0,1,11.524-1.762,30.8,30.8,0,0,1,4.715.428,47.456,47.456,0,0,1,11.429,3.381,27.259,27.259,0,0,1,5.095,2.905A15.076,15.076,0,0,1,742.97,57.8a7.781,7.781,0,0,1,1.38,4.429,8.777,8.777,0,0,1-2.856,6.86,10.022,10.022,0,0,1-6.953,2.57,9.139,9.139,0,0,1-2.573-.334,10.836,10.836,0,0,1-2.189-.9q-2.1-1.143-5.049-2.572a14.444,14.444,0,0,0-6.38-1.428,12.332,12.332,0,0,0-4.859.856,8.594,8.594,0,0,0-3.19,2.239,9.189,9.189,0,0,0-1.762,3.048,10.085,10.085,0,0,0-.571,3.285,9.706,9.706,0,0,0,.523,3.095,7.9,7.9,0,0,0,1.762,2.905,9.561,9.561,0,0,0,3.142,2.191,11.616,11.616,0,0,0,4.763.856,20.609,20.609,0,0,0,6.906-1.19,28.274,28.274,0,0,0,5.381-2.428,17.592,17.592,0,0,1,2.238-1,7.39,7.39,0,0,1,2.618-.524,9.932,9.932,0,0,1,3.764.715,10.688,10.688,0,0,1,3.142,1.952,8.538,8.538,0,0,1,2.142,3,9.628,9.628,0,0,1,.763,3.858,7.953,7.953,0,0,1-1.523,4.713,15,15,0,0,1-3.953,3.764,26.752,26.752,0,0,1-5.477,2.761,57.667,57.667,0,0,1-6.047,1.906,47.149,47.149,0,0,1-5.668,1.093,35.375,35.375,0,0,1-16.049-1.474Zm-577.147.214a62.855,62.855,0,0,1-11.992-4.019,53.7,53.7,0,0,1-8.931-5.1,60.527,60.527,0,0,1-6-4.848,12.865,12.865,0,0,1-2.806-4.274A13.122,13.122,0,0,1,98.5,78.972a16.8,16.8,0,0,1,1.658-6.38,13.8,13.8,0,0,1,3.955-4.465q2.68-2.041,7.654-2.041a14.947,14.947,0,0,1,4.786.893,10.24,10.24,0,0,1,4.273,2.679q1.786,1.276,4.018,2.616a33.378,33.378,0,0,0,5.23,2.488,43.16,43.16,0,0,0,6.7,1.912,41.644,41.644,0,0,0,8.418.767,57.565,57.565,0,0,0,6.443-.383,33.922,33.922,0,0,0,6.252-1.277,17.386,17.386,0,0,0,4.719-2.168,3.775,3.775,0,0,0,1.849-3.19,4.222,4.222,0,0,0-1.849-3.7,12.612,12.612,0,0,0-4.719-1.847,39.062,39.062,0,0,0-6.189-.7q-3.318-.128-6.123-.129H133.2a35.825,35.825,0,0,1-11.162-1.851,32.011,32.011,0,0,1-10.271-5.549,29.04,29.04,0,0,1-7.525-9.312,27.961,27.961,0,0,1-2.934-13.141,26.524,26.524,0,0,1,4.082-14.736A36.355,36.355,0,0,1,115.725,8.931,46.088,46.088,0,0,1,129.5,2.679,55.2,55.2,0,0,1,143.919.638a69.588,69.588,0,0,1,15.183,1.6,52.521,52.521,0,0,1,12.5,4.338,26.1,26.1,0,0,1,8.484,6.57,12.848,12.848,0,0,1,3.126,8.293,11.945,11.945,0,0,1-1.085,5.04,14.433,14.433,0,0,1-2.934,4.211,13.26,13.26,0,0,1-4.273,2.869,12.671,12.671,0,0,1-4.975,1.021,14.306,14.306,0,0,1-3.7-.51,11.411,11.411,0,0,1-3.7-1.787q-2.3-1.274-4.147-2.3a21.217,21.217,0,0,0-3.89-1.658,26.515,26.515,0,0,0-4.465-.957,46.176,46.176,0,0,0-5.869-.319,37.346,37.346,0,0,0-5.615.446,27.684,27.684,0,0,0-5.359,1.34,12.526,12.526,0,0,0-3.953,2.232,4.043,4.043,0,0,0-1.531,3.126c0,.766.593,1.531,1.787,2.3a9.72,9.72,0,0,0,5.229,1.148h10.972a99.978,99.978,0,0,1,16.968,1.4,42.7,42.7,0,0,1,14.48,5.1,27.942,27.942,0,0,1,10.078,10.078Q190.995,60.6,191,70.551a27.54,27.54,0,0,1-3.827,14.671A32.363,32.363,0,0,1,176.9,95.62a48.158,48.158,0,0,1-14.926,6.188,75.318,75.318,0,0,1-17.669,2.041A65.736,65.736,0,0,1,129.249,102.255ZM21.56,100.214A34.212,34.212,0,0,1,8.229,90.773,31.864,31.864,0,0,1,1.723,77.759,62.1,62.1,0,0,1,0,63.281V14.8a11.357,11.357,0,0,1,1.084-4.786A13.327,13.327,0,0,1,3.955,5.933,15.167,15.167,0,0,1,8.037,3.126a10.951,10.951,0,0,1,4.72-1.082h1.148a10.547,10.547,0,0,1,4.657,1.082,15.664,15.664,0,0,1,4.019,2.807,13.4,13.4,0,0,1,2.871,4.082A11.4,11.4,0,0,1,26.537,14.8V63.281a20.151,20.151,0,0,0,.764,5.676,9.732,9.732,0,0,0,2.743,4.465A13.947,13.947,0,0,0,35.4,76.356a28.157,28.157,0,0,0,8.486,1.085,28.156,28.156,0,0,0,8.482-1.085,13.947,13.947,0,0,0,5.358-2.934,9.759,9.759,0,0,0,2.744-4.465,20.15,20.15,0,0,0,.765-5.676V14.8a11.357,11.357,0,0,1,1.084-4.786,13.327,13.327,0,0,1,2.871-4.082,15.5,15.5,0,0,1,4.019-2.807,10.532,10.532,0,0,1,4.655-1.082h1.15a10.958,10.958,0,0,1,4.72,1.082,15.245,15.245,0,0,1,4.082,2.807,13.4,13.4,0,0,1,2.871,4.082A11.4,11.4,0,0,1,87.773,14.8V63.281a62.1,62.1,0,0,1-1.723,14.478,31.864,31.864,0,0,1-6.506,13.014,34.241,34.241,0,0,1-13.333,9.441q-8.548,3.636-22.324,3.635T21.56,100.214Zm745.413,1.3a27.16,27.16,0,0,1-9.382-6.192,25.16,25.16,0,0,1-5.572-8.954,31.038,31.038,0,0,1-1.857-10.715,31.945,31.945,0,0,1,1.808-10.667,24.731,24.731,0,0,1,5.573-9.049,27.377,27.377,0,0,1,9.43-6.239,35.051,35.051,0,0,1,13.381-2.333,35.425,35.425,0,0,1,13.43,2.333,26.794,26.794,0,0,1,9.43,6.239,25.162,25.162,0,0,1,5.524,9,31.814,31.814,0,0,1,1.81,10.715,31.038,31.038,0,0,1-1.857,10.715,25.189,25.189,0,0,1-5.572,8.954,27.2,27.2,0,0,1-9.382,6.192,39.552,39.552,0,0,1-26.764,0ZM772.5,69.177a9.293,9.293,0,0,0-2.523,6.477,9.172,9.172,0,0,0,2.523,6.382q2.521,2.762,7.856,2.763t7.858-2.763a9.182,9.182,0,0,0,2.524-6.382,9.3,9.3,0,0,0-2.524-6.477q-2.524-2.761-7.858-2.761T772.5,69.177ZM590.763,99.7a52.075,52.075,0,0,1-16.585-10.589,50.195,50.195,0,0,1-15.63-37.189,51.282,51.282,0,0,1,4.211-20.987,50.233,50.233,0,0,1,11.42-16.33,52.961,52.961,0,0,1,72.59,0,50.213,50.213,0,0,1,11.418,16.33A51.234,51.234,0,0,1,662.4,51.924a50.886,50.886,0,0,1-4.211,20.857,50.148,50.148,0,0,1-11.418,16.332,53.205,53.205,0,0,1-56,10.589Zm9.568-70.869a24.19,24.19,0,0,0-7.974,5.548,26.807,26.807,0,0,0-5.232,8.039,24.576,24.576,0,0,0,0,19.009,25.927,25.927,0,0,0,5.232,7.971,25.447,25.447,0,0,0,7.974,5.55,25.5,25.5,0,0,0,20.283,0,25.5,25.5,0,0,0,7.974-5.55,25.884,25.884,0,0,0,5.23-7.971,24.552,24.552,0,0,0,0-19.009,26.761,26.761,0,0,0-5.23-8.039,24.242,24.242,0,0,0-7.974-5.548,26.217,26.217,0,0,0-20.283,0ZM486.075,100.085a51.833,51.833,0,0,1-16.839-9.952,49.867,49.867,0,0,1-12.056-16.2,50.525,50.525,0,0,1-4.594-22.008,51.052,51.052,0,0,1,14.8-36.167A52.078,52.078,0,0,1,484.1,4.529,53.7,53.7,0,0,1,505.4.384,50.475,50.475,0,0,1,521.67,2.871a51.648,51.648,0,0,1,12.566,6.06,33.15,33.15,0,0,1,8.1,7.464q2.871,3.891,2.871,6.57a12.378,12.378,0,0,1-1.085,5.1,14.192,14.192,0,0,1-2.934,4.273,14.425,14.425,0,0,1-4.211,2.934,11.913,11.913,0,0,1-5.038,1.084,12.329,12.329,0,0,1-9.187-3.955v.129a22,22,0,0,0-6.123-3.892,24.448,24.448,0,0,0-9.951-1.721,30.589,30.589,0,0,0-11.738,2.1,26.057,26.057,0,0,0-8.613,5.613,23.922,23.922,0,0,0-5.356,8.164,25.835,25.835,0,0,0-1.851,9.632,23.272,23.272,0,0,0,1.851,9.122,24.345,24.345,0,0,0,5.293,7.849,26.306,26.306,0,0,0,8.357,5.547,28.094,28.094,0,0,0,11.161,2.107,34,34,0,0,0,12.568-1.978q4.909-1.976,4.912-4.529v-2.3H510.379a11.891,11.891,0,0,1-5.041-1.087,14.6,14.6,0,0,1-7.144-7.142,12.271,12.271,0,0,1,0-10.078A13.588,13.588,0,0,1,501.13,45.8a15.1,15.1,0,0,1,4.208-2.871,11.949,11.949,0,0,1,5.041-1.084H536.4a12.684,12.684,0,0,1,5.232,1.084,14.05,14.05,0,0,1,4.211,2.871,14.241,14.241,0,0,1,2.87,4.147,11.971,11.971,0,0,1,1.085,5.039v16.2a26.161,26.161,0,0,1-3.446,13.269,31.453,31.453,0,0,1-9.5,10.207,47.049,47.049,0,0,1-14.226,6.506,64.309,64.309,0,0,1-17.478,2.3A55.866,55.866,0,0,1,486.075,100.085Zm-152.911,0a51.833,51.833,0,0,1-16.839-9.952,49.852,49.852,0,0,1-12.056-16.2,50.525,50.525,0,0,1-4.594-22.008,51.051,51.051,0,0,1,14.8-36.167A52.066,52.066,0,0,1,331.186,4.529,53.691,53.691,0,0,1,352.492.384a50.477,50.477,0,0,1,16.267,2.487,51.647,51.647,0,0,1,12.566,6.06,33.143,33.143,0,0,1,8.1,7.464q2.873,3.891,2.871,6.57a12.377,12.377,0,0,1-1.084,5.1,14.19,14.19,0,0,1-2.934,4.273,14.437,14.437,0,0,1-4.211,2.934,11.92,11.92,0,0,1-5.041,1.084,12.328,12.328,0,0,1-9.185-3.955v.129a22,22,0,0,0-6.123-3.892,24.443,24.443,0,0,0-9.949-1.721,30.586,30.586,0,0,0-11.738,2.1,26.037,26.037,0,0,0-8.613,5.613,23.923,23.923,0,0,0-5.356,8.164,25.835,25.835,0,0,0-1.851,9.632,23.272,23.272,0,0,0,1.851,9.122,24.329,24.329,0,0,0,5.293,7.849,26.3,26.3,0,0,0,8.357,5.547,28.091,28.091,0,0,0,11.161,2.107,33.993,33.993,0,0,0,12.567-1.978q4.909-1.976,4.912-4.529v-2.3H357.468a11.888,11.888,0,0,1-5.041-1.087,14.591,14.591,0,0,1-7.144-7.142,12.271,12.271,0,0,1,0-10.078,13.585,13.585,0,0,1,2.936-4.147,15.105,15.105,0,0,1,4.209-2.871,11.946,11.946,0,0,1,5.041-1.084h26.025a12.682,12.682,0,0,1,5.231,1.084,14.04,14.04,0,0,1,4.211,2.871,14.243,14.243,0,0,1,2.871,4.147,11.969,11.969,0,0,1,1.084,5.039v16.2a26.161,26.161,0,0,1-3.445,13.269,31.433,31.433,0,0,1-9.506,10.207,47.009,47.009,0,0,1-14.223,6.506,64.309,64.309,0,0,1-17.478,2.3A55.862,55.862,0,0,1,333.164,100.085Zm556.074,3.286a9.006,9.006,0,0,1-6.62-2.714,9.238,9.238,0,0,1-2.714-6.809V71.179a5.866,5.866,0,0,0-.763-2.763q-.762-1.429-3.523-1.429a6.468,6.468,0,0,0-4.192,1.382,4.285,4.285,0,0,0-1.715,3.477v22a9.11,9.11,0,0,1-2.761,6.857,9.37,9.37,0,0,1-6.763,2.667h-.476a9.6,9.6,0,0,1-3.716-.713,9.239,9.239,0,0,1-3-2,9.7,9.7,0,0,1-2.048-3.048,9.362,9.362,0,0,1-.762-3.762V70.513a4.063,4.063,0,0,0-.952-2.477q-.955-1.236-4-1.238A6.261,6.261,0,0,0,841,68.32a4.647,4.647,0,0,0-1.762,3.619V93.848a9.378,9.378,0,0,1-.762,3.762,9.729,9.729,0,0,1-2.047,3.048,9.252,9.252,0,0,1-3,2,9.11,9.11,0,0,1-3.523.713h-.572a9.6,9.6,0,0,1-3.715-.713,9.222,9.222,0,0,1-3-2,9.113,9.113,0,0,1-2-3.048,9.932,9.932,0,0,1-.714-3.762V57.463a9.576,9.576,0,0,1,.714-3.715,9.2,9.2,0,0,1,5-5,9.549,9.549,0,0,1,3.715-.716h.572a7.986,7.986,0,0,1,4.19,1.144,5.971,5.971,0,0,1,2.477,2.381,8.844,8.844,0,0,1,1.954-1.382,20.823,20.823,0,0,1,2.809-1.285,26.607,26.607,0,0,1,3.1-.953,12.041,12.041,0,0,1,2.809-.381,28.378,28.378,0,0,1,5.334.428,20.465,20.465,0,0,1,3.809,1.1,12.394,12.394,0,0,1,2.809,1.572q1.19.906,2.431,1.858a34.384,34.384,0,0,1,6.476-3.43,18.2,18.2,0,0,1,6.859-1.523,35.153,35.153,0,0,1,12.287,1.809,17.564,17.564,0,0,1,7.427,5,17.367,17.367,0,0,1,3.621,7.523,43.251,43.251,0,0,1,.952,9.287V93.848a9.114,9.114,0,0,1-2.762,6.857,9.256,9.256,0,0,1-6.668,2.667Zm-222.807-.809a10.3,10.3,0,0,1-3.476-2.286A10.911,10.911,0,0,1,660.62,96.8a11.151,11.151,0,0,1,0-8.571,10.861,10.861,0,0,1,5.811-5.812,11.151,11.151,0,0,1,8.571,0,10.936,10.936,0,0,1,3.477,2.335,10.394,10.394,0,0,1,2.286,3.477,11.333,11.333,0,0,1,.811,4.285,10.582,10.582,0,0,1-10.859,10.857A11.341,11.341,0,0,1,666.431,102.562Zm-241.846.265a11.831,11.831,0,0,1-4.849-1.02,13.6,13.6,0,0,1-6.887-6.889,11.757,11.757,0,0,1-1.021-4.849V14.8a12.06,12.06,0,0,1,1.021-4.975,12.607,12.607,0,0,1,2.805-4.018,14.073,14.073,0,0,1,4.082-2.743,11.832,11.832,0,0,1,4.849-1.021h1.021a12.315,12.315,0,0,1,9.057,3.7,12.315,12.315,0,0,1,3.7,9.057V90.07a11.835,11.835,0,0,1-1.021,4.849A14.06,14.06,0,0,1,434.6,99a12.646,12.646,0,0,1-4.018,2.807,12.138,12.138,0,0,1-4.975,1.02Zm-150.909,0a12.967,12.967,0,0,1-4.722-.891,12.206,12.206,0,0,1-4.082-2.617A13.562,13.562,0,0,1,262,95.3a12.124,12.124,0,0,1-1.082-5.23V66.722H228.514V90.07a12.125,12.125,0,0,1-1.084,5.23,13.6,13.6,0,0,1-2.871,4.018,12.226,12.226,0,0,1-4.082,2.617,12.972,12.972,0,0,1-4.72.891h-1.021a13.3,13.3,0,0,1-4.848-.891,11.527,11.527,0,0,1-4.019-2.617,14.106,14.106,0,0,1-2.805-4.018,12.1,12.1,0,0,1-1.085-5.23V40.44a69.458,69.458,0,0,1,1.531-14.478,31.01,31.01,0,0,1,6.06-12.949,32.426,32.426,0,0,1,12.949-9.377Q230.937,0,244.715,0t22.2,3.636a32.426,32.426,0,0,1,12.949,9.377,31.022,31.022,0,0,1,6.06,12.949,69.459,69.459,0,0,1,1.531,14.478V90.07a12.125,12.125,0,0,1-1.085,5.23,14.164,14.164,0,0,1-2.805,4.018,11.42,11.42,0,0,1-4.082,2.617,13.488,13.488,0,0,1-4.785.891ZM236.741,26.343a11.994,11.994,0,0,0-4.911,3.318,12.641,12.641,0,0,0-2.551,4.848,21.542,21.542,0,0,0-.765,5.8h32.405a21.543,21.543,0,0,0-.767-5.8,12.22,12.22,0,0,0-2.616-4.848,12.536,12.536,0,0,0-4.975-3.318,21.9,21.9,0,0,0-7.847-1.211A22.325,22.325,0,0,0,236.741,26.343Z" transform="translate(46 907.196)" fill="#ffdb00"/></g></svg>